<?xml version="1.0" encoding="UTF-8"?>
<svg xmlns="http://www.w3.org/2000/svg" width="101.88" height="68.0" viewBox="0 0 101.88 68.0">
  <!-- Shape: AC Air Compressor -->
  <!-- Category: compressors -->
  <g class="shape-content" stroke="black" fill="none" stroke-width="1">
    <path d="M 7.94 26 L 93.94 26 A 40 40 0 0 1 93.94 68 L 7.94 68 A 40 40 0 0 1 7.94 26 Z"/>
    <rect x="8.14" y="26" width="85.4" height="42"/>
    <ellipse cx="36.94" cy="19.0" rx="4.0" ry="4.0"/>
    <ellipse cx="67.44" cy="16.0" rx="8.0" ry="8.0"/>
    <path d="M 36.07 15.1 L 65.29 8.42 M 36.97 23.14 L 67.29 24.07 M 17.44 26 L 17.44 21.5 M 12.94 21.5 L 17.44 16.5 M 17.44 0 L 17.44 16.5 M 13.94 8.4 L 21.14 14.7 M 14.94 5.7 L 20.64 10.5 M 15.54 3 L 19.94 7 M 88.44 26 L 88.44 22.5"/>
    <path d="M 12.94 12 L 22.44 21.5 L 12.94 21.5 Z M 85.44 12 L 91.44 12 L 85.44 22.5 L 91.44 22.5 Z"/>
  </g>
  <g class="connection-points" fill="red" opacity="0.5">
    <circle cx="50.94" cy="11.56" r="2" data-name="N"/>
    <circle cx="50.94" cy="68.0" r="2" data-name="S"/>
    <circle cx="1.5281999999999998" cy="46.919999999999995" r="2" data-name="W"/>
    <circle cx="100.3518" cy="46.919999999999995" r="2" data-name="E"/>
    <circle cx="8.1504" cy="25.84" r="2" data-name="NW"/>
    <circle cx="8.1504" cy="68.0" r="2" data-name="SW"/>
    <circle cx="93.7296" cy="25.84" r="2" data-name="NE"/>
    <circle cx="93.7296" cy="68.0" r="2" data-name="SE"/>
  </g>
</svg>