<?xml version="1.0" encoding="UTF-8"?>
<svg xmlns="http://www.w3.org/2000/svg" width="98.0" height="67.0" viewBox="0 0 98.0 67.0">
  <!-- Shape: Centrifugal Compressor - Turbine Driven -->
  <!-- Category: compressors -->
  <g class="shape-content" stroke="black" fill="none" stroke-width="1">
    <path d="M 64.5 2 L 87.5 2 L 87.5 0 L 98 4.5 L 87.5 9 L 87.5 7 L 69.5 7 L 69.5 26 L 64.5 25 Z M 24.5 17 L 74.5 27 L 74.5 57 L 24.5 67 Z M 19.5 32 L 19.5 52 L 0.5 47 L 0.5 37 Z M 0 2 L 39.5 2 L 39.5 20 L 34.5 19 L 34.5 7 L 0 7 Z"/>
    <path d="M 19.5 39 L 24.5 39 M 19.5 45 L 24.5 45"/>
  </g>
  <g class="connection-points" fill="red" opacity="0.5">
    <circle cx="0.0" cy="4.489" r="2" data-name="in"/>
    <circle cx="98.0" cy="4.489" r="2" data-name="out"/>
    <circle cx="0.0" cy="42.21" r="2" data-name="turbine"/>
  </g>
</svg>