<?xml version="1.0" encoding="UTF-8"?>
<svg xmlns="http://www.w3.org/2000/svg" style="left: 1px; top: 1px; width: 42px; height: 42px; display: block; position: relative; overflow: hidden;"><g><g/><g graphViewDrawPane="true"><g shape-node="" transform="translate(0.5,0.5)" style="visibility: visible;"><path cell-id="2" d="M 9.52 1.12 L 31.92 1.12 L 34.72 8.12 L 34.72 40.32 L 6.72 40.32 L 6.72 8.12 Z" fill="#ffffff" stroke="#000000" stroke-width="1.3" stroke-miterlimit="10" pointer-events="all"/><path cell-id="2" d="M 6.72 12.32 L 34.72 12.32 M 6.72 20.72 L 34.72 20.72" fill="none" stroke="white" stroke-width="9.3" stroke-miterlimit="10" pointer-events="stroke" visibility="hidden"/><path cell-id="2" d="M 6.72 12.32 L 34.72 12.32 M 6.72 20.72 L 34.72 20.72" fill="none" stroke="#000000" stroke-width="1.3" stroke-miterlimit="10" pointer-events="all"/><ellipse cell-id="2" cx="10.22" cy="17.92" rx="0.14" ry="0.14" fill="none" stroke="white" stroke-width="9.3" pointer-events="stroke" visibility="hidden"/><ellipse cell-id="2" cx="10.22" cy="17.92" rx="0.14" ry="0.14" fill="none" stroke="#000000" stroke-width="1.3" pointer-events="all"/><ellipse cell-id="2" cx="13.72" cy="15.12" rx="0.14" ry="0.14" fill="none" stroke="white" stroke-width="9.3" pointer-events="stroke" visibility="hidden"/><ellipse cell-id="2" cx="13.72" cy="15.12" rx="0.14" ry="0.14" fill="none" stroke="#000000" stroke-width="1.3" pointer-events="all"/><ellipse cell-id="2" cx="17.22" cy="17.92" rx="0.14" ry="0.14" fill="none" stroke="white" stroke-width="9.3" pointer-events="stroke" visibility="hidden"/><ellipse cell-id="2" cx="17.22" cy="17.92" rx="0.14" ry="0.14" fill="none" stroke="#000000" stroke-width="1.3" pointer-events="all"/><ellipse cell-id="2" cx="20.72" cy="15.12" rx="0.14" ry="0.14" fill="none" stroke="white" stroke-width="9.3" pointer-events="stroke" visibility="hidden"/><ellipse cell-id="2" cx="20.72" cy="15.12" rx="0.14" ry="0.14" fill="none" stroke="#000000" stroke-width="1.3" pointer-events="all"/><ellipse cell-id="2" cx="24.22" cy="17.92" rx="0.14" ry="0.14" fill="none" stroke="white" stroke-width="9.3" pointer-events="stroke" visibility="hidden"/><ellipse cell-id="2" cx="24.22" cy="17.92" rx="0.14" ry="0.14" fill="none" stroke="#000000" stroke-width="1.3" pointer-events="all"/><ellipse cell-id="2" cx="27.72" cy="15.12" rx="0.14" ry="0.14" fill="none" stroke="white" stroke-width="9.3" pointer-events="stroke" visibility="hidden"/><ellipse cell-id="2" cx="27.72" cy="15.12" rx="0.14" ry="0.14" fill="none" stroke="#000000" stroke-width="1.3" pointer-events="all"/><ellipse cell-id="2" cx="31.22" cy="17.92" rx="0.14" ry="0.14" fill="none" stroke="white" stroke-width="9.3" pointer-events="stroke" visibility="hidden"/><ellipse cell-id="2" cx="31.22" cy="17.92" rx="0.14" ry="0.14" fill="none" stroke="#000000" stroke-width="1.3" pointer-events="all"/></g></g><g/><g/></g></svg>