<?xml version="1.0" encoding="UTF-8"?>
<svg xmlns="http://www.w3.org/2000/svg" style="left: 1px; top: 1px; width: 42px; height: 42px; display: block; position: relative; overflow: hidden;"><g><g/><g graphViewDrawPane="true"><g shape-node="" transform="translate(0.5,0.5)" style="visibility: visible;"><rect cell-id="2" x="9" y="2.25" width="24" height="37.5" fill="#ffffff" stroke="#000000" stroke-width="1.3" pointer-events="all"/><rect cell-id="2" x="18" y="8.25" width="6" height="27" fill="none" stroke="white" stroke-width="9.3" pointer-events="stroke" visibility="hidden"/><rect cell-id="2" x="18" y="8.25" width="6" height="27" fill="none" stroke="#000000" stroke-width="1.3" pointer-events="all"/><path cell-id="2" d="M 24 8.25 C 27.31 8.25 30 10.94 30 14.25 L 24 14.25 Z M 18 29.25 L 18 35.25 C 14.69 35.25 12 32.56 12 29.25 Z" fill="none" stroke="white" stroke-width="9.3" stroke-miterlimit="10" pointer-events="stroke" visibility="hidden"/><path cell-id="2" d="M 24 8.25 C 27.31 8.25 30 10.94 30 14.25 L 24 14.25 Z M 18 29.25 L 18 35.25 C 14.69 35.25 12 32.56 12 29.25 Z" fill="none" stroke="#000000" stroke-width="1.3" stroke-miterlimit="10" pointer-events="all"/><ellipse cell-id="2" cx="21" cy="8.25" rx="3" ry="3" fill="#ffffff" stroke="#000000" stroke-width="1.3" pointer-events="all"/><ellipse cell-id="2" cx="21" cy="35.25" rx="3" ry="3" fill="#ffffff" stroke="#000000" stroke-width="1.3" pointer-events="all"/></g></g><g/><g/></g></svg>