<?xml version="1.0" encoding="UTF-8"?>
<svg xmlns="http://www.w3.org/2000/svg" style="left: 1px; top: 1px; width: 42px; height: 42px; display: block; position: relative; overflow: hidden;"><g><g/><g graphViewDrawPane="true"><g shape-node="" transform="translate(0.5,0.5)" style="visibility: visible;"><ellipse cell-id="2" cx="20.28" cy="20.28" rx="19.5" ry="19.5" fill="#ffffff" stroke="#000000" stroke-width="1.3" pointer-events="all"/><path cell-id="2" d="M 12.48 2.54 L 38.61 13.65 M 12.48 38.02 L 38.61 26.91 M 17.27 15.03 C 19.26 17.38 20.57 19.68 20.28 20.28 C 20.12 20.61 19.51 20.39 18.6 19.68 C 17.68 18.97 16.55 17.83 15.49 16.56 C 13.48 14.16 12.19 11.86 12.58 11.35 C 12.77 11.09 13.39 11.33 14.27 12.03 C 15.16 12.72 16.24 13.81 17.27 15.03 Z M 15.48 24.07 C 16.49 22.88 17.54 21.81 18.42 21.11 C 19.3 20.42 19.92 20.14 20.15 20.35 C 20.63 20.78 19.35 23.12 17.28 25.58 C 16.27 26.78 15.22 27.85 14.34 28.54 C 13.46 29.24 12.84 29.52 12.61 29.3 C 12.13 28.88 13.41 26.54 15.48 24.07 Z" fill="none" stroke="white" stroke-width="9.3" stroke-miterlimit="10" pointer-events="stroke" visibility="hidden"/><path cell-id="2" d="M 12.48 2.54 L 38.61 13.65 M 12.48 38.02 L 38.61 26.91 M 17.27 15.03 C 19.26 17.38 20.57 19.68 20.28 20.28 C 20.12 20.61 19.51 20.39 18.6 19.68 C 17.68 18.97 16.55 17.83 15.49 16.56 C 13.48 14.16 12.19 11.86 12.58 11.35 C 12.77 11.09 13.39 11.33 14.27 12.03 C 15.16 12.72 16.24 13.81 17.27 15.03 Z M 15.48 24.07 C 16.49 22.88 17.54 21.81 18.42 21.11 C 19.3 20.42 19.92 20.14 20.15 20.35 C 20.63 20.78 19.35 23.12 17.28 25.58 C 16.27 26.78 15.22 27.85 14.34 28.54 C 13.46 29.24 12.84 29.52 12.61 29.3 C 12.13 28.88 13.41 26.54 15.48 24.07 Z" fill="none" stroke="#000000" stroke-width="1.3" stroke-miterlimit="10" pointer-events="all"/><ellipse cell-id="2" cx="26.13" cy="20.28" rx="5.8500000000000005" ry="1.17" fill="none" stroke="white" stroke-width="9.3" pointer-events="stroke" visibility="hidden"/><ellipse cell-id="2" cx="26.13" cy="20.28" rx="5.8500000000000005" ry="1.17" fill="none" stroke="#000000" stroke-width="1.3" pointer-events="all"/></g></g><g/><g/></g></svg>