<?xml version="1.0" encoding="UTF-8"?>
<svg xmlns="http://www.w3.org/2000/svg" style="left: 1px; top: 1px; width: 42px; height: 42px; display: block; position: relative; overflow: hidden;"><g><g/><g graphViewDrawPane="true"><g shape-node="" transform="translate(0.5,0.5)" style="visibility: visible;"><path cell-id="2" d="M 12.54 5.94 C 12.54 3.21 16.23 0.99 20.79 0.99 C 25.35 0.99 29.04 3.21 29.04 5.94 L 29.04 35.64 C 29.04 38.37 25.35 40.59 20.79 40.59 C 16.23 40.59 12.54 38.37 12.54 35.64 Z" fill="#ffffff" stroke="#000000" stroke-width="1.3" stroke-miterlimit="10" pointer-events="all"/><path cell-id="2" d="M 12.54 9.24 L 29.04 9.24 M 12.54 32.34 L 29.04 32.34" fill="none" stroke="white" stroke-width="9.3" stroke-miterlimit="10" pointer-events="stroke" visibility="hidden"/><path cell-id="2" d="M 12.54 9.24 L 29.04 9.24 M 12.54 32.34 L 29.04 32.34" fill="none" stroke="#000000" stroke-width="1.3" stroke-miterlimit="10" stroke-dasharray="0.99 0.99" pointer-events="all"/><path cell-id="2" d="M 12.54 12.54 L 19.14 12.54 M 16.66 11.88 C 19.28 10.68 22.3 10.68 24.92 11.88 M 22.44 12.54 L 29.04 12.54 M 12.54 15.84 L 19.14 15.84 M 16.66 15.18 C 19.28 13.98 22.3 13.98 24.92 15.18 M 22.44 15.84 L 29.04 15.84 M 12.54 19.14 L 19.14 19.14 M 16.66 18.48 C 19.28 17.28 22.3 17.28 24.92 18.48 M 22.44 19.14 L 29.04 19.14 M 12.54 22.44 L 19.14 22.44 M 16.66 21.78 C 19.28 20.58 22.3 20.58 24.92 21.78 M 22.44 22.44 L 29.04 22.44 M 12.54 25.74 L 19.14 25.74 M 16.66 25.08 C 19.28 23.88 22.3 23.88 24.92 25.08 M 22.44 25.74 L 29.04 25.74 M 12.54 29.04 L 19.14 29.04 M 16.66 28.38 C 19.28 27.18 22.3 27.18 24.92 28.38 M 22.44 29.04 L 29.04 29.04" fill="none" stroke="white" stroke-width="9.3" stroke-miterlimit="10" pointer-events="stroke" visibility="hidden"/><path cell-id="2" d="M 12.54 12.54 L 19.14 12.54 M 16.66 11.88 C 19.28 10.68 22.3 10.68 24.92 11.88 M 22.44 12.54 L 29.04 12.54 M 12.54 15.84 L 19.14 15.84 M 16.66 15.18 C 19.28 13.98 22.3 13.98 24.92 15.18 M 22.44 15.84 L 29.04 15.84 M 12.54 19.14 L 19.14 19.14 M 16.66 18.48 C 19.28 17.28 22.3 17.28 24.92 18.48 M 22.44 19.14 L 29.04 19.14 M 12.54 22.44 L 19.14 22.44 M 16.66 21.78 C 19.28 20.58 22.3 20.58 24.92 21.78 M 22.44 22.44 L 29.04 22.44 M 12.54 25.74 L 19.14 25.74 M 16.66 25.08 C 19.28 23.88 22.3 23.88 24.92 25.08 M 22.44 25.74 L 29.04 25.74 M 12.54 29.04 L 19.14 29.04 M 16.66 28.38 C 19.28 27.18 22.3 27.18 24.92 28.38 M 22.44 29.04 L 29.04 29.04" fill="none" stroke="#000000" stroke-width="1.3" stroke-miterlimit="10" stroke-dasharray="0.99 0.99" pointer-events="all"/></g></g><g/><g/></g></svg>