<?xml version="1.0" encoding="UTF-8"?>
<svg xmlns="http://www.w3.org/2000/svg" style="left: 1px; top: 1px; width: 42px; height: 42px; display: block; position: relative; overflow: hidden;"><g><g/><g graphViewDrawPane="true"><g shape-node="" transform="translate(0.5,0.5)" style="visibility: visible;"><rect cell-id="2" x="1.12" y="12.32" width="39.2" height="8.4" fill="#ffffff" stroke="#000000" stroke-width="1.3" pointer-events="all"/><path cell-id="2" d="M 14 26.88 L 27.44 23.52 C 28.37 23.52 29.12 24.27 29.12 25.2 C 29.12 26.13 28.37 26.88 27.44 26.88 L 14 23.52 C 13.07 23.52 12.32 24.27 12.32 25.2 C 12.32 26.13 13.07 26.88 14 26.88 Z" fill="#ffffff" stroke="#000000" stroke-width="1.3" stroke-miterlimit="10" pointer-events="all"/><path cell-id="2" d="M 6.72 12.32 L 6.72 20.72 L 3.92 29.12 M 34.72 12.32 L 34.72 20.72 L 37.52 29.12" fill="none" stroke="white" stroke-width="9.3" stroke-miterlimit="10" pointer-events="stroke" visibility="hidden"/><path cell-id="2" d="M 6.72 12.32 L 6.72 20.72 L 3.92 29.12 M 34.72 12.32 L 34.72 20.72 L 37.52 29.12" fill="none" stroke="#000000" stroke-width="1.3" stroke-miterlimit="10" pointer-events="all"/></g></g><g/><g/></g></svg>