<?xml version="1.0" encoding="UTF-8"?>
<svg xmlns="http://www.w3.org/2000/svg" style="left: 1px; top: 1px; width: 42px; height: 42px; display: block; position: relative; overflow: hidden;"><g><g/><g graphViewDrawPane="true"><g shape-node="" transform="translate(0.5,0.5)" style="visibility: visible;"><path cell-id="2" d="M 23.21 2.13 L 23.21 12.14 C 23.21 12.67 22.16 13.1 20.87 13.1 C 19.57 13.1 18.53 12.67 18.53 12.14 L 18.53 2.13 C 18.53 1.6 19.57 1.17 20.87 1.17 C 22.16 1.17 23.21 1.6 23.21 2.13 Z" fill="#ffffff" stroke="#000000" stroke-width="1.3" stroke-miterlimit="10" pointer-events="all"/><rect cell-id="2" x="15.02" y="38.17" width="11.7" height="2" fill="#ffffff" stroke="#000000" stroke-width="1.3" pointer-events="all"/><rect cell-id="2" x="20.48" y="13.14" width="0.78" height="23.02" fill="#ffffff" stroke="#000000" stroke-width="1.3" pointer-events="all"/><path cell-id="2" d="M 18.53 2.13 L 23.21 2.13 M 18.53 12.14 L 23.21 12.14" fill="none" stroke="white" stroke-width="9.3" stroke-miterlimit="10" pointer-events="stroke" visibility="hidden"/><path cell-id="2" d="M 18.53 2.13 L 23.21 2.13 M 18.53 12.14 L 23.21 12.14" fill="none" stroke="#000000" stroke-width="1.3" stroke-miterlimit="10" pointer-events="all"/><ellipse cell-id="2" cx="22.82" cy="36.17" rx="1.9500000000000002" ry="0.4004106776180698" fill="#ffffff" stroke="#000000" stroke-width="1.3" pointer-events="all"/><ellipse cell-id="2" cx="18.91" cy="36.17" rx="1.9500000000000002" ry="0.4004106776180698" fill="#ffffff" stroke="#000000" stroke-width="1.3" pointer-events="all"/><ellipse cell-id="2" cx="15.02" cy="39.17" rx="0.9750000000000001" ry="1.0010266940451744" fill="#ffffff" stroke="#000000" stroke-width="1.3" pointer-events="all"/><ellipse cell-id="2" cx="26.71" cy="39.17" rx="0.9750000000000001" ry="1.0010266940451744" fill="#ffffff" stroke="#000000" stroke-width="1.3" pointer-events="all"/></g></g><g/><g/></g></svg>