<?xml version="1.0" encoding="UTF-8"?>
<svg xmlns="http://www.w3.org/2000/svg" style="left: 1px; top: 1px; width: 42px; height: 42px; display: block; position: relative; overflow: hidden;"><g><g/><g graphViewDrawPane="true"><g shape-node="" transform="translate(0.5,0.5)" style="visibility: visible;"><rect cell-id="2" x="19.24" y="1.11" width="3.7" height="39.22" fill="#ffffff" stroke="#000000" stroke-width="1.3" pointer-events="all"/><path cell-id="2" d="M 28.49 9.62 L 31.63 9.62 M 31.63 5.92 L 31.63 13.32 M 33.12 5.92 L 33.12 13.32 M 13.69 31.82 L 10.54 31.82 M 10.54 28.12 L 10.54 35.52 M 8.88 28.12 L 8.88 35.52 M 28.49 5.92 L 28.49 35.52 C 28.49 37.09 25.18 38.37 21.09 38.37 C 17 38.37 13.69 37.09 13.69 35.52 L 13.69 5.92 C 13.69 4.35 17 3.07 21.09 3.07 C 25.18 3.07 28.49 4.35 28.49 5.92 Z" fill="#ffffff" stroke="#000000" stroke-width="1.3" stroke-miterlimit="10" pointer-events="all"/></g></g><g/><g/></g></svg>