<?xml version="1.0" encoding="UTF-8"?>
<svg xmlns="http://www.w3.org/2000/svg" style="left: 1px; top: 1px; width: 42px; height: 42px; display: block; position: relative; overflow: hidden;"><g><g/><g graphViewDrawPane="true"><g shape-node="" transform="translate(0.5,0.5)" style="visibility: visible;"><ellipse cell-id="2" cx="20.67" cy="20.67" rx="19.5" ry="19.5" fill="#ffffff" stroke="#000000" stroke-width="1.3" pointer-events="all"/><path cell-id="2" d="M 12.87 2.93 L 39 14.04 M 12.87 38.41 L 39 27.3 M 17.66 15.42 C 19.76 17.88 21.06 20.21 20.57 20.63 C 20.34 20.83 19.71 20.56 18.83 19.87 C 17.95 19.18 16.89 18.13 15.88 16.95 C 13.78 14.49 12.48 12.16 12.97 11.74 C 13.2 11.54 13.83 11.81 14.71 12.5 C 15.59 13.19 16.65 14.24 17.66 15.42 Z M 15.87 24.46 C 16.87 23.28 17.93 22.22 18.8 21.52 C 19.68 20.82 20.3 20.54 20.54 20.74 C 20.78 20.94 20.61 21.6 20.07 22.59 C 19.53 23.57 18.67 24.79 17.67 25.97 C 16.67 27.16 15.61 28.22 14.74 28.92 C 13.86 29.62 13.24 29.9 13 29.69 C 12.76 29.5 12.93 28.83 13.47 27.85 C 14.01 26.87 14.87 25.65 15.87 24.46 Z" fill="none" stroke="white" stroke-width="9.3" stroke-miterlimit="10" pointer-events="stroke" visibility="hidden"/><path cell-id="2" d="M 12.87 2.93 L 39 14.04 M 12.87 38.41 L 39 27.3 M 17.66 15.42 C 19.76 17.88 21.06 20.21 20.57 20.63 C 20.34 20.83 19.71 20.56 18.83 19.87 C 17.95 19.18 16.89 18.13 15.88 16.95 C 13.78 14.49 12.48 12.16 12.97 11.74 C 13.2 11.54 13.83 11.81 14.71 12.5 C 15.59 13.19 16.65 14.24 17.66 15.42 Z M 15.87 24.46 C 16.87 23.28 17.93 22.22 18.8 21.52 C 19.68 20.82 20.3 20.54 20.54 20.74 C 20.78 20.94 20.61 21.6 20.07 22.59 C 19.53 23.57 18.67 24.79 17.67 25.97 C 16.67 27.16 15.61 28.22 14.74 28.92 C 13.86 29.62 13.24 29.9 13 29.69 C 12.76 29.5 12.93 28.83 13.47 27.85 C 14.01 26.87 14.87 25.65 15.87 24.46 Z" fill="none" stroke="#000000" stroke-width="1.3" stroke-miterlimit="10" pointer-events="all"/><ellipse cell-id="2" cx="26.52" cy="20.67" rx="5.8500000000000005" ry="1.17" fill="none" stroke="white" stroke-width="9.3" pointer-events="stroke" visibility="hidden"/><ellipse cell-id="2" cx="26.52" cy="20.67" rx="5.8500000000000005" ry="1.17" fill="none" stroke="#000000" stroke-width="1.3" pointer-events="all"/></g></g><g/><g/></g></svg>