<?xml version="1.0" encoding="UTF-8"?>
<svg xmlns="http://www.w3.org/2000/svg" style="left: 1px; top: 1px; width: 42px; height: 42px; display: block; position: relative; overflow: hidden;"><g><g/><g graphViewDrawPane="true"><g shape-node="" transform="translate(0.5,0.5)" style="visibility: visible;"><path cell-id="2" d="M 15.4 4.4 C 15.4 2.58 17.86 1.1 20.9 1.1 C 23.94 1.1 26.4 2.58 26.4 4.4 L 26.4 37.4 C 26.4 39.22 23.94 40.7 20.9 40.7 C 17.86 40.7 15.4 39.22 15.4 37.4 Z" fill="#ffffff" stroke="#000000" stroke-width="1.3" stroke-miterlimit="10" pointer-events="all"/><path cell-id="2" d="M 15.4 9.02 L 26.4 9.02 M 15.4 19.58 L 26.4 19.58 M 15.4 9.02 L 26.4 19.58 M 15.4 19.58 L 26.4 9.02 M 15.4 22.22 L 26.4 22.22 M 15.4 32.78 L 26.4 32.78 M 15.4 22.22 L 26.4 32.78 M 15.4 32.78 L 26.4 22.22" fill="none" stroke="white" stroke-width="9.3" stroke-miterlimit="10" pointer-events="stroke" visibility="hidden"/><path cell-id="2" d="M 15.4 9.02 L 26.4 9.02 M 15.4 19.58 L 26.4 19.58 M 15.4 9.02 L 26.4 19.58 M 15.4 19.58 L 26.4 9.02 M 15.4 22.22 L 26.4 22.22 M 15.4 32.78 L 26.4 32.78 M 15.4 22.22 L 26.4 32.78 M 15.4 32.78 L 26.4 22.22" fill="none" stroke="#000000" stroke-width="1.3" stroke-miterlimit="10" pointer-events="all"/></g></g><g/><g/></g></svg>