<?xml version="1.0" encoding="UTF-8"?>
<svg xmlns="http://www.w3.org/2000/svg" style="left: 1px; top: 1px; width: 42px; height: 42px; display: block; position: relative; overflow: hidden;"><g><g/><g graphViewDrawPane="true"><g shape-node="" transform="translate(0.5,0.5)" style="visibility: visible;"><rect cell-id="2" x="1.12" y="15.12" width="39.2" height="11.2" fill="#ffffff" stroke="#000000" stroke-width="1.3" pointer-events="all"/><path cell-id="2" d="M 6.72 22.96 L 34.72 18.48 C 35.96 18.48 36.96 19.48 36.96 20.72 C 36.96 21.96 35.96 22.96 34.72 22.96 L 6.72 18.48 C 5.48 18.48 4.48 19.48 4.48 20.72 C 4.48 21.96 5.48 22.96 6.72 22.96 Z" fill="none" stroke="white" stroke-width="9.3" stroke-miterlimit="10" pointer-events="stroke" visibility="hidden"/><path cell-id="2" d="M 6.72 22.96 L 34.72 18.48 C 35.96 18.48 36.96 19.48 36.96 20.72 C 36.96 21.96 35.96 22.96 34.72 22.96 L 6.72 18.48 C 5.48 18.48 4.48 19.48 4.48 20.72 C 4.48 21.96 5.48 22.96 6.72 22.96 Z" fill="none" stroke="#000000" stroke-width="1.3" stroke-miterlimit="10" pointer-events="all"/></g></g><g/><g/></g></svg>