<?xml version="1.0" encoding="UTF-8"?>
<svg xmlns="http://www.w3.org/2000/svg" style="left: 1px; top: 1px; width: 42px; height: 42px; display: block; position: relative; overflow: hidden;"><g><g/><g graphViewDrawPane="true"><g shape-node="" transform="translate(0.5,0.5)" style="visibility: visible;"><path cell-id="2" d="M 8.97 12.87 L 32.37 12.87 L 35.69 20.67 L 32.37 28.47 L 8.97 28.47 L 5.66 20.67 Z" fill="#ffffff" stroke="#000000" stroke-width="1.3" stroke-miterlimit="10" pointer-events="all"/><path cell-id="2" d="M 1.17 16.77 L 1.17 24.57 M 2.34 16.77 L 2.34 24.57 M 2.34 20.67 L 5.66 20.67 M 40.17 16.77 L 40.17 24.57 M 39 16.77 L 39 24.57 M 39 20.67 L 35.69 20.67 M 8.97 12.87 L 8.97 28.47 M 12.87 12.87 L 12.87 28.47 M 16.77 12.87 L 16.77 28.47 M 20.67 12.87 L 20.67 28.47 M 24.57 12.87 L 24.57 28.47 M 28.47 12.87 L 28.47 28.47 M 32.37 12.87 L 32.37 28.47" fill="none" stroke="white" stroke-width="9.3" stroke-miterlimit="10" pointer-events="stroke" visibility="hidden"/><path cell-id="2" d="M 1.17 16.77 L 1.17 24.57 M 2.34 16.77 L 2.34 24.57 M 2.34 20.67 L 5.66 20.67 M 40.17 16.77 L 40.17 24.57 M 39 16.77 L 39 24.57 M 39 20.67 L 35.69 20.67 M 8.97 12.87 L 8.97 28.47 M 12.87 12.87 L 12.87 28.47 M 16.77 12.87 L 16.77 28.47 M 20.67 12.87 L 20.67 28.47 M 24.57 12.87 L 24.57 28.47 M 28.47 12.87 L 28.47 28.47 M 32.37 12.87 L 32.37 28.47" fill="none" stroke="#000000" stroke-width="1.3" stroke-miterlimit="10" pointer-events="all"/></g></g><g/><g/></g></svg>