<?xml version="1.0" encoding="UTF-8"?>
<svg xmlns="http://www.w3.org/2000/svg" style="left: 1px; top: 1px; width: 42px; height: 42px; display: block; position: relative; overflow: hidden;"><g><g/><g graphViewDrawPane="true"><g shape-node="" transform="translate(0.5,0.5)" style="visibility: visible;"><path cell-id="2" d="M 36.27 1.17 L 36.27 24.57 C 36.27 33.19 29.29 40.17 20.67 40.17 C 12.05 40.17 5.07 33.19 5.07 24.57 L 5.07 1.17 Z" fill="#ffffff" stroke="#000000" stroke-width="1.3" stroke-miterlimit="10" pointer-events="all"/><path cell-id="2" d="M 21.88 24.82 C 21.87 28.05 21.34 30.66 20.69 30.67 C 20.38 30.67 20.09 30.05 19.87 28.95 C 19.65 27.86 19.53 26.37 19.54 24.82 C 19.54 23.26 19.67 21.77 19.89 20.67 C 20.11 19.58 20.41 18.96 20.72 18.97 C 21.37 18.97 21.88 21.59 21.88 24.82 Z M 25.97 15.97 C 23.51 18.06 21.18 19.36 20.76 18.87 C 20.34 18.37 22 16.28 24.46 14.19 C 26.92 12.1 29.25 10.8 29.67 11.29 C 30.09 11.78 28.43 13.87 25.97 15.97 Z M 16.93 14.16 C 19.4 16.25 21.06 18.34 20.65 18.83 C 20.45 19.07 19.79 18.9 18.81 18.36 C 17.83 17.82 16.61 16.95 15.42 15.95 C 14.24 14.95 13.18 13.89 12.49 13.02 C 11.79 12.14 11.51 11.52 11.71 11.28 C 12.13 10.79 14.47 12.08 16.93 14.16 Z" fill="none" stroke="white" stroke-width="9.3" stroke-miterlimit="10" pointer-events="stroke" visibility="hidden"/><path cell-id="2" d="M 21.88 24.82 C 21.87 28.05 21.34 30.66 20.69 30.67 C 20.38 30.67 20.09 30.05 19.87 28.95 C 19.65 27.86 19.53 26.37 19.54 24.82 C 19.54 23.26 19.67 21.77 19.89 20.67 C 20.11 19.58 20.41 18.96 20.72 18.97 C 21.37 18.97 21.88 21.59 21.88 24.82 Z M 25.97 15.97 C 23.51 18.06 21.18 19.36 20.76 18.87 C 20.34 18.37 22 16.28 24.46 14.19 C 26.92 12.1 29.25 10.8 29.67 11.29 C 30.09 11.78 28.43 13.87 25.97 15.97 Z M 16.93 14.16 C 19.4 16.25 21.06 18.34 20.65 18.83 C 20.45 19.07 19.79 18.9 18.81 18.36 C 17.83 17.82 16.61 16.95 15.42 15.95 C 14.24 14.95 13.18 13.89 12.49 13.02 C 11.79 12.14 11.51 11.52 11.71 11.28 C 12.13 10.79 14.47 12.08 16.93 14.16 Z" fill="none" stroke="#000000" stroke-width="1.3" stroke-miterlimit="10" pointer-events="all"/></g></g><g/><g/></g></svg>