<?xml version="1.0" encoding="UTF-8"?>
<svg xmlns="http://www.w3.org/2000/svg" style="left: 1px; top: 1px; width: 42px; height: 42px; display: block; position: relative; overflow: hidden;"><g><g/><g graphViewDrawPane="true"><g shape-node="" transform="translate(0.5,0.5)" style="visibility: visible;"><path cell-id="2" d="M 1.3 20.8 C 1.3 17.93 2.76 15.6 4.55 15.6 C 6.34 15.6 7.8 17.93 7.8 20.8 C 7.8 23.67 9.26 26 11.05 26 C 12.84 26 14.3 23.67 14.3 20.8 C 14.3 17.93 15.76 15.6 17.55 15.6 C 19.34 15.6 20.8 17.93 20.8 20.8 C 20.8 23.67 22.26 26 24.05 26 C 25.84 26 27.3 23.67 27.3 20.8 C 27.3 17.93 28.76 15.6 30.55 15.6 C 32.34 15.6 33.8 17.93 33.8 20.8 C 33.8 23.67 35.26 26 37.05 26 C 38.84 26 40.3 23.67 40.3 20.8" fill="none" stroke="white" stroke-width="9.3" stroke-miterlimit="10" pointer-events="stroke" visibility="hidden"/><path cell-id="2" d="M 1.3 20.8 C 1.3 17.93 2.76 15.6 4.55 15.6 C 6.34 15.6 7.8 17.93 7.8 20.8 C 7.8 23.67 9.26 26 11.05 26 C 12.84 26 14.3 23.67 14.3 20.8 C 14.3 17.93 15.76 15.6 17.55 15.6 C 19.34 15.6 20.8 17.93 20.8 20.8 C 20.8 23.67 22.26 26 24.05 26 C 25.84 26 27.3 23.67 27.3 20.8 C 27.3 17.93 28.76 15.6 30.55 15.6 C 32.34 15.6 33.8 17.93 33.8 20.8 C 33.8 23.67 35.26 26 37.05 26 C 38.84 26 40.3 23.67 40.3 20.8" fill="none" stroke="#000000" stroke-width="1.3" stroke-miterlimit="10" pointer-events="all"/></g></g><g/><g/></g></svg>