<?xml version="1.0" encoding="UTF-8"?>
<svg xmlns="http://www.w3.org/2000/svg" style="left: 1px; top: 1px; width: 42px; height: 42px; display: block; position: relative; overflow: hidden;"><g><g/><g graphViewDrawPane="true"><g shape-node="" transform="translate(0.5,0.5)" style="visibility: visible;"><rect cell-id="2" x="5.07" y="1.17" width="31.2" height="39" fill="#ffffff" stroke="#000000" stroke-width="1.3" pointer-events="all"/><path cell-id="2" d="M 7.02 32.37 L 34.32 32.37 M 10.92 28.47 L 30.42 28.47 M 10.92 26.52 L 30.42 26.52 M 10.92 24.57 L 30.42 24.57 M 10.92 22.62 L 30.42 22.62 M 15.72 22.78 L 15.72 24.73 M 15.72 26.68 L 15.72 28.63 M 15.72 30.58 L 15.72 32.53 M 20.59 24.73 L 20.59 26.68 M 20.59 28.63 L 20.59 30.58 M 25.47 22.78 L 25.47 24.73 M 25.47 26.68 L 25.47 28.63 M 25.47 30.58 L 25.47 32.53 M 10.92 18.72 L 30.42 18.72 M 10.92 20.67 L 30.42 20.67 M 20.67 20.67 L 20.67 22.62 M 20.67 16.77 L 20.67 18.72 M 15.79 18.72 L 15.79 20.67 M 25.55 18.72 L 25.55 20.67" fill="none" stroke="white" stroke-width="9.3" stroke-miterlimit="10" pointer-events="stroke" visibility="hidden"/><path cell-id="2" d="M 7.02 32.37 L 34.32 32.37 M 10.92 28.47 L 30.42 28.47 M 10.92 26.52 L 30.42 26.52 M 10.92 24.57 L 30.42 24.57 M 10.92 22.62 L 30.42 22.62 M 15.72 22.78 L 15.72 24.73 M 15.72 26.68 L 15.72 28.63 M 15.72 30.58 L 15.72 32.53 M 20.59 24.73 L 20.59 26.68 M 20.59 28.63 L 20.59 30.58 M 25.47 22.78 L 25.47 24.73 M 25.47 26.68 L 25.47 28.63 M 25.47 30.58 L 25.47 32.53 M 10.92 18.72 L 30.42 18.72 M 10.92 20.67 L 30.42 20.67 M 20.67 20.67 L 20.67 22.62 M 20.67 16.77 L 20.67 18.72 M 15.79 18.72 L 15.79 20.67 M 25.55 18.72 L 25.55 20.67" fill="none" stroke="#000000" stroke-width="1.3" stroke-miterlimit="10" pointer-events="all"/><rect cell-id="2" x="7.02" y="7.02" width="27.3" height="23.4" fill="none" stroke="white" stroke-width="9.3" pointer-events="stroke" visibility="hidden"/><rect cell-id="2" x="7.02" y="7.02" width="27.3" height="23.4" fill="none" stroke="#000000" stroke-width="1.3" pointer-events="all"/><rect cell-id="2" x="10.92" y="16.77" width="19.5" height="15.6" fill="none" stroke="white" stroke-width="9.3" pointer-events="stroke" visibility="hidden"/><rect cell-id="2" x="10.92" y="16.77" width="19.5" height="15.6" fill="none" stroke="#000000" stroke-width="1.3" pointer-events="all"/></g></g><g/><g/></g></svg>