<?xml version="1.0" encoding="UTF-8"?>
<svg xmlns="http://www.w3.org/2000/svg" style="left: 1px; top: 1px; width: 42px; height: 42px; display: block; position: relative; overflow: hidden;"><g><g/><g graphViewDrawPane="true"><g shape-node="" transform="translate(0.5,0.5)" style="visibility: visible;"><rect cell-id="2" x="6.31" y="21" width="29.46" height="6.3" fill="#ffffff" stroke="#000000" stroke-width="1.3" pointer-events="all"/><path cell-id="2" d="M 15.99 18.9 L 26.09 16.38 C 26.79 16.38 27.36 16.94 27.36 17.64 C 27.36 18.34 26.79 18.9 26.09 18.9 L 15.99 16.38 C 15.29 16.38 14.73 16.94 14.73 17.64 C 14.73 18.34 15.29 18.9 15.99 18.9 Z" fill="#ffffff" stroke="#000000" stroke-width="1.3" stroke-miterlimit="10" pointer-events="all"/><path cell-id="2" d="M 10.52 27.3 L 10.52 21 L 12.62 14.7 M 31.57 27.3 L 31.57 21 L 29.46 14.7 M 1.26 24.15 L 40.32 24.15" fill="none" stroke="white" stroke-width="9.3" stroke-miterlimit="10" pointer-events="stroke" visibility="hidden"/><path cell-id="2" d="M 10.52 27.3 L 10.52 21 L 12.62 14.7 M 31.57 27.3 L 31.57 21 L 29.46 14.7 M 1.26 24.15 L 40.32 24.15" fill="none" stroke="#000000" stroke-width="1.3" stroke-miterlimit="10" pointer-events="all"/></g></g><g/><g/></g></svg>