<?xml version="1.0" encoding="UTF-8"?>
<svg xmlns="http://www.w3.org/2000/svg" style="left: 1px; top: 1px; width: 42px; height: 42px; display: block; position: relative; overflow: hidden;"><g><g/><g graphViewDrawPane="true"><g shape-node="" transform="translate(0.5,0.5)" style="visibility: visible;"><rect cell-id="2" x="5.07" y="1.17" width="31.2" height="39" fill="#ffffff" stroke="#000000" stroke-width="1.3" pointer-events="all"/><path cell-id="2" d="M 7.02 24.57 L 34.32 24.57 M 34.32 32.37 L 12.87 32.37 M 10.92 24.57 L 10.92 12.87 L 20.67 12.87 L 20.67 14.82 L 30.42 14.82 L 30.42 24.57 M 10.92 22.62 L 30.42 22.62 M 10.92 20.67 L 30.42 20.67 M 10.92 18.72 L 30.42 18.72 M 10.92 16.77 L 30.42 16.77 M 10.92 14.82 L 20.67 14.82 M 15.79 14.82 L 15.79 16.77 M 15.79 18.72 L 15.79 20.67 M 15.79 22.62 L 15.79 24.57 M 20.67 16.77 L 20.67 18.72 M 20.67 20.67 L 20.67 22.62 M 25.55 14.82 L 25.55 16.77 M 25.55 18.72 L 25.55 20.67 M 25.55 22.62 L 25.55 24.57" fill="none" stroke="white" stroke-width="9.3" stroke-miterlimit="10" pointer-events="stroke" visibility="hidden"/><path cell-id="2" d="M 7.02 24.57 L 34.32 24.57 M 34.32 32.37 L 12.87 32.37 M 10.92 24.57 L 10.92 12.87 L 20.67 12.87 L 20.67 14.82 L 30.42 14.82 L 30.42 24.57 M 10.92 22.62 L 30.42 22.62 M 10.92 20.67 L 30.42 20.67 M 10.92 18.72 L 30.42 18.72 M 10.92 16.77 L 30.42 16.77 M 10.92 14.82 L 20.67 14.82 M 15.79 14.82 L 15.79 16.77 M 15.79 18.72 L 15.79 20.67 M 15.79 22.62 L 15.79 24.57 M 20.67 16.77 L 20.67 18.72 M 20.67 20.67 L 20.67 22.62 M 25.55 14.82 L 25.55 16.77 M 25.55 18.72 L 25.55 20.67 M 25.55 22.62 L 25.55 24.57" fill="none" stroke="#000000" stroke-width="1.3" stroke-miterlimit="10" pointer-events="all"/><path cell-id="2" d="M 12.87 31.2 L 12.87 33.54 L 8.58 32.37 Z" fill="#000000" stroke="#000000" stroke-width="1.3" stroke-miterlimit="10" pointer-events="all"/></g></g><g/><g/></g></svg>