<?xml version="1.0" encoding="UTF-8"?>
<svg xmlns="http://www.w3.org/2000/svg" style="left: 1px; top: 1px; width: 42px; height: 42px; display: block; position: relative; overflow: hidden;"><g><g/><g graphViewDrawPane="true"><g shape-node="" transform="translate(0.5,0.5)" style="visibility: visible;"><path cell-id="2" d="M 15.4 4.4 C 15.4 2.58 17.86 1.1 20.9 1.1 C 23.94 1.1 26.4 2.58 26.4 4.4 L 26.4 37.4 C 26.4 39.22 23.94 40.7 20.9 40.7 C 17.86 40.7 15.4 39.22 15.4 37.4 Z" fill="#ffffff" stroke="#000000" stroke-width="1.3" stroke-miterlimit="10" pointer-events="all"/><path cell-id="2" d="M 15.4 10.34 L 26.4 10.34 M 15.4 18.26 L 26.4 18.26" fill="none" stroke="white" stroke-width="9.3" stroke-miterlimit="10" pointer-events="stroke" visibility="hidden"/><path cell-id="2" d="M 15.4 10.34 L 26.4 10.34 M 15.4 18.26 L 26.4 18.26" fill="none" stroke="#000000" stroke-width="1.3" stroke-miterlimit="10" stroke-dasharray="0.66 0.66" pointer-events="all"/><path cell-id="2" d="M 15.4 10.34 L 26.4 18.26 M 15.4 18.26 L 26.4 10.34" fill="none" stroke="white" stroke-width="9.3" stroke-miterlimit="10" pointer-events="stroke" visibility="hidden"/><path cell-id="2" d="M 15.4 10.34 L 26.4 18.26 M 15.4 18.26 L 26.4 10.34" fill="none" stroke="#000000" stroke-width="1.3" stroke-miterlimit="10" pointer-events="all"/><path cell-id="2" d="M 15.4 23.54 L 26.4 23.54 M 15.4 31.46 L 26.4 31.46" fill="none" stroke="white" stroke-width="9.3" stroke-miterlimit="10" pointer-events="stroke" visibility="hidden"/><path cell-id="2" d="M 15.4 23.54 L 26.4 23.54 M 15.4 31.46 L 26.4 31.46" fill="none" stroke="#000000" stroke-width="1.3" stroke-miterlimit="10" stroke-dasharray="0.66 0.66" pointer-events="all"/><path cell-id="2" d="M 15.4 23.54 L 26.4 31.46 M 15.4 31.46 L 26.4 23.54 M 15.4 20.9 L 20.9 20.9 M 19.84 21.96 L 20.9 20.9 L 21.96 21.96 M 20.9 20.9 L 20.9 21.96" fill="none" stroke="white" stroke-width="9.3" stroke-miterlimit="10" pointer-events="stroke" visibility="hidden"/><path cell-id="2" d="M 15.4 23.54 L 26.4 31.46 M 15.4 31.46 L 26.4 23.54 M 15.4 20.9 L 20.9 20.9 M 19.84 21.96 L 20.9 20.9 L 21.96 21.96 M 20.9 20.9 L 20.9 21.96" fill="none" stroke="#000000" stroke-width="1.3" stroke-miterlimit="10" pointer-events="all"/></g></g><g/><g/></g></svg>