<?xml version="1.0" encoding="UTF-8"?>
<svg xmlns="http://www.w3.org/2000/svg" style="left: 1px; top: 1px; width: 42px; height: 42px; display: block; position: relative; overflow: hidden;"><g><g/><g graphViewDrawPane="true"><g shape-node="" transform="translate(0.5,0.5)" style="visibility: visible;"><path cell-id="2" d="M 4.29 40.59 L 4.29 33.99 L 12.54 0.99 L 29.04 0.99 L 37.29 33.99 L 37.29 40.59 Z" fill="#ffffff" stroke="#000000" stroke-width="1.3" stroke-miterlimit="10" pointer-events="all"/><path cell-id="2" d="M 37.29 33.99 L 4.29 33.99 M 4.29 37.29 L 37.29 37.29 M 20.79 35.64 L 20.79 38.94 M 16.66 35.64 L 16.66 38.94 M 12.54 35.64 L 12.54 38.94 M 8.42 35.64 L 8.42 38.94 M 24.92 35.64 L 24.92 38.94 M 29.04 35.64 L 29.04 38.94 M 33.16 35.64 L 33.16 38.94 M 18.15 21.62 L 16.17 27.72 M 23.43 21.62 L 25.41 27.72" fill="none" stroke="white" stroke-width="9.3" stroke-miterlimit="10" pointer-events="stroke" visibility="hidden"/><path cell-id="2" d="M 37.29 33.99 L 4.29 33.99 M 4.29 37.29 L 37.29 37.29 M 20.79 35.64 L 20.79 38.94 M 16.66 35.64 L 16.66 38.94 M 12.54 35.64 L 12.54 38.94 M 8.42 35.64 L 8.42 38.94 M 24.92 35.64 L 24.92 38.94 M 29.04 35.64 L 29.04 38.94 M 33.16 35.64 L 33.16 38.94 M 18.15 21.62 L 16.17 27.72 M 23.43 21.62 L 25.41 27.72" fill="none" stroke="#000000" stroke-width="1.3" stroke-miterlimit="10" pointer-events="all"/><ellipse cell-id="2" cx="20.79" cy="25.74" rx="4.95" ry="4.95" fill="none" stroke="white" stroke-width="9.3" pointer-events="stroke" visibility="hidden"/><ellipse cell-id="2" cx="20.79" cy="25.74" rx="4.95" ry="4.95" fill="none" stroke="#000000" stroke-width="1.3" pointer-events="all"/></g></g><g/><g/></g></svg>