<?xml version="1.0" encoding="UTF-8"?>
<svg xmlns="http://www.w3.org/2000/svg" style="left: 1px; top: 1px; width: 42px; height: 42px; display: block; position: relative; overflow: hidden;"><g><g/><g graphViewDrawPane="true"><g shape-node="" transform="translate(0.5,0.5)" style="visibility: visible;"><path cell-id="2" d="M 2.34 18.72 L 8.97 18.72 C 8.97 16.57 10.72 14.82 12.87 14.82 L 28.47 14.82 C 30.62 14.82 32.37 16.57 32.37 18.72 L 39 18.72 L 39 22.62 L 32.37 22.62 C 32.37 24.77 30.62 26.52 28.47 26.52 L 12.87 26.52 C 10.72 26.52 8.97 24.77 8.97 22.62 L 2.34 22.62 Z" fill="#ffffff" stroke="#000000" stroke-width="1.3" stroke-miterlimit="10" pointer-events="all"/><path cell-id="2" d="M 1.17 16.77 L 1.17 24.57 M 2.34 16.77 L 2.34 24.57 M 40.17 16.77 L 40.17 24.57 M 39 16.77 L 39 24.57" fill="none" stroke="white" stroke-width="9.3" stroke-miterlimit="10" pointer-events="stroke" visibility="hidden"/><path cell-id="2" d="M 1.17 16.77 L 1.17 24.57 M 2.34 16.77 L 2.34 24.57 M 40.17 16.77 L 40.17 24.57 M 39 16.77 L 39 24.57" fill="none" stroke="#000000" stroke-width="1.3" stroke-miterlimit="10" pointer-events="all"/></g></g><g/><g/></g></svg>