<?xml version="1.0" encoding="UTF-8"?>
<svg xmlns="http://www.w3.org/2000/svg" style="left: 1px; top: 1px; width: 42px; height: 42px; display: block; position: relative; overflow: hidden;"><g><g/><g graphViewDrawPane="true"><g shape-node="" transform="translate(0.5,0.5)" style="visibility: visible;"><path cell-id="2" d="M 38.35 9.61 C 39.4 9.61 40.25 11.84 40.25 14.59 C 40.25 17.34 39.4 19.57 38.35 19.57 L 6.2 19.57 C 5.15 19.57 4.3 17.34 4.3 14.59 C 4.3 11.84 5.15 9.61 6.2 9.61 Z" fill="#ffffff" stroke="#000000" stroke-width="1.3" stroke-miterlimit="10" pointer-events="all"/><path cell-id="2" d="M 38.35 24.55 C 39.4 24.55 40.25 26.78 40.25 29.52 C 40.25 32.27 39.4 34.5 38.35 34.5 L 6.2 34.5 C 5.15 34.5 4.3 32.27 4.3 29.52 C 4.3 26.78 5.15 24.55 6.2 24.55 Z" fill="#ffffff" stroke="#000000" stroke-width="1.3" stroke-miterlimit="10" pointer-events="all"/><path cell-id="2" d="M 2.49 26.29 L 4.71 26.29 M 2.49 32.76 L 4.71 32.76 M 2.49 23.8 L 2.49 28.78 M 1.5 23.8 L 1.5 28.78 M 2.49 30.27 L 2.49 35.25 M 1.5 30.27 L 1.5 35.25 M 35.88 9.61 L 35.88 7.5 M 33.4 7.5 L 38.35 7.5 M 33.4 6.5 L 38.35 6.5 M 8.67 9.61 L 8.67 7.5 M 6.2 7.5 L 11.14 7.5 M 6.2 6.5 L 11.14 6.5" fill="none" stroke="white" stroke-width="9.3" stroke-miterlimit="10" pointer-events="stroke" visibility="hidden"/><path cell-id="2" d="M 2.49 26.29 L 4.71 26.29 M 2.49 32.76 L 4.71 32.76 M 2.49 23.8 L 2.49 28.78 M 1.5 23.8 L 1.5 28.78 M 2.49 30.27 L 2.49 35.25 M 1.5 30.27 L 1.5 35.25 M 35.88 9.61 L 35.88 7.5 M 33.4 7.5 L 38.35 7.5 M 33.4 6.5 L 38.35 6.5 M 8.67 9.61 L 8.67 7.5 M 6.2 7.5 L 11.14 7.5 M 6.2 6.5 L 11.14 6.5" fill="none" stroke="#000000" stroke-width="1.3" stroke-miterlimit="10" pointer-events="all"/><rect cell-id="2" x="9.91" y="19.57" width="2.47" height="4.98" fill="#ffffff" stroke="#000000" stroke-width="1.3" pointer-events="all"/><rect cell-id="2" x="30.93" y="19.57" width="2.47" height="4.98" fill="#ffffff" stroke="#000000" stroke-width="1.3" pointer-events="all"/></g></g><g/><g/></g></svg>