<?xml version="1.0" encoding="UTF-8"?>
<svg xmlns="http://www.w3.org/2000/svg" style="left: 1px; top: 1px; width: 42px; height: 42px; display: block; position: relative; overflow: hidden;"><g><g/><g graphViewDrawPane="true"><g shape-node="" transform="translate(0.5,0.5)" style="visibility: visible;"><path cell-id="2" d="M 12.1 1.1 L 29.7 1.1 L 29.7 31.9 L 20.9 40.7 L 12.1 31.9 Z" fill="#ffffff" stroke="#000000" stroke-width="1.3" stroke-miterlimit="10" pointer-events="all"/><ellipse cell-id="2" cx="20.9" cy="6.6" rx="2.2" ry="2.2" fill="none" stroke="white" stroke-width="9.3" pointer-events="stroke" visibility="hidden"/><ellipse cell-id="2" cx="20.9" cy="6.6" rx="2.2" ry="2.2" fill="none" stroke="#000000" stroke-width="1.3" pointer-events="all"/><ellipse cell-id="2" cx="20.9" cy="28.6" rx="2.2" ry="2.2" fill="none" stroke="white" stroke-width="9.3" pointer-events="stroke" visibility="hidden"/><ellipse cell-id="2" cx="20.9" cy="28.6" rx="2.2" ry="2.2" fill="none" stroke="#000000" stroke-width="1.3" pointer-events="all"/><path cell-id="2" d="M 18.7 6.6 L 18.7 28.6 M 23.1 6.6 L 23.1 28.6 M 23.1 9.9 C 25.53 9.9 27.5 11.87 27.5 14.3 M 23.1 19.8 C 25.53 19.8 27.5 21.77 27.5 24.2 M 18.7 14.3 C 16.27 14.3 14.3 12.33 14.3 9.9 M 18.7 24.2 C 16.27 24.2 14.3 22.23 14.3 19.8" fill="none" stroke="white" stroke-width="9.3" stroke-miterlimit="10" pointer-events="stroke" visibility="hidden"/><path cell-id="2" d="M 18.7 6.6 L 18.7 28.6 M 23.1 6.6 L 23.1 28.6 M 23.1 9.9 C 25.53 9.9 27.5 11.87 27.5 14.3 M 23.1 19.8 C 25.53 19.8 27.5 21.77 27.5 24.2 M 18.7 14.3 C 16.27 14.3 14.3 12.33 14.3 9.9 M 18.7 24.2 C 16.27 24.2 14.3 22.23 14.3 19.8" fill="none" stroke="#000000" stroke-width="1.3" stroke-miterlimit="10" stroke-dasharray="0.44 0.44" pointer-events="all"/></g></g><g/><g/></g></svg>