<?xml version="1.0" encoding="UTF-8"?>
<svg xmlns="http://www.w3.org/2000/svg" style="left: 1px; top: 1px; width: 42px; height: 42px; display: block; position: relative; overflow: hidden;"><g><g/><g graphViewDrawPane="true"><g shape-node="" transform="translate(0.5,0.5)" style="visibility: visible;"><rect cell-id="2" x="1.17" y="1.17" width="39" height="39" fill="#ffffff" stroke="#000000" stroke-width="1.3" pointer-events="all"/><path cell-id="2" d="M 1.17 1.17 L 40.17 40.17 M 8.97 1.17 L 40.17 32.37 M 16.77 1.17 L 40.17 24.57 M 24.57 1.17 L 40.17 16.77 M 32.37 1.17 L 40.17 8.97 M 1.17 8.97 L 32.37 40.17 M 1.17 16.77 L 24.57 40.17 M 1.17 24.57 L 16.77 40.17 M 1.17 32.37 L 8.97 40.17 M 1.17 8.97 L 8.97 1.17 M 1.17 16.77 L 16.77 1.17 M 1.17 24.57 L 24.57 1.17 M 1.17 32.37 L 32.37 1.17 M 1.17 40.17 L 40.17 1.17 M 40.17 8.97 L 8.97 40.17 M 16.77 40.17 L 40.17 16.77 M 40.17 24.57 L 24.57 40.17 M 32.37 40.17 L 40.17 32.37" fill="none" stroke="white" stroke-width="9.3" stroke-miterlimit="10" pointer-events="stroke" visibility="hidden"/><path cell-id="2" d="M 1.17 1.17 L 40.17 40.17 M 8.97 1.17 L 40.17 32.37 M 16.77 1.17 L 40.17 24.57 M 24.57 1.17 L 40.17 16.77 M 32.37 1.17 L 40.17 8.97 M 1.17 8.97 L 32.37 40.17 M 1.17 16.77 L 24.57 40.17 M 1.17 24.57 L 16.77 40.17 M 1.17 32.37 L 8.97 40.17 M 1.17 8.97 L 8.97 1.17 M 1.17 16.77 L 16.77 1.17 M 1.17 24.57 L 24.57 1.17 M 1.17 32.37 L 32.37 1.17 M 1.17 40.17 L 40.17 1.17 M 40.17 8.97 L 8.97 40.17 M 16.77 40.17 L 40.17 16.77 M 40.17 24.57 L 24.57 40.17 M 32.37 40.17 L 40.17 32.37" fill="none" stroke="#000000" stroke-width="1.3" stroke-miterlimit="10" pointer-events="all"/></g></g><g/><g/></g></svg>