<?xml version="1.0" encoding="UTF-8"?>
<svg xmlns="http://www.w3.org/2000/svg" style="left: 1px; top: 1px; width: 42px; height: 42px; display: block; position: relative; overflow: hidden;"><g><g/><g graphViewDrawPane="true"><g shape-node="" transform="translate(0.5,0.5)" style="visibility: visible;"><path cell-id="2" d="M 7.59 0.99 L 33.99 0.99 L 33.99 27.39 L 20.79 40.59 L 7.59 27.39 Z" fill="#ffffff" stroke="#000000" stroke-width="1.3" stroke-miterlimit="10" pointer-events="all"/><path cell-id="2" d="M 17.96 8.73 L 20.3 6.4 L 28.68 14.82 L 26.34 17.14 M 23.09 9.2 L 20.75 11.53 M 25.89 12.01 L 23.55 14.34 M 21.61 7.72 L 19.27 10.05 M 24.45 10.52 L 22.12 12.85 M 27.26 13.33 L 24.92 15.66" fill="none" stroke="white" stroke-width="9.3" stroke-miterlimit="10" pointer-events="stroke" visibility="hidden"/><path cell-id="2" d="M 17.96 8.73 L 20.3 6.4 L 28.68 14.82 L 26.34 17.14 M 23.09 9.2 L 20.75 11.53 M 25.89 12.01 L 23.55 14.34 M 21.61 7.72 L 19.27 10.05 M 24.45 10.52 L 22.12 12.85 M 27.26 13.33 L 24.92 15.66" fill="none" stroke="#000000" stroke-width="1.3" stroke-miterlimit="10" pointer-events="all"/><path cell-id="2" d="M 7.76 1.24 L 33.99 27.23" fill="none" stroke="white" stroke-width="9.3" stroke-miterlimit="10" pointer-events="stroke" visibility="hidden"/><path cell-id="2" d="M 7.76 1.24 L 33.99 27.23" fill="none" stroke="#000000" stroke-width="1.3" stroke-miterlimit="10" stroke-dasharray="0.66 0.66" pointer-events="all"/></g></g><g/><g/></g></svg>