<?xml version="1.0" encoding="UTF-8"?>
<svg xmlns="http://www.w3.org/2000/svg" style="left: 1px; top: 1px; width: 42px; height: 42px; display: block; position: relative; overflow: hidden;"><g><g/><g graphViewDrawPane="true"><g shape-node="" transform="translate(0.5,0.5)" style="visibility: visible;"><rect cell-id="2" x="5.07" y="1.17" width="31.2" height="39" fill="#ffffff" stroke="#000000" stroke-width="1.3" pointer-events="all"/><rect cell-id="2" x="8.97" y="8.97" width="9.75" height="13.65" fill="none" stroke="white" stroke-width="9.3" pointer-events="stroke" visibility="hidden"/><rect cell-id="2" x="8.97" y="8.97" width="9.75" height="13.65" fill="none" stroke="#000000" stroke-width="1.3" pointer-events="all"/><rect cell-id="2" x="22.62" y="8.97" width="9.75" height="13.65" fill="none" stroke="white" stroke-width="9.3" pointer-events="stroke" visibility="hidden"/><rect cell-id="2" x="22.62" y="8.97" width="9.75" height="13.65" fill="none" stroke="#000000" stroke-width="1.3" pointer-events="all"/><path cell-id="2" d="M 34.32 32.37 L 12.87 32.37 M 13.85 8.78 L 10.92 5.07 L 16.77 5.07 Z M 13.85 5.07 L 13.85 8.97 M 27.5 8.78 L 24.57 5.07 L 30.42 5.07 Z M 27.5 5.07 L 27.5 8.97" fill="none" stroke="white" stroke-width="9.3" stroke-miterlimit="10" pointer-events="stroke" visibility="hidden"/><path cell-id="2" d="M 34.32 32.37 L 12.87 32.37 M 13.85 8.78 L 10.92 5.07 L 16.77 5.07 Z M 13.85 5.07 L 13.85 8.97 M 27.5 8.78 L 24.57 5.07 L 30.42 5.07 Z M 27.5 5.07 L 27.5 8.97" fill="none" stroke="#000000" stroke-width="1.3" stroke-miterlimit="10" pointer-events="all"/><path cell-id="2" d="M 12.87 31.2 L 12.87 33.54 L 8.58 32.37 Z" fill="#000000" stroke="#000000" stroke-width="1.3" stroke-miterlimit="10" pointer-events="all"/></g></g><g/><g/></g></svg>