<?xml version="1.0" encoding="UTF-8"?>
<svg xmlns="http://www.w3.org/2000/svg" style="left: 1px; top: 1px; width: 42px; height: 42px; display: block; position: relative; overflow: hidden;"><g><g/><g graphViewDrawPane="true"><g shape-node="" transform="translate(0.5,0.5)" style="visibility: visible;"><rect cell-id="2" x="0.99" y="32.67" width="39.6" height="3.3" fill="#ffffff" stroke="#000000" stroke-width="1.3" pointer-events="all"/><rect cell-id="2" x="27.39" y="6.93" width="3.96" height="2.64" fill="#ffffff" stroke="#000000" stroke-width="1.3" pointer-events="all"/><rect cell-id="2" x="4.29" y="9.57" width="33" height="23.1" fill="#ffffff" stroke="#000000" stroke-width="1.3" pointer-events="all"/><path cell-id="2" d="M 26.4 6.93 L 32.34 6.93 M 26.4 5.94 L 32.34 5.94 M 14.19 35.97 L 17.49 32.67 M 0.99 35.97 L 4.29 32.67 M 4.29 35.97 L 7.59 32.67 M 7.59 35.97 L 10.89 32.67 M 10.89 35.97 L 14.19 32.67 M 17.49 35.97 L 20.79 32.67 M 20.79 35.97 L 24.09 32.67 M 24.09 35.97 L 27.39 32.67 M 27.39 35.97 L 30.69 32.67 M 30.69 35.97 L 33.99 32.67 M 37.29 35.97 L 40.59 32.67 M 33.99 35.97 L 37.29 32.67" fill="none" stroke="white" stroke-width="9.3" stroke-miterlimit="10" pointer-events="stroke" visibility="hidden"/><path cell-id="2" d="M 26.4 6.93 L 32.34 6.93 M 26.4 5.94 L 32.34 5.94 M 14.19 35.97 L 17.49 32.67 M 0.99 35.97 L 4.29 32.67 M 4.29 35.97 L 7.59 32.67 M 7.59 35.97 L 10.89 32.67 M 10.89 35.97 L 14.19 32.67 M 17.49 35.97 L 20.79 32.67 M 20.79 35.97 L 24.09 32.67 M 24.09 35.97 L 27.39 32.67 M 27.39 35.97 L 30.69 32.67 M 30.69 35.97 L 33.99 32.67 M 37.29 35.97 L 40.59 32.67 M 33.99 35.97 L 37.29 32.67" fill="none" stroke="#000000" stroke-width="1.3" stroke-miterlimit="10" pointer-events="all"/></g></g><g/><g/></g></svg>