<?xml version="1.0" encoding="UTF-8"?>
<svg xmlns="http://www.w3.org/2000/svg" style="left: 1px; top: 1px; width: 42px; height: 42px; display: block; position: relative; overflow: hidden;"><g><g/><g graphViewDrawPane="true"><g shape-node="" transform="translate(0.5,0.5)" style="visibility: visible;"><path cell-id="2" d="M 5.07 30.42 L 20.67 10.92 L 36.27 30.42 Z" fill="#ffffff" stroke="none" pointer-events="all"/><path cell-id="2" d="M 1.17 30.42 L 40.17 30.42 M 14.43 18.72 L 20.67 10.92 L 26.91 18.72 M 11.31 22.62 L 5.07 30.42 L 17.55 30.42 M 30.03 22.62 L 36.27 30.42 L 23.79 30.42" fill="none" stroke="white" stroke-width="9.3" stroke-miterlimit="10" pointer-events="stroke" visibility="hidden"/><path cell-id="2" d="M 1.17 30.42 L 40.17 30.42 M 14.43 18.72 L 20.67 10.92 L 26.91 18.72 M 11.31 22.62 L 5.07 30.42 L 17.55 30.42 M 30.03 22.62 L 36.27 30.42 L 23.79 30.42" fill="none" stroke="#000000" stroke-width="1.3" stroke-miterlimit="10" pointer-events="all"/><ellipse cell-id="2" cx="13.65" cy="19.7" rx="0.195" ry="0.195" fill="#ffffff" stroke="#000000" stroke-width="1.3" pointer-events="all"/><ellipse cell-id="2" cx="12.91" cy="20.67" rx="0.195" ry="0.195" fill="#ffffff" stroke="#000000" stroke-width="1.3" pointer-events="all"/><ellipse cell-id="2" cx="12.13" cy="21.64" rx="0.195" ry="0.195" fill="#ffffff" stroke="#000000" stroke-width="1.3" pointer-events="all"/><ellipse cell-id="2" cx="27.69" cy="19.7" rx="0.195" ry="0.195" fill="#ffffff" stroke="#000000" stroke-width="1.3" pointer-events="all"/><ellipse cell-id="2" cx="28.47" cy="20.67" rx="0.195" ry="0.195" fill="#ffffff" stroke="#000000" stroke-width="1.3" pointer-events="all"/><ellipse cell-id="2" cx="29.25" cy="21.64" rx="0.195" ry="0.195" fill="#ffffff" stroke="#000000" stroke-width="1.3" pointer-events="all"/></g></g><g/><g/></g></svg>