<?xml version="1.0" encoding="UTF-8"?>
<svg xmlns="http://www.w3.org/2000/svg" style="left: 1px; top: 1px; width: 42px; height: 42px; display: block; position: relative; overflow: hidden;"><g><g/><g graphViewDrawPane="true"><g shape-node="" transform="translate(0.5,0.5)" style="visibility: visible;"><path cell-id="2" d="M 1.17 5.07 L 1.17 32.37 L 28.47 32.37 L 32.37 36.27 L 40.17 36.27 L 40.17 5.07 L 38.22 5.07 L 38.22 7.02 L 3.12 7.02 L 3.12 5.07 Z" fill="#ffffff" stroke="none" pointer-events="all"/><path cell-id="2" d="M 3.12 5.07 L 3.12 7.02 L 38.22 7.02 L 38.22 5.07 M 1.17 5.07 L 1.17 32.37 L 28.47 32.37 L 32.37 36.27 L 40.17 36.27 L 40.17 5.07" fill="none" stroke="white" stroke-width="9.3" stroke-miterlimit="10" pointer-events="stroke" visibility="hidden"/><path cell-id="2" d="M 3.12 5.07 L 3.12 7.02 L 38.22 7.02 L 38.22 5.07 M 1.17 5.07 L 1.17 32.37 L 28.47 32.37 L 32.37 36.27 L 40.17 36.27 L 40.17 5.07" fill="none" stroke="#000000" stroke-width="1.3" stroke-miterlimit="10" pointer-events="all"/></g></g><g/><g/></g></svg>