<?xml version="1.0" encoding="UTF-8"?>
<svg xmlns="http://www.w3.org/2000/svg" style="left: 1px; top: 1px; width: 42px; height: 42px; display: block; position: relative; overflow: hidden;"><g><g/><g graphViewDrawPane="true"><g shape-node="" transform="translate(0.5,0.5)" style="visibility: visible;"><path cell-id="2" d="M 27.06 4.37 L 27.06 37.04 C 27.06 38.77 23.39 40.18 18.86 40.18 C 14.33 40.18 10.66 38.77 10.66 37.04 L 10.66 4.37 C 10.66 2.64 14.33 1.23 18.86 1.23 C 23.39 1.23 27.06 2.64 27.06 4.37 Z M 10.66 4.37 L 27.06 4.37 M 10.66 37.04 L 27.06 37.04" fill="#ffffff" stroke="#000000" stroke-width="1.3" stroke-miterlimit="10" pointer-events="all"/><rect cell-id="2" x="28.7" y="16.62" width="2.46" height="8.17" fill="#ffffff" stroke="#000000" stroke-width="1.3" pointer-events="all"/><path cell-id="2" d="M 29.93 12.54 L 29.93 16.62 M 29.93 24.79 L 29.93 28.87 M 28.7 18.66 L 31.16 18.66 M 28.7 20.7 L 31.16 20.7 M 28.7 22.75 L 31.16 22.75" fill="none" stroke="white" stroke-width="9.3" stroke-miterlimit="10" pointer-events="stroke" visibility="hidden"/><path cell-id="2" d="M 29.93 12.54 L 29.93 16.62 M 29.93 24.79 L 29.93 28.87 M 28.7 18.66 L 31.16 18.66 M 28.7 20.7 L 31.16 20.7 M 28.7 22.75 L 31.16 22.75" fill="none" stroke="#000000" stroke-width="1.3" stroke-miterlimit="10" pointer-events="all"/></g></g><g/><g/></g></svg>