<?xml version="1.0" encoding="UTF-8"?>
<svg xmlns="http://www.w3.org/2000/svg" style="left: 1px; top: 1px; width: 42px; height: 42px; display: block; position: relative; overflow: hidden;"><g><g/><g graphViewDrawPane="true"><g shape-node="" transform="translate(0.5,0.5)" style="visibility: visible;"><path cell-id="2" d="M 23.37 2.21 L 23.37 12.42 C 23.37 12.96 22.27 13.4 20.91 13.4 C 19.55 13.4 18.45 12.96 18.45 12.42 L 18.45 2.21 C 18.45 1.67 19.55 1.23 20.91 1.23 C 22.27 1.23 23.37 1.67 23.37 2.21 Z" fill="#ffffff" stroke="#000000" stroke-width="1.3" stroke-miterlimit="10" pointer-events="all"/><path cell-id="2" d="M 21.32 14.46 L 31.16 14.46 L 31.16 32.83 L 20.91 40.59 L 10.66 32.83 L 10.66 14.46 L 20.5 14.46 M 18.45 2.21 L 23.37 2.21 M 18.45 12.42 L 23.37 12.42 M 20.5 13.23 L 20.5 24.46 M 21.32 13.23 L 21.32 24.46 M 10.66 32.83 L 31.16 32.83" fill="#ffffff" stroke="#000000" stroke-width="1.3" stroke-miterlimit="10" pointer-events="all"/><ellipse cell-id="2" cx="22.96" cy="24.67" rx="2.05" ry="0.40829875518672193" fill="none" stroke="white" stroke-width="9.3" pointer-events="stroke" visibility="hidden"/><ellipse cell-id="2" cx="22.96" cy="24.67" rx="2.05" ry="0.40829875518672193" fill="none" stroke="#000000" stroke-width="1.3" pointer-events="all"/><ellipse cell-id="2" cx="18.86" cy="24.67" rx="2.05" ry="0.40829875518672193" fill="none" stroke="white" stroke-width="9.3" pointer-events="stroke" visibility="hidden"/><ellipse cell-id="2" cx="18.86" cy="24.67" rx="2.05" ry="0.40829875518672193" fill="none" stroke="#000000" stroke-width="1.3" pointer-events="all"/></g></g><g/><g/></g></svg>