<?xml version="1.0" encoding="UTF-8"?>
<svg xmlns="http://www.w3.org/2000/svg" style="left: 1px; top: 1px; width: 42px; height: 42px; display: block; position: relative; overflow: hidden;"><g><g/><g graphViewDrawPane="true"><g shape-node="" transform="translate(0.5,0.5)" style="visibility: visible;"><path cell-id="2" d="M 12.11 23.7 L 9.92 25.89 L 9.92 33.57 C 9.9 36.7 13.58 39.41 18.7 40.04 L 20.02 37.96 Z M 29.68 23.7 L 31.88 25.89 L 31.88 33.57 C 31.9 36.7 28.22 39.41 23.1 40.04 L 21.78 37.96 Z" fill="#ffffff" stroke="#000000" stroke-width="1.3" stroke-miterlimit="10" pointer-events="all"/><path cell-id="2" d="M 12.11 12.73 C 12.11 10.91 16.05 9.44 20.9 9.44 C 25.75 9.44 29.68 10.91 29.68 12.73 L 29.68 32.47 C 29.68 35.5 25.75 37.96 20.9 37.96 C 16.05 37.96 12.11 35.5 12.11 32.47 Z" fill="#ffffff" stroke="#000000" stroke-width="1.3" stroke-miterlimit="10" pointer-events="all"/><rect cell-id="2" x="19.8" y="1.76" width="2.2" height="4.39" fill="#ffffff" stroke="#000000" stroke-width="1.3" pointer-events="all"/><path cell-id="2" d="M 19.36 2.42 L 22.44 2.42 M 19.36 5.49 L 22.44 5.49 M 20.9 6.15 L 20.9 34.78" fill="none" stroke="white" stroke-width="9.3" stroke-miterlimit="10" pointer-events="stroke" visibility="hidden"/><path cell-id="2" d="M 19.36 2.42 L 22.44 2.42 M 19.36 5.49 L 22.44 5.49 M 20.9 6.15 L 20.9 34.78" fill="none" stroke="#000000" stroke-width="1.3" stroke-miterlimit="10" pointer-events="all"/><ellipse cell-id="2" cx="18.7" cy="34.67" rx="2.1962663472097437" ry="0.65810888252149" fill="none" stroke="white" stroke-width="9.3" pointer-events="stroke" visibility="hidden"/><ellipse cell-id="2" cx="18.7" cy="34.67" rx="2.1962663472097437" ry="0.65810888252149" fill="none" stroke="#000000" stroke-width="1.3" pointer-events="all"/><ellipse cell-id="2" cx="23.1" cy="34.67" rx="2.1962663472097437" ry="0.65810888252149" fill="none" stroke="white" stroke-width="9.3" pointer-events="stroke" visibility="hidden"/><ellipse cell-id="2" cx="23.1" cy="34.67" rx="2.1962663472097437" ry="0.65810888252149" fill="none" stroke="#000000" stroke-width="1.3" pointer-events="all"/></g></g><g/><g/></g></svg>