<?xml version="1.0" encoding="UTF-8"?>
<svg xmlns="http://www.w3.org/2000/svg" style="left: 1px; top: 1px; width: 42px; height: 42px; display: block; position: relative; overflow: hidden;"><g><g/><g graphViewDrawPane="true"><g shape-node="" transform="translate(0.5,0.5)" style="visibility: visible;"><rect cell-id="2" x="2.88" y="8.28" width="36" height="25.2" fill="#ffffff" stroke="#000000" stroke-width="1.3" pointer-events="all"/><path cell-id="2" d="M 2.88 15.48 C 1.89 15.48 1.08 16.29 1.08 17.28 C 1.08 18.27 1.89 19.08 2.88 19.08 Z M 2.88 26.28 C 1.89 26.28 1.08 27.09 1.08 28.08 C 1.08 29.07 1.89 29.88 2.88 29.88 Z M 38.88 11.88 C 39.87 11.88 40.68 12.69 40.68 13.68 C 40.68 14.67 39.87 15.48 38.88 15.48 Z M 38.88 22.68 C 39.87 22.68 40.68 23.49 40.68 24.48 C 40.68 25.47 39.87 26.28 38.88 26.28 Z" fill="#ffffff" stroke="#000000" stroke-width="1.3" stroke-miterlimit="10" pointer-events="all"/></g></g><g/><g/></g></svg>