<?xml version="1.0" encoding="UTF-8"?>
<svg xmlns="http://www.w3.org/2000/svg" style="left: 1px; top: 1px; width: 42px; height: 42px; display: block; position: relative; overflow: hidden;"><g><g/><g graphViewDrawPane="true"><g shape-node="" transform="translate(0.5,0.5)" style="visibility: visible;"><path cell-id="2" d="M 29.11 4.37 L 29.11 37.04 C 29.11 38.77 25.44 40.18 20.91 40.18 C 16.38 40.18 12.71 38.77 12.71 37.04 L 12.71 4.37 C 12.71 2.64 16.38 1.23 20.91 1.23 C 25.44 1.23 29.11 2.64 29.11 4.37 Z M 12.71 4.37 L 29.11 4.37 M 12.71 37.04 L 29.11 37.04 M 12.71 28.87 L 29.11 28.87 M 12.71 12.54 L 29.11 12.54 M 15.99 12.54 L 12.71 15.8 M 22.55 12.54 L 12.71 22.34 M 25.83 12.54 L 12.71 25.61 M 29.11 12.54 L 12.71 28.87 M 29.11 15.8 L 15.99 28.87 M 29.11 22.34 L 22.55 28.87 M 29.11 25.61 L 25.83 28.87 M 19.27 12.54 L 12.71 19.07 M 29.11 19.07 L 19.27 28.87" fill="#ffffff" stroke="#000000" stroke-width="1.3" stroke-miterlimit="10" pointer-events="all"/></g></g><g/><g/></g></svg>