<?xml version="1.0" encoding="UTF-8"?>
<svg xmlns="http://www.w3.org/2000/svg" style="left: 1px; top: 1px; width: 42px; height: 42px; display: block; position: relative; overflow: hidden;"><g><g/><g graphViewDrawPane="true"><g shape-node="" transform="translate(0.5,0.5)" style="visibility: visible;"><path cell-id="2" d="M 29.11 4.37 L 29.11 37.04 C 29.11 38.77 25.44 40.18 20.91 40.18 C 16.38 40.18 12.71 38.77 12.71 37.04 L 12.71 4.37 C 12.71 2.64 16.38 1.23 20.91 1.23 C 25.44 1.23 29.11 2.64 29.11 4.37 Z" fill="#ffffff" stroke="#000000" stroke-width="1.3" stroke-miterlimit="10" pointer-events="all"/><path cell-id="2" d="M 12.71 4.37 L 29.11 4.37 M 12.71 37.04 L 29.11 37.04 M 10.25 6.41 L 10.25 35 M 31.57 6.41 L 31.57 35 M 12.71 6.41 L 10.25 8.86 M 12.71 8.45 L 10.25 10.9 M 12.71 10.5 L 10.25 12.95 M 12.71 12.54 L 10.25 14.99 M 12.71 14.58 L 10.25 17.03 M 12.71 16.62 L 10.25 19.07 M 12.71 18.66 L 10.25 21.11 M 12.71 20.7 L 10.25 23.16 M 12.71 22.75 L 10.25 25.2 M 12.71 24.79 L 10.25 27.24 M 12.71 26.83 L 10.25 29.28 M 12.71 28.87 L 10.25 31.32 M 12.71 30.91 L 10.25 33.36 M 12.71 32.96 L 10.66 35 M 31.57 6.41 L 29.11 8.86 M 31.57 8.45 L 29.11 10.9 M 31.57 10.5 L 29.11 12.95 M 31.57 12.54 L 29.11 14.99 M 31.57 14.58 L 29.11 17.03 M 31.57 16.62 L 29.11 19.07 M 31.57 18.66 L 29.11 21.11 M 31.57 20.7 L 29.11 23.16 M 31.57 22.75 L 29.11 25.2 M 31.57 24.79 L 29.11 27.24 M 31.57 26.83 L 29.11 29.28 M 31.57 28.87 L 29.11 31.32 M 31.57 30.91 L 29.11 33.36 M 31.57 32.96 L 29.52 35" fill="none" stroke="white" stroke-width="9.3" stroke-miterlimit="10" pointer-events="stroke" visibility="hidden"/><path cell-id="2" d="M 12.71 4.37 L 29.11 4.37 M 12.71 37.04 L 29.11 37.04 M 10.25 6.41 L 10.25 35 M 31.57 6.41 L 31.57 35 M 12.71 6.41 L 10.25 8.86 M 12.71 8.45 L 10.25 10.9 M 12.71 10.5 L 10.25 12.95 M 12.71 12.54 L 10.25 14.99 M 12.71 14.58 L 10.25 17.03 M 12.71 16.62 L 10.25 19.07 M 12.71 18.66 L 10.25 21.11 M 12.71 20.7 L 10.25 23.16 M 12.71 22.75 L 10.25 25.2 M 12.71 24.79 L 10.25 27.24 M 12.71 26.83 L 10.25 29.28 M 12.71 28.87 L 10.25 31.32 M 12.71 30.91 L 10.25 33.36 M 12.71 32.96 L 10.66 35 M 31.57 6.41 L 29.11 8.86 M 31.57 8.45 L 29.11 10.9 M 31.57 10.5 L 29.11 12.95 M 31.57 12.54 L 29.11 14.99 M 31.57 14.58 L 29.11 17.03 M 31.57 16.62 L 29.11 19.07 M 31.57 18.66 L 29.11 21.11 M 31.57 20.7 L 29.11 23.16 M 31.57 22.75 L 29.11 25.2 M 31.57 24.79 L 29.11 27.24 M 31.57 26.83 L 29.11 29.28 M 31.57 28.87 L 29.11 31.32 M 31.57 30.91 L 29.11 33.36 M 31.57 32.96 L 29.52 35" fill="none" stroke="#000000" stroke-width="1.3" stroke-miterlimit="10" pointer-events="all"/></g></g><g/><g/></g></svg>