<?xml version="1.0" encoding="UTF-8"?>
<svg xmlns="http://www.w3.org/2000/svg" style="left: 1px; top: 1px; width: 42px; height: 42px; display: block; position: relative; overflow: hidden;"><g><g/><g graphViewDrawPane="true"><g shape-node="" transform="translate(0.5,0.5)" style="visibility: visible;"><path cell-id="2" d="M 26.65 4.37 L 26.65 37.04 C 26.65 38.77 22.98 40.18 18.45 40.18 C 13.92 40.18 10.25 38.77 10.25 37.04 L 10.25 4.37 C 10.25 2.64 13.92 1.23 18.45 1.23 C 22.98 1.23 26.65 2.64 26.65 4.37 Z" fill="#ffffff" stroke="#000000" stroke-width="1.3" stroke-miterlimit="10" pointer-events="all"/><path cell-id="2" d="M 10.25 4.37 L 26.65 4.37 M 10.25 37.04 L 26.65 37.04 M 10.25 8.45 L 26.65 8.45 M 10.25 12.54 L 26.65 12.54 M 10.25 8.45 L 14.35 12.54 L 18.45 8.45 L 22.55 12.54 L 26.65 8.45 M 29.93 15.4 L 29.93 22.75 M 31.16 15.4 L 31.16 22.75 M 10.25 12.54 L 14.35 8.45 L 18.45 12.54 L 22.55 8.45 L 26.65 12.54" fill="none" stroke="white" stroke-width="9.3" stroke-linejoin="round" stroke-miterlimit="10" pointer-events="stroke" visibility="hidden"/><path cell-id="2" d="M 10.25 4.37 L 26.65 4.37 M 10.25 37.04 L 26.65 37.04 M 10.25 8.45 L 26.65 8.45 M 10.25 12.54 L 26.65 12.54 M 10.25 8.45 L 14.35 12.54 L 18.45 8.45 L 22.55 12.54 L 26.65 8.45 M 29.93 15.4 L 29.93 22.75 M 31.16 15.4 L 31.16 22.75 M 10.25 12.54 L 14.35 8.45 L 18.45 12.54 L 22.55 8.45 L 26.65 12.54" fill="none" stroke="#000000" stroke-width="1.3" stroke-linejoin="round" stroke-miterlimit="10" pointer-events="all"/><rect cell-id="2" x="26.65" y="16.54" width="3.28" height="4.9" fill="#ffffff" stroke="#000000" stroke-width="1.3" pointer-events="all"/></g></g><g/><g/></g></svg>