<?xml version="1.0" encoding="UTF-8"?>
<svg xmlns="http://www.w3.org/2000/svg" style="left: 1px; top: 1px; width: 42px; height: 42px; display: block; position: relative; overflow: hidden;"><g><g/><g graphViewDrawPane="true"><g shape-node="" transform="translate(0.5,0.5)" style="visibility: visible;"><path cell-id="2" d="M 1.68 30 L 1.68 12 L 4.08 12 L 4.08 27.6 L 19.68 27.6 L 19.68 12 L 22.08 12 L 22.08 27.6 L 37.68 27.6 L 37.68 12 L 40.08 12 L 40.08 30 Z M 1.68 13.2 L 2.88 12 M 1.68 15.6 L 4.08 13.2 M 1.68 18 L 4.08 15.6 M 1.68 20.4 L 4.08 18 M 1.68 22.8 L 4.08 20.4 M 1.68 25.2 L 4.08 22.8 M 11.28 30 L 13.68 27.6 M 1.68 27.6 L 4.08 25.2 M 1.68 30 L 4.08 27.6 M 4.08 30 L 6.48 27.6 M 6.48 30 L 8.88 27.6 M 8.88 30 L 11.28 27.6 M 13.68 30 L 16.08 27.6 M 16.08 30 L 18.48 27.6 M 18.48 30 L 22.08 26.4 M 20.88 30 L 23.28 27.6 M 23.28 30 L 25.68 27.6 M 28.08 30 L 30.48 27.6 M 30.48 30 L 32.88 27.6 M 32.88 30 L 35.28 27.6 M 35.28 30 L 40.08 25.2 M 37.68 30 L 40.08 27.6 M 37.68 25.2 L 40.08 22.8 M 37.68 22.8 L 40.08 20.4 M 37.68 20.4 L 40.08 18 M 37.68 18 L 40.08 15.6 M 37.68 15.6 L 40.08 13.2 M 37.68 13.2 L 38.88 12 M 25.68 30 L 28.08 27.6 M 19.68 26.4 L 22.08 24 M 19.68 24 L 22.08 21.6 M 19.68 21.6 L 22.08 19.2 M 19.68 19.2 L 22.08 16.8 M 19.68 16.8 L 22.08 14.4 M 19.68 14.4 L 22.08 12" fill="#ffffff" stroke="#000000" stroke-width="1.3" stroke-miterlimit="10" pointer-events="all"/></g></g><g/><g/></g></svg>