<?xml version="1.0" encoding="UTF-8"?>
<svg xmlns="http://www.w3.org/2000/svg" style="left: 1px; top: 1px; width: 42px; height: 42px; display: block; position: relative; overflow: hidden;"><g><g/><g graphViewDrawPane="true"><g shape-node="" transform="translate(0.5,0.5)" style="visibility: visible;"><path cell-id="2" d="M 28 4.08 L 28 31.9 C 28 33.38 24.87 34.58 21 34.58 C 17.13 34.58 14 33.38 14 31.9 L 14 4.08 C 14 2.6 17.13 1.4 21 1.4 C 24.87 1.4 28 2.6 28 4.08 Z" fill="#ffffff" stroke="#000000" stroke-width="1.3" stroke-miterlimit="10" pointer-events="all"/><path cell-id="2" d="M 14 4.08 L 28 4.08 M 14 31.9 L 28 31.9 M 14 31.9 L 14 40.6 L 28 40.6 L 28 31.9" fill="none" stroke="white" stroke-width="9.3" stroke-miterlimit="10" pointer-events="stroke" visibility="hidden"/><path cell-id="2" d="M 14 4.08 L 28 4.08 M 14 31.9 L 28 31.9 M 14 31.9 L 14 40.6 L 28 40.6 L 28 31.9" fill="none" stroke="#000000" stroke-width="1.3" stroke-miterlimit="10" pointer-events="all"/></g></g><g/><g/></g></svg>