<?xml version="1.0" encoding="UTF-8"?>
<svg xmlns="http://www.w3.org/2000/svg" style="left: 1px; top: 1px; width: 42px; height: 42px; display: block; position: relative; overflow: hidden;"><g><g/><g graphViewDrawPane="true"><g shape-node="" transform="translate(0.5,0.5)" style="visibility: visible;"><rect cell-id="2" x="1.3" y="14.3" width="39" height="13" fill="#ffffff" stroke="#000000" stroke-width="1.3" pointer-events="all"/><path cell-id="2" d="M 3.9 14.3 L 3.9 16.9 L 1.3 16.9 M 1.3 24.7 L 3.9 24.7 L 3.9 27.3 M 37.7 14.3 L 37.7 16.9 L 40.3 16.9 M 37.7 27.3 L 37.7 24.7 L 40.3 24.7 M 3.9 16.9 L 37.7 24.7 M 3.9 24.7 L 37.7 16.9" fill="none" stroke="white" stroke-width="9.3" stroke-miterlimit="10" pointer-events="stroke" visibility="hidden"/><path cell-id="2" d="M 3.9 14.3 L 3.9 16.9 L 1.3 16.9 M 1.3 24.7 L 3.9 24.7 L 3.9 27.3 M 37.7 14.3 L 37.7 16.9 L 40.3 16.9 M 37.7 27.3 L 37.7 24.7 L 40.3 24.7 M 3.9 16.9 L 37.7 24.7 M 3.9 24.7 L 37.7 16.9" fill="none" stroke="#000000" stroke-width="1.3" stroke-miterlimit="10" pointer-events="all"/></g></g><g/><g/></g></svg>