<?xml version="1.0" encoding="UTF-8"?>
<svg xmlns="http://www.w3.org/2000/svg" style="left: 1px; top: 1px; width: 42px; height: 42px; display: block; position: relative; overflow: hidden;"><g><g/><g graphViewDrawPane="true"><g shape-node="" transform="translate(0.5,0.5)" style="visibility: visible;"><path cell-id="2" d="M 23.32 2.37 L 23.32 13.32 C 23.32 13.9 22.14 14.37 20.68 14.37 C 19.22 14.37 18.04 13.9 18.04 13.32 L 18.04 2.37 C 18.04 1.79 19.22 1.32 20.68 1.32 C 22.14 1.32 23.32 1.79 23.32 2.37 Z" fill="#ffffff" stroke="#000000" stroke-width="1.3" stroke-miterlimit="10" pointer-events="all"/><rect cell-id="2" x="20.24" y="14.42" width="0.88" height="25.19" fill="#ffffff" stroke="#000000" stroke-width="1.3" pointer-events="all"/><path cell-id="2" d="M 18.04 2.37 L 23.32 2.37 M 18.04 13.32 L 23.32 13.32" fill="none" stroke="white" stroke-width="9.3" stroke-miterlimit="10" pointer-events="stroke" visibility="hidden"/><path cell-id="2" d="M 18.04 2.37 L 23.32 2.37 M 18.04 13.32 L 23.32 13.32" fill="none" stroke="#000000" stroke-width="1.3" stroke-miterlimit="10" pointer-events="all"/><ellipse cell-id="2" cx="22.88" cy="39.6" rx="2.2" ry="0.4380090497737556" fill="#ffffff" stroke="#000000" stroke-width="1.3" pointer-events="all"/><ellipse cell-id="2" cx="18.48" cy="39.6" rx="2.2" ry="0.4380090497737556" fill="#ffffff" stroke="#000000" stroke-width="1.3" pointer-events="all"/></g></g><g/><g/></g></svg>