<?xml version="1.0" encoding="UTF-8"?>
<svg xmlns="http://www.w3.org/2000/svg" style="left: 1px; top: 1px; width: 42px; height: 42px; display: block; position: relative; overflow: hidden;"><g><g/><g graphViewDrawPane="true"><g shape-node="" transform="translate(0.5,0.5)" style="visibility: visible;"><path cell-id="2" d="M 14.8 1.2 L 26.8 1.2 L 26.8 15 L 32.8 19 L 32.8 40.8 L 28.8 40.8 L 28.8 37 L 12.8 37 L 12.8 40.8 L 8.8 40.8 L 8.8 19 L 14.8 15 Z" fill="#ffffff" stroke="#000000" stroke-width="1.3" stroke-miterlimit="10" pointer-events="all"/><path cell-id="2" d="M 14.8 15 L 26.8 15 M 8.8 19 L 32.8 19 M 8.8 37 L 32.8 37 M 4.8 23 L 26.8 23 L 14.8 33 L 36.8 33" fill="none" stroke="white" stroke-width="9.3" stroke-miterlimit="10" pointer-events="stroke" visibility="hidden"/><path cell-id="2" d="M 14.8 15 L 26.8 15 M 8.8 19 L 32.8 19 M 8.8 37 L 32.8 37 M 4.8 23 L 26.8 23 L 14.8 33 L 36.8 33" fill="none" stroke="#000000" stroke-width="1.3" stroke-miterlimit="10" pointer-events="all"/></g></g><g/><g/></g></svg>