<?xml version="1.0" encoding="UTF-8"?>
<svg xmlns="http://www.w3.org/2000/svg" style="left: 1px; top: 1px; width: 42px; height: 42px; display: block; position: relative; overflow: hidden;"><g><g/><g graphViewDrawPane="true"><g shape-node="" transform="translate(0.5,0.5)" style="visibility: visible;"><rect cell-id="2" x="19.8" y="1.76" width="2.2" height="4.4" fill="#ffffff" stroke="#000000" stroke-width="1.3" pointer-events="all"/><rect cell-id="2" x="9.9" y="23.76" width="2.2" height="2.2" fill="#ffffff" stroke="#000000" stroke-width="1.3" pointer-events="all"/><rect cell-id="2" x="9.9" y="27.06" width="2.2" height="2.2" fill="#ffffff" stroke="#000000" stroke-width="1.3" pointer-events="all"/><rect cell-id="2" x="9.9" y="30.36" width="2.2" height="2.2" fill="#ffffff" stroke="#000000" stroke-width="1.3" pointer-events="all"/><rect cell-id="2" x="29.7" y="23.76" width="2.2" height="2.2" fill="#ffffff" stroke="#000000" stroke-width="1.3" pointer-events="all"/><rect cell-id="2" x="29.7" y="27.06" width="2.2" height="2.2" fill="#ffffff" stroke="#000000" stroke-width="1.3" pointer-events="all"/><rect cell-id="2" x="29.7" y="30.36" width="2.2" height="2.2" fill="#ffffff" stroke="#000000" stroke-width="1.3" pointer-events="all"/><path cell-id="2" d="M 26.48 36.77 L 27.75 38.57 L 29.55 37.3 L 28.28 35.5 Z M 22.48 37.84 L 22.88 40 L 25.04 39.6 L 24.64 37.44 Z M 13.48 35.34 L 12.13 37.09 L 13.88 38.43 L 15.22 36.69 Z M 17.03 37.38 L 16.48 39.51 L 18.61 40.06 L 19.16 37.93 Z" fill="#ffffff" stroke="#000000" stroke-width="1.3" stroke-miterlimit="10" pointer-events="all"/><path cell-id="2" d="M 12.1 12.76 C 12.1 10.94 16.04 9.46 20.9 9.46 C 25.76 9.46 29.7 10.94 29.7 12.76 L 29.7 32.56 C 29.7 35.6 25.76 38.06 20.9 38.06 C 16.04 38.06 12.1 35.6 12.1 32.56 Z" fill="#ffffff" stroke="#000000" stroke-width="1.3" stroke-miterlimit="10" pointer-events="all"/><path cell-id="2" d="M 19.36 2.42 L 22.44 2.42 M 19.36 5.5 L 22.44 5.5 M 20.9 6.16 L 20.9 34.87" fill="none" stroke="white" stroke-width="9.3" stroke-miterlimit="10" pointer-events="stroke" visibility="hidden"/><path cell-id="2" d="M 19.36 2.42 L 22.44 2.42 M 19.36 5.5 L 22.44 5.5 M 20.9 6.16 L 20.9 34.87" fill="none" stroke="#000000" stroke-width="1.3" stroke-miterlimit="10" pointer-events="all"/><ellipse cell-id="2" cx="18.7" cy="34.76" rx="2.2" ry="0.66" fill="none" stroke="white" stroke-width="9.3" pointer-events="stroke" visibility="hidden"/><ellipse cell-id="2" cx="18.7" cy="34.76" rx="2.2" ry="0.66" fill="none" stroke="#000000" stroke-width="1.3" pointer-events="all"/><ellipse cell-id="2" cx="23.1" cy="34.76" rx="2.2" ry="0.66" fill="none" stroke="white" stroke-width="9.3" pointer-events="stroke" visibility="hidden"/><ellipse cell-id="2" cx="23.1" cy="34.76" rx="2.2" ry="0.66" fill="none" stroke="#000000" stroke-width="1.3" pointer-events="all"/></g></g><g/><g/></g></svg>