<?xml version="1.0" encoding="UTF-8"?>
<svg xmlns="http://www.w3.org/2000/svg" style="left: 1px; top: 1px; width: 42px; height: 42px; display: block; position: relative; overflow: hidden;"><g><g/><g graphViewDrawPane="true"><g shape-node="" transform="translate(0.5,0.5)" style="visibility: visible;"><path cell-id="2" d="M 4.21 17.88 L 37.13 17.88 C 40.17 22.68 40.17 28.74 37.13 33.54 L 4.21 33.54 C 1.17 28.74 1.17 22.68 4.21 17.88 Z" fill="#ffffff" stroke="#000000" stroke-width="1.3" stroke-miterlimit="10" pointer-events="all"/><rect cell-id="2" x="4.29" y="17.88" width="32.69" height="15.66" fill="#ffffff" stroke="#000000" stroke-width="1.3" pointer-events="all"/><ellipse cell-id="2" cx="15.31" cy="15.27" rx="1.5312131919905771" ry="1.4911764705882353" fill="#ffffff" stroke="#000000" stroke-width="1.3" pointer-events="all"/><ellipse cell-id="2" cx="26.99" cy="14.15" rx="3.0624263839811543" ry="2.9823529411764707" fill="#ffffff" stroke="#000000" stroke-width="1.3" pointer-events="all"/><path cell-id="2" d="M 14.98 13.82 L 26.16 11.33 M 15.32 16.82 L 26.93 17.16 M 7.85 17.88 L 7.85 16.21 M 6.12 16.21 L 7.85 14.34 M 7.85 8.19 L 7.85 14.34 M 6.51 11.32 L 9.26 13.67 M 6.89 10.31 L 9.07 12.1 M 7.12 9.31 L 8.8 10.8 M 35.03 17.88 L 35.03 16.58" fill="none" stroke="white" stroke-width="9.3" stroke-miterlimit="10" pointer-events="stroke" visibility="hidden"/><path cell-id="2" d="M 14.98 13.82 L 26.16 11.33 M 15.32 16.82 L 26.93 17.16 M 7.85 17.88 L 7.85 16.21 M 6.12 16.21 L 7.85 14.34 M 7.85 8.19 L 7.85 14.34 M 6.51 11.32 L 9.26 13.67 M 6.89 10.31 L 9.07 12.1 M 7.12 9.31 L 8.8 10.8 M 35.03 17.88 L 35.03 16.58" fill="none" stroke="#000000" stroke-width="1.3" stroke-miterlimit="10" pointer-events="all"/><path cell-id="2" d="M 6.12 12.66 L 9.76 16.21 L 6.12 16.21 Z M 33.88 12.66 L 36.17 12.66 L 33.88 16.58 L 36.17 16.58 Z" fill="#ffffff" stroke="#000000" stroke-width="1.3" stroke-miterlimit="10" pointer-events="all"/></g></g><g/><g/></g></svg>