<?xml version="1.0" encoding="UTF-8"?>
<svg xmlns="http://www.w3.org/2000/svg" style="left: 1px; top: 1px; width: 42px; height: 42px; display: block; position: relative; overflow: hidden;"><g><g/><g graphViewDrawPane="true"><g shape-node="" transform="translate(0.5,0.5)" style="visibility: visible;"><ellipse cell-id="2" cx="20.64" cy="20.64" rx="19.35" ry="19.35" fill="#ffffff" stroke="#000000" stroke-width="1.72" pointer-events="all"/><rect cell-id="2" x="1.29" y="1.29" width="0" height="0" fill="none" stroke="white" stroke-width="9.3" pointer-events="stroke" visibility="hidden"/><rect cell-id="2" x="1.29" y="1.29" width="0" height="0" fill="none" stroke="#000000" stroke-width="1.3" pointer-events="all"/><path cell-id="2" d="M 20.64 3.44 C 25.02 8.34 25.02 15.74 20.64 20.64 C 16.26 25.54 16.26 32.94 20.64 37.84 M 32.81 8.47 C 32.45 15.04 27.2 20.28 20.64 20.64 C 14.08 21 8.83 26.24 8.47 32.81 M 37.84 20.64 C 32.94 25.02 25.54 25.02 20.64 20.64 C 15.74 16.26 8.34 16.26 3.44 20.64 M 32.81 32.81 C 26.24 32.45 21 27.2 20.64 20.64 C 20.32 14.01 15.01 8.71 8.38 8.39" fill="none" stroke="white" stroke-width="9.3" stroke-miterlimit="10" pointer-events="stroke" visibility="hidden"/><path cell-id="2" d="M 20.64 3.44 C 25.02 8.34 25.02 15.74 20.64 20.64 C 16.26 25.54 16.26 32.94 20.64 37.84 M 32.81 8.47 C 32.45 15.04 27.2 20.28 20.64 20.64 C 14.08 21 8.83 26.24 8.47 32.81 M 37.84 20.64 C 32.94 25.02 25.54 25.02 20.64 20.64 C 15.74 16.26 8.34 16.26 3.44 20.64 M 32.81 32.81 C 26.24 32.45 21 27.2 20.64 20.64 C 20.32 14.01 15.01 8.71 8.38 8.39" fill="none" stroke="#000000" stroke-width="1.3" stroke-miterlimit="10" pointer-events="all"/><rect cell-id="2" x="1.29" y="1.29" width="0" height="0" fill="none" stroke="white" stroke-width="9.3" pointer-events="stroke" visibility="hidden"/><rect cell-id="2" x="1.29" y="1.29" width="0" height="0" fill="none" stroke="#000000" stroke-width="1.3" pointer-events="all"/><ellipse cell-id="2" cx="20.64" cy="20.64" rx="1.2900000000000003" ry="1.2900000000000003" fill="#ffffff" stroke="#000000" stroke-width="1.3" pointer-events="all"/></g></g><g/><g/></g></svg>