<?xml version="1.0" encoding="UTF-8"?>
<svg xmlns="http://www.w3.org/2000/svg" style="left: 1px; top: 1px; width: 42px; height: 42px; display: block; position: relative; overflow: hidden;"><g><g/><g graphViewDrawPane="true"><g shape-node="" transform="translate(0.5,0.5)" style="visibility: visible;"><path cell-id="2" d="M 18.06 35.28 L 16.34 37.84 L 24.94 37.84 L 23.22 35.28 M 9.89 5.81 L 9.89 33.57 C 9.89 34.88 7.96 35.94 5.59 35.94 C 3.22 35.94 1.29 34.88 1.29 33.57 L 1.29 5.81 C 1.29 4.5 3.22 3.44 5.59 3.44 C 7.96 3.44 9.89 4.5 9.89 5.81 Z M 31.39 5.81 L 31.39 33.57 C 31.39 34.88 33.32 35.94 35.69 35.94 C 38.06 35.94 39.99 34.88 39.99 33.57 L 39.99 5.81 C 39.99 4.5 38.06 3.44 35.69 3.44 C 33.32 3.44 31.39 4.5 31.39 5.81 Z" fill="#ffffff" stroke="#000000" stroke-width="1.3" stroke-miterlimit="10" pointer-events="all"/><path cell-id="2" d="M 24.94 18.62 L 24.94 33.57 C 24.94 34.88 23.01 35.94 20.64 35.94 C 18.27 35.94 16.34 34.88 16.34 33.57 L 16.34 18.62 C 16.34 17.31 18.27 16.25 20.64 16.25 C 23.01 16.25 24.94 17.31 24.94 18.62 Z" fill="#ffffff" stroke="#000000" stroke-width="1.3" stroke-miterlimit="10" pointer-events="all"/><ellipse cell-id="2" cx="20.64" cy="22.04" rx="3.440000000000001" ry="3.4160873882820253" fill="none" stroke="white" stroke-width="9.3" pointer-events="stroke" visibility="hidden"/><ellipse cell-id="2" cx="20.64" cy="22.04" rx="3.440000000000001" ry="3.4160873882820253" fill="none" stroke="#000000" stroke-width="1.3" pointer-events="all"/><ellipse cell-id="2" cx="20.64" cy="30.58" rx="3.440000000000001" ry="3.4160873882820253" fill="none" stroke="white" stroke-width="9.3" pointer-events="stroke" visibility="hidden"/><ellipse cell-id="2" cx="20.64" cy="30.58" rx="3.440000000000001" ry="3.4160873882820253" fill="none" stroke="#000000" stroke-width="1.3" pointer-events="all"/><rect cell-id="2" x="1.29" y="3.44" width="0" height="0" fill="none" stroke="white" stroke-width="9.3" pointer-events="stroke" visibility="hidden"/><rect cell-id="2" x="1.29" y="3.44" width="0" height="0" fill="none" stroke="#000000" stroke-width="1.3" pointer-events="all"/><path cell-id="2" d="M 9.89 26.31 L 16.34 26.31 M 24.94 26.31 L 31.39 26.31" fill="none" stroke="white" stroke-width="9.3" stroke-miterlimit="10" pointer-events="stroke" visibility="hidden"/><path cell-id="2" d="M 9.89 26.31 L 16.34 26.31 M 24.94 26.31 L 31.39 26.31" fill="none" stroke="#000000" stroke-width="1.3" stroke-miterlimit="10" pointer-events="all"/><path cell-id="2" d="M 13.12 22.89 L 13.12 29.73 M 28.17 22.89 L 28.17 29.73" fill="none" stroke="white" stroke-width="9.3" stroke-miterlimit="10" pointer-events="stroke" visibility="hidden"/><path cell-id="2" d="M 13.12 22.89 L 13.12 29.73 M 28.17 22.89 L 28.17 29.73" fill="none" stroke="#000000" stroke-width="1.3" stroke-miterlimit="10" pointer-events="all"/></g></g><g/><g/></g></svg>