<?xml version="1.0" encoding="UTF-8"?>
<svg xmlns="http://www.w3.org/2000/svg" style="left: 1px; top: 1px; width: 42px; height: 42px; display: block; position: relative; overflow: hidden;"><g><g/><g graphViewDrawPane="true"><g shape-node="" transform="translate(0.5,0.5)" style="visibility: visible;"><path cell-id="2" d="M 7.59 0.99 L 33.99 0.99 L 33.99 27.39 L 20.79 40.59 L 7.59 27.39 Z" fill="#ffffff" stroke="#000000" stroke-width="1.3" stroke-miterlimit="10" pointer-events="all"/><path cell-id="2" d="M 20.79 4.29 L 20.79 22.44 M 24.09 4.29 C 24.09 5.2 24.83 5.94 25.74 5.94 C 26.65 5.94 27.39 5.2 27.39 4.29 M 27.39 4.29 C 27.39 5.2 28.13 5.94 29.04 5.94 C 29.95 5.94 30.69 5.2 30.69 4.29" fill="none" stroke="white" stroke-width="9.3" stroke-miterlimit="10" pointer-events="stroke" visibility="hidden"/><path cell-id="2" d="M 20.79 4.29 L 20.79 22.44 M 24.09 4.29 C 24.09 5.2 24.83 5.94 25.74 5.94 C 26.65 5.94 27.39 5.2 27.39 4.29 M 27.39 4.29 C 27.39 5.2 28.13 5.94 29.04 5.94 C 29.95 5.94 30.69 5.2 30.69 4.29" fill="none" stroke="#000000" stroke-width="1.3" stroke-miterlimit="10" pointer-events="all"/><path cell-id="2" d="M 20.13 22.44 L 21.45 22.44 L 20.79 24.09 Z" fill="#000000" stroke="#000000" stroke-width="1.3" stroke-miterlimit="10" pointer-events="all"/></g></g><g/><g/></g></svg>