<?xml version="1.0" encoding="UTF-8"?>
<svg xmlns="http://www.w3.org/2000/svg" style="left: 1px; top: 1px; width: 42px; height: 42px; display: block; position: relative; overflow: hidden;"><g><g/><g graphViewDrawPane="true"><g shape-node="" transform="translate(0.5,0.5)" style="visibility: visible;"><path cell-id="2" d="M 7.59 0.99 L 33.99 0.99 L 33.99 27.39 L 20.79 40.59 L 7.59 27.39 Z" fill="#ffffff" stroke="#000000" stroke-width="1.3" stroke-miterlimit="10" pointer-events="all"/><path cell-id="2" d="M 10.89 22.44 L 13.86 22.44 C 13.86 21.16 14.89 20.13 16.17 20.13 C 17.45 20.13 18.48 21.16 18.48 22.44 C 18.48 21.16 19.51 20.13 20.79 20.13 C 22.07 20.13 23.1 21.16 23.1 22.44 C 23.1 21.16 24.13 20.13 25.41 20.13 C 26.69 20.13 27.72 21.16 27.72 22.44 L 30.69 22.44" fill="none" stroke="white" stroke-width="9.3" stroke-miterlimit="10" pointer-events="stroke" visibility="hidden"/><path cell-id="2" d="M 10.89 22.44 L 13.86 22.44 C 13.86 21.16 14.89 20.13 16.17 20.13 C 17.45 20.13 18.48 21.16 18.48 22.44 C 18.48 21.16 19.51 20.13 20.79 20.13 C 22.07 20.13 23.1 21.16 23.1 22.44 C 23.1 21.16 24.13 20.13 25.41 20.13 C 26.69 20.13 27.72 21.16 27.72 22.44 L 30.69 22.44" fill="none" stroke="#000000" stroke-width="1.3" stroke-miterlimit="10" pointer-events="all"/></g></g><g/><g/></g></svg>