<?xml version="1.0" encoding="UTF-8"?>
<svg xmlns="http://www.w3.org/2000/svg" style="left: 1px; top: 1px; width: 42px; height: 42px; display: block; position: relative; overflow: hidden;"><g><g/><g graphViewDrawPane="true"><g shape-node="" transform="translate(0.5,0.5)" style="visibility: visible;"><path cell-id="2" d="M 7.59 0.99 L 33.99 0.99 L 33.99 27.39 L 20.79 40.59 L 7.59 27.39 Z" fill="#ffffff" stroke="#000000" stroke-width="1.3" stroke-miterlimit="10" pointer-events="all"/><path cell-id="2" d="M 12.54 24.09 L 19.14 24.09 M 19.14 20.79 L 19.14 27.39 M 22.44 20.79 L 22.44 27.39 M 22.44 24.09 L 27.39 24.09 M 17.49 4.29 L 20.79 1.16 L 24.09 4.29 M 20.79 1.16 L 20.79 4.29" fill="none" stroke="white" stroke-width="9.3" stroke-miterlimit="10" pointer-events="stroke" visibility="hidden"/><path cell-id="2" d="M 12.54 24.09 L 19.14 24.09 M 19.14 20.79 L 19.14 27.39 M 22.44 20.79 L 22.44 27.39 M 22.44 24.09 L 27.39 24.09 M 17.49 4.29 L 20.79 1.16 L 24.09 4.29 M 20.79 1.16 L 20.79 4.29" fill="none" stroke="#000000" stroke-width="1.3" stroke-miterlimit="10" pointer-events="all"/></g></g><g/><g/></g></svg>