<?xml version="1.0" encoding="UTF-8"?>
<svg xmlns="http://www.w3.org/2000/svg" style="left: 1px; top: 1px; width: 42px; height: 42px; display: block; position: relative; overflow: hidden;"><g><g/><g graphViewDrawPane="true"><g shape-node="" transform="translate(0.5,0.5)" style="visibility: visible;"><path cell-id="2" d="M 7.59 0.99 L 33.99 0.99 L 33.99 27.39 L 20.79 40.59 L 7.59 27.39 Z" fill="#ffffff" stroke="#000000" stroke-width="1.3" stroke-miterlimit="10" pointer-events="all"/><path cell-id="2" d="M 19.14 5.94 C 24.61 5.94 29.04 8.16 29.04 10.89 C 29.04 13.62 24.61 15.84 19.14 15.84 C 17.93 15.87 16.78 15.56 16.16 15.04 C 15.54 14.52 15.54 13.87 16.16 13.35 C 16.78 12.82 17.93 12.52 19.14 12.54 C 22.74 12.5 26.1 13.43 27.93 14.98 C 29.75 16.53 29.75 18.45 27.93 20 C 26.1 21.55 22.74 22.49 19.14 22.44" fill="none" stroke="white" stroke-width="9.3" stroke-miterlimit="10" pointer-events="stroke" visibility="hidden"/><path cell-id="2" d="M 19.14 5.94 C 24.61 5.94 29.04 8.16 29.04 10.89 C 29.04 13.62 24.61 15.84 19.14 15.84 C 17.93 15.87 16.78 15.56 16.16 15.04 C 15.54 14.52 15.54 13.87 16.16 13.35 C 16.78 12.82 17.93 12.52 19.14 12.54 C 22.74 12.5 26.1 13.43 27.93 14.98 C 29.75 16.53 29.75 18.45 27.93 20 C 26.1 21.55 22.74 22.49 19.14 22.44" fill="none" stroke="#000000" stroke-width="1.3" stroke-miterlimit="10" pointer-events="all"/><path cell-id="2" d="M 19.14 21.78 L 19.14 23.1 L 17.49 22.44 Z" fill="#000000" stroke="#000000" stroke-width="1.3" stroke-miterlimit="10" pointer-events="all"/></g></g><g/><g/></g></svg>