<?xml version="1.0" encoding="UTF-8"?>
<svg xmlns="http://www.w3.org/2000/svg" width="38.0" height="100.0" viewBox="0 0 38.0 100.0">
  <!-- Shape: Breakthrough2 -->
  <!-- Category: fittings -->
  <g class="shape-content" stroke="black" fill="none" stroke-width="1">
    <rect x="0" y="25" width="4" height="50"/>
    <rect x="34" y="25" width="4" height="50"/>
    <rect x="0" y="0" width="10" height="10"/>
    <path d="M 4 0 L 4 35 L 34 35 L 34 0 M 4 100 L 4 65 L 34 65 L 34 100"/>
    <path d="M 4 10 L 14 0 M 4 20 L 24 0 M 4 30 L 34 0 M 9 35 L 34 10 M 19 35 L 34 20 M 29 35 L 34 30 M 4 75 L 14 65 M 4 85 L 24 65 M 4 95 L 34 65 M 9 100 L 34 75 M 19 100 L 34 85 M 29 100 L 34 95"/>
  </g>
  <g class="connection-points" fill="red" opacity="0.5">
    <circle cx="0.0" cy="50.0" r="2" data-name="W"/>
    <circle cx="38.0" cy="50.0" r="2" data-name="E"/>
  </g>
</svg>