<?xml version="1.0" encoding="UTF-8"?>
<svg xmlns="http://www.w3.org/2000/svg" style="left: 1px; top: 1px; width: 42px; height: 42px; display: block; position: relative; overflow: hidden;"><g><g/><g graphViewDrawPane="true"><g shape-node="" transform="translate(0.5,0.5)" style="visibility: visible;"><rect cell-id="2" x="13.26" y="10.92" width="1.56" height="19.5" fill="#000000" stroke="#000000" stroke-width="1.3" pointer-events="all"/><rect cell-id="2" x="26.52" y="10.92" width="1.56" height="19.5" fill="#000000" stroke="#000000" stroke-width="1.3" pointer-events="all"/><rect cell-id="2" x="13.26" y="1.17" width="0" height="0" fill="none" stroke="white" stroke-width="9.3" pointer-events="stroke" visibility="hidden"/><rect cell-id="2" x="13.26" y="1.17" width="0" height="0" fill="none" stroke="#000000" stroke-width="1.3" pointer-events="all"/><path cell-id="2" d="M 14.82 1.17 L 14.82 14.82 L 26.52 14.82 L 26.52 1.17 M 14.82 40.17 L 14.82 26.52 L 26.52 26.52 L 26.52 40.17" fill="#ffffff" stroke="#000000" stroke-width="1.3" stroke-miterlimit="10" pointer-events="all"/><path cell-id="2" d="M 14.82 5.07 L 18.72 1.17 M 14.82 8.97 L 22.62 1.17 M 14.82 12.87 L 26.52 1.17 M 16.77 14.82 L 26.52 5.07 M 20.67 14.82 L 26.52 8.97 M 24.57 14.82 L 26.52 12.87 M 14.82 30.42 L 18.72 26.52 M 14.82 34.32 L 22.62 26.52 M 14.82 38.22 L 26.52 26.52 M 16.77 40.17 L 26.52 30.42 M 20.67 40.17 L 26.52 34.32 M 24.57 40.17 L 26.52 38.22" fill="none" stroke="white" stroke-width="9.3" stroke-miterlimit="10" pointer-events="stroke" visibility="hidden"/><path cell-id="2" d="M 14.82 5.07 L 18.72 1.17 M 14.82 8.97 L 22.62 1.17 M 14.82 12.87 L 26.52 1.17 M 16.77 14.82 L 26.52 5.07 M 20.67 14.82 L 26.52 8.97 M 24.57 14.82 L 26.52 12.87 M 14.82 30.42 L 18.72 26.52 M 14.82 34.32 L 22.62 26.52 M 14.82 38.22 L 26.52 26.52 M 16.77 40.17 L 26.52 30.42 M 20.67 40.17 L 26.52 34.32 M 24.57 40.17 L 26.52 38.22" fill="none" stroke="#000000" stroke-width="1.3" stroke-miterlimit="10" pointer-events="all"/></g></g><g/><g/></g></svg>