<?xml version="1.0" encoding="UTF-8"?>
<svg xmlns="http://www.w3.org/2000/svg" style="left: 1px; top: 1px; width: 42px; height: 42px; display: block; position: relative; overflow: hidden;"><g><g/><g graphViewDrawPane="true"><g shape-node="" transform="translate(0.5,0.5)" style="visibility: visible;"><path cell-id="2" d="M 1.17 1.17 L 20.67 1.17 C 31.44 1.17 40.17 9.9 40.17 20.67 C 40.17 31.44 31.44 40.17 20.67 40.17 L 1.17 40.17 Z" fill="#ffffff" stroke="#000000" stroke-width="1.3" stroke-miterlimit="10" pointer-events="all"/><path cell-id="2" d="M 10.92 1.17 L 10.92 40.17 M 1.17 10.92 L 20.67 10.92 M 1.17 20.67 L 20.67 20.67 M 1.17 30.42 L 20.67 30.42 M 20.67 1.17 L 20.67 40.17 M 20.67 1.17 L 39.98 20.67 L 20.67 40.17" fill="none" stroke="white" stroke-width="9.3" stroke-linejoin="round" stroke-miterlimit="10" pointer-events="stroke" visibility="hidden"/><path cell-id="2" d="M 10.92 1.17 L 10.92 40.17 M 1.17 10.92 L 20.67 10.92 M 1.17 20.67 L 20.67 20.67 M 1.17 30.42 L 20.67 30.42 M 20.67 1.17 L 20.67 40.17 M 20.67 1.17 L 39.98 20.67 L 20.67 40.17" fill="none" stroke="#000000" stroke-width="1.3" stroke-linejoin="round" stroke-miterlimit="10" pointer-events="all"/></g></g><g/><g/></g></svg>