<?xml version="1.0" encoding="UTF-8"?>
<svg xmlns="http://www.w3.org/2000/svg" style="left: 1px; top: 1px; width: 42px; height: 42px; display: block; position: relative; overflow: hidden;"><g><g/><g graphViewDrawPane="true"><g shape-node="" transform="translate(0.5,0.5)" style="visibility: visible;"><path cell-id="2" d="M 1.1 20.9 C 1.1 19.08 2.58 17.6 4.4 17.6 C 6.22 17.6 7.7 19.08 7.7 20.9 C 7.7 22.72 9.18 24.2 11 24.2 C 12.82 24.2 14.3 22.72 14.3 20.9 C 14.3 19.08 15.78 17.6 17.6 17.6 C 19.42 17.6 20.9 19.08 20.9 20.9 C 20.9 22.72 22.38 24.2 24.2 24.2 C 26.02 24.2 27.5 22.72 27.5 20.9 C 27.5 19.08 28.98 17.6 30.8 17.6 C 32.62 17.6 34.1 19.08 34.1 20.9 C 34.1 22.72 35.58 24.2 37.4 24.2 C 39.22 24.2 40.7 22.72 40.7 20.9" fill="none" stroke="white" stroke-width="9.3" stroke-miterlimit="10" pointer-events="stroke" visibility="hidden"/><path cell-id="2" d="M 1.1 20.9 C 1.1 19.08 2.58 17.6 4.4 17.6 C 6.22 17.6 7.7 19.08 7.7 20.9 C 7.7 22.72 9.18 24.2 11 24.2 C 12.82 24.2 14.3 22.72 14.3 20.9 C 14.3 19.08 15.78 17.6 17.6 17.6 C 19.42 17.6 20.9 19.08 20.9 20.9 C 20.9 22.72 22.38 24.2 24.2 24.2 C 26.02 24.2 27.5 22.72 27.5 20.9 C 27.5 19.08 28.98 17.6 30.8 17.6 C 32.62 17.6 34.1 19.08 34.1 20.9 C 34.1 22.72 35.58 24.2 37.4 24.2 C 39.22 24.2 40.7 22.72 40.7 20.9" fill="none" stroke="#000000" stroke-width="1.3" stroke-miterlimit="10" pointer-events="all"/></g></g><g/><g/></g></svg>