<?xml version="1.0" encoding="UTF-8"?>
<svg xmlns="http://www.w3.org/2000/svg" width="123.77" height="35.0" viewBox="0 0 123.77 35.0">
  <!-- Shape: Cavity Pump -->
  <!-- Category: pumps -->
  <g class="shape-content" stroke="black" fill="none" stroke-width="1">
    <path d="M 87 0 A 20 20 0 0 1 87 30 L 117 30 A 20 20 0 0 1 117 0 Z M 75 15 L 80 15 M 15 25 L 15 35 M 60 25 L 60 35"/>
    <rect x="0" y="5" width="75" height="20"/>
    <path d="M 4.5 15 A 6 10 0 0 1 15.5 15 A 6 10 0 0 1 26.5 15 A 6 10 0 0 1 37.5 15 A 6 10 0 0 1 48.5 15 A 6 10 0 0 1 59.5 15 A 6 10 0 0 1 70.5 15 M 87 0 L 87 30 M 117 0 L 117 30"/>
  </g>
  <g class="connection-points" fill="red" opacity="0.5">
    <circle cx="14.8524" cy="35.0" r="2" data-name="SW"/>
    <circle cx="60.02845" cy="35.0" r="2" data-name="SE"/>
  </g>
</svg>