<?xml version="1.0" encoding="UTF-8"?>
<svg xmlns="http://www.w3.org/2000/svg" width="70.0" height="67.0" viewBox="0 0 70.0 67.0">
  <!-- Shape: Centrifugal Pump 1 -->
  <!-- Category: pumps -->
  <g class="shape-content" stroke="black" fill="none" stroke-width="1">
    <path d="M 12 54 L 0 67 L 60 67 L 48 54"/>
    <path d="M 0.6 25 A 30 30 0 0 1 30 0 L 70 0 L 70 20 L 58.45 20 A 30 30 0 0 1 0.6 35"/>
    <path d="M 21.4 25 A 10 10 0 0 1 21.4 35"/>
  </g>
  <g class="connection-points" fill="red" opacity="0.5">
    <circle cx="30.099999999999998" cy="0.0" r="2" data-name="N"/>
    <circle cx="30.099999999999998" cy="67.0" r="2" data-name="S"/>
    <circle cx="0.7000000000000001" cy="33.5" r="2" data-name="W"/>
    <circle cx="60.199999999999996" cy="33.5" r="2" data-name="E"/>
    <circle cx="8.75" cy="8.375" r="2" data-name="NW"/>
    <circle cx="0.0" cy="67.0" r="2" data-name="SW"/>
    <circle cx="70.0" cy="0.0" r="2" data-name="NE"/>
    <circle cx="59.85" cy="67.0" r="2" data-name="SE"/>
  </g>
</svg>