<?xml version="1.0" encoding="UTF-8"?>
<svg xmlns="http://www.w3.org/2000/svg" width="62.09" height="77.0" viewBox="0 0 62.09 77.0">
  <!-- Shape: Centrifugal Pump 2 -->
  <!-- Category: pumps -->
  <g class="shape-content" stroke="black" fill="none" stroke-width="1">
    <path d="M 12 64 L 0 77 L 60 77 L 48 64"/>
    <path d="M 25 69.4 A 30 30 0 0 1 0 40 L 0 0 L 20 0 L 20 11.55 A 30 30 0 0 1 35 69.4"/>
    <path d="M 25 48.6 A 10 10 0 0 1 35 48.6"/>
  </g>
  <g class="connection-points" fill="red" opacity="0.5">
    <circle cx="30.11365" cy="10.01" r="2" data-name="N"/>
    <circle cx="30.11365" cy="77.0" r="2" data-name="S"/>
    <circle cx="0.0" cy="40.04" r="2" data-name="W"/>
    <circle cx="60.2273" cy="40.04" r="2" data-name="E"/>
    <circle cx="0.0" cy="0.0" r="2" data-name="NW"/>
    <circle cx="0.0" cy="77.0" r="2" data-name="SW"/>
    <circle cx="49.051100000000005" cy="16.169999999999998" r="2" data-name="NE"/>
    <circle cx="60.2273" cy="77.0" r="2" data-name="SE"/>
  </g>
</svg>