<?xml version="1.0" encoding="UTF-8"?>
<svg xmlns="http://www.w3.org/2000/svg" width="70.0" height="67.0" viewBox="0 0 70.0 67.0">
  <!-- Shape: Centrifugal Pump 3 -->
  <!-- Category: pumps -->
  <g class="shape-content" stroke="black" fill="none" stroke-width="1">
    <path d="M 22 54 L 10 67 L 70 67 L 58 54"/>
    <path d="M 69.4 25 A 30 30 0 0 1 40 0 L 0 0 L 0 20 L 11.55 20 A 30 30 0 0 1 69.4 35"/>
    <path d="M 48.6 25 A 10 10 0 0 1 48.6 35"/>
  </g>
  <g class="connection-points" fill="red" opacity="0.5">
    <circle cx="39.9" cy="0.0" r="2" data-name="N"/>
    <circle cx="39.9" cy="67.0" r="2" data-name="S"/>
    <circle cx="69.3" cy="33.5" r="2" data-name="E"/>
    <circle cx="9.8" cy="33.5" r="2" data-name="W"/>
    <circle cx="61.25" cy="8.375" r="2" data-name="NE"/>
    <circle cx="70.0" cy="67.0" r="2" data-name="SE"/>
    <circle cx="0.0" cy="0.0" r="2" data-name="NW"/>
    <circle cx="10.149999999999999" cy="67.0" r="2" data-name="SW"/>
  </g>
</svg>