<?xml version="1.0" encoding="UTF-8"?>
<svg xmlns="http://www.w3.org/2000/svg" width="155.27" height="111.77" viewBox="0 0 155.27 111.77">
  <!-- Shape: Horizontal Pump -->
  <!-- Category: pumps -->
  <g class="shape-content" stroke="black" fill="none" stroke-width="1">
    <path d="M 8.5 15 A 20 20 0 0 1 38.5 15 L 38.5 105 A 20 20 0 0 1 8.5 105 Z M 148.5 45 A 20 20 0 0 1 148.5 75 L 58.5 75 A 20 20 0 0 1 58.5 45 Z M 58.5 45 L 58.5 75 M 148.5 45 L 148.5 75 M 23.5 8.5 L 23.5 0 M 13.5 0 L 33.5 0 M 0 60 L 8.5 60 M 0 50 L 0 70"/>
    <rect x="38.5" y="58" width="13.5" height="4"/>
  </g>
  <g class="connection-points" fill="red" opacity="0.5">
    <circle cx="23.2905" cy="0.0" r="2" data-name="N"/>
    <circle cx="0.0" cy="60.3558" r="2" data-name="W"/>
  </g>
</svg>