<?xml version="1.0" encoding="UTF-8"?>
<svg xmlns="http://www.w3.org/2000/svg" width="70.0" height="66.97" viewBox="0 0 70.0 66.97">
  <!-- Shape: Screw Pump -->
  <!-- Category: pumps -->
  <g class="shape-content" stroke="black" fill="none" stroke-width="1">
    <path d="M 12 53.97 L 0 66.97 L 60 66.97 L 48 53.97"/>
    <path d="M 0.6 24.97 A 30 30 0 0 1 59.75 24.97 L 70 24.97 L 70 34.97 L 59.75 34.97 A 30 30 0 0 1 0.6 34.97"/>
    <path d="M 7.7 40.77 A 13 13 0 0 1 30 29.97 A 13 13 0 0 1 52.4 18.97"/>
  </g>
  <g class="connection-points" fill="red" opacity="0.5">
    <circle cx="30.099999999999998" cy="0.0" r="2" data-name="N"/>
    <circle cx="30.099999999999998" cy="66.97" r="2" data-name="S"/>
    <circle cx="0.7000000000000001" cy="30.1365" r="2" data-name="W"/>
    <circle cx="70.0" cy="30.1365" r="2" data-name="E"/>
    <circle cx="8.82" cy="8.37125" r="2" data-name="NW"/>
    <circle cx="0.0" cy="66.97" r="2" data-name="SW"/>
    <circle cx="51.17" cy="8.37125" r="2" data-name="NE"/>
    <circle cx="60.199999999999996" cy="66.97" r="2" data-name="SE"/>
  </g>
</svg>