<?xml version="1.0" encoding="UTF-8"?>
<svg xmlns="http://www.w3.org/2000/svg" width="99.0" height="49.94" viewBox="0 0 99.0 49.94">
  <!-- Shape: Vacuum Pump -->
  <!-- Category: pumps -->
  <g class="shape-content" stroke="black" fill="none" stroke-width="1">
    <path d="M 0 22.97 L 14.5 22.97 L 14.5 14.97 L 26.6 14.97 A 25 25 0 0 1 72.4 14.97 L 84.5 14.97 L 84.5 22.97 L 99 22.97 L 99 26.97 L 84.5 26.97 L 84.5 34.97 L 72.4 34.97 A 25 25 0 0 1 26.6 34.97 L 14.5 34.97 L 14.5 26.97 L 0 26.97 Z"/>
    <path d="M 14.5 22.97 L 14.5 26.97 M 84.5 22.97 L 84.5 26.97 M 26.6 34.97 A 25 25 0 0 1 26.6 14.97 M 72.4 14.97 A 25 25 0 0 1 72.4 34.97"/>
  </g>
  <g class="connection-points" fill="red" opacity="0.5">
    <circle cx="49.5" cy="0.0" r="2" data-name="N"/>
    <circle cx="49.5" cy="49.94" r="2" data-name="S"/>
    <circle cx="0.0" cy="24.97" r="2" data-name="W"/>
    <circle cx="99.0" cy="24.97" r="2" data-name="E"/>
    <circle cx="14.354999999999999" cy="14.982" r="2" data-name="NW"/>
    <circle cx="14.354999999999999" cy="34.958" r="2" data-name="SW"/>
    <circle cx="84.645" cy="14.982" r="2" data-name="NE"/>
    <circle cx="84.645" cy="34.958" r="2" data-name="SE"/>
  </g>
</svg>