<?xml version="1.0" encoding="UTF-8"?>
<svg xmlns="http://www.w3.org/2000/svg" width="90.0" height="50.0" viewBox="0 0 90.0 50.0">
  <!-- Shape: Double Pipe Heat Exchanger -->
  <!-- Category: heat_exchangers -->
  <g class="shape-content" stroke="black" fill="none" stroke-width="1">
    <rect x="5" y="5" width="70" height="10"/>
    <rect x="5" y="35" width="70" height="10"/>
    <path d="M 0 10 L 75 10 A 15 15 0 0 1 75 40 L 0 40 M 10 0 L 10 5 M 8 0 L 12 0 M 0 8 L 0 12 M 0 38 L 0 42 M 10 45 L 10 50 M 8 50 L 12 50 M 70 15 L 70 35"/>
  </g>
  <g class="connection-points" fill="red" opacity="0.5">
    <circle cx="9.9" cy="0.0" r="2" data-name="N"/>
    <circle cx="9.9" cy="50.0" r="2" data-name="S"/>
    <circle cx="0.0" cy="10.0" r="2" data-name="NW"/>
    <circle cx="0.0" cy="40.0" r="2" data-name="SW"/>
  </g>
</svg>