<?xml version="1.0" encoding="UTF-8"?>
<svg xmlns="http://www.w3.org/2000/svg" width="91.75" height="30.0" viewBox="0 0 91.75 30.0">
  <!-- Shape: Hairpin Exchanger -->
  <!-- Category: heat_exchangers -->
  <g class="shape-content" stroke="black" fill="none" stroke-width="1">
    <path d="M 5 6 L 15 6 L 15 0 L 20 0 L 20 6 L 70 6 L 70 0 L 75 0 L 75 6 L 85 6 A 6 8 0 0 1 85 24 L 75 24 L 75 30 L 70 30 L 70 24 L 20 24 L 20 30 L 15 30 L 15 24 L 5 24 L 0 23 L 0 20 L 5 19 L 83 19 A 3.5 4 0 0 1 83 11 L 5 11 L 0 10 L 0 7 Z"/>
    <path d="M 5 3 L 5 14 M 5 16 L 5 27 M 15 6 L 20 6 M 70 6 L 75 6 M 75 24 L 70 24 M 20 24 L 15 24"/>
    <path d="M 2 8 L 2 9.5 M 3 7 L 3 9 M 2 21 L 2 22.5 M 3 20 L 3 22"/>
  </g>
  <g class="connection-points" fill="red" opacity="0.5">
  </g>
</svg>