<?xml version="1.0" encoding="UTF-8"?>
<svg xmlns="http://www.w3.org/2000/svg" width="100.0" height="120.0" viewBox="0 0 100.0 120.0">
  <!-- Shape: Plate and Frame Heat Exchanger -->
  <!-- Category: heat_exchangers -->
  <g class="shape-content" stroke="black" fill="none" stroke-width="1">
    <rect x="5" y="0" width="90" height="120"/>
    <path d="M 15 0 L 15 120 M 25 0 L 25 120 M 35 0 L 35 120 M 45 0 L 45 120 M 55 0 L 55 120 M 65 0 L 65 120 M 75 0 L 75 120 M 85 0 L 85 120 M 0 3 L 0 11 M 0 109 L 0 117 M 100 3 L 100 11 M 100 109 L 100 117 M 0 7 L 5 7 L 95 113 L 100 113 M 0 113 L 5 113 L 95 7 L 100 7"/>
  </g>
  <g class="connection-points" fill="red" opacity="0.5">
    <circle cx="0.0" cy="7.199999999999999" r="2" data-name="NW"/>
    <circle cx="100.0" cy="7.199999999999999" r="2" data-name="NE"/>
    <circle cx="0.0" cy="112.8" r="2" data-name="SW"/>
    <circle cx="100.0" cy="112.8" r="2" data-name="SE"/>
  </g>
</svg>