<?xml version="1.0" encoding="UTF-8"?>
<svg xmlns="http://www.w3.org/2000/svg" style="left: 1px; top: 1px; width: 42px; height: 42px; display: block; position: relative; overflow: hidden;"><g><g/><g graphViewDrawPane="true"><g shape-node="" transform="translate(0.5,0.5)" style="visibility: visible;"><ellipse cell-id="2" cx="20.67" cy="20.67" rx="19.5" ry="19.5" fill="#ffffff" stroke="#000000" stroke-width="1.3" pointer-events="all"/><path cell-id="2" d="M 10.92 3.9 L 38.22 12.09 M 10.92 37.44 L 38.22 29.25 M 12.87 20.67 L 28.47 20.67 M 26.52 15.6 C 29.02 18.52 29.02 22.82 26.52 25.74 M 14.82 15.6 C 12.32 18.52 12.32 22.82 14.82 25.74" fill="none" stroke="white" stroke-width="9.3" stroke-miterlimit="10" pointer-events="stroke" visibility="hidden"/><path cell-id="2" d="M 10.92 3.9 L 38.22 12.09 M 10.92 37.44 L 38.22 29.25 M 12.87 20.67 L 28.47 20.67 M 26.52 15.6 C 29.02 18.52 29.02 22.82 26.52 25.74 M 14.82 15.6 C 12.32 18.52 12.32 22.82 14.82 25.74" fill="none" stroke="#000000" stroke-width="1.3" stroke-miterlimit="10" pointer-events="all"/></g></g><g/><g/></g></svg>