<?xml version="1.0" encoding="UTF-8"?>
<svg xmlns="http://www.w3.org/2000/svg" style="left: 1px; top: 1px; width: 42px; height: 42px; display: block; position: relative; overflow: hidden;"><g><g/><g graphViewDrawPane="true"><g shape-node="" transform="translate(0.5,0.5)" style="visibility: visible;"><ellipse cell-id="2" cx="20.67" cy="20.67" rx="19.5" ry="19.5" fill="#ffffff" stroke="#000000" stroke-width="1.3" pointer-events="all"/><ellipse cell-id="2" cx="20.67" cy="20.67" rx="7.800000000000001" ry="7.800000000000001" fill="none" stroke="white" stroke-width="9.3" pointer-events="stroke" visibility="hidden"/><ellipse cell-id="2" cx="20.67" cy="20.67" rx="7.800000000000001" ry="7.800000000000001" fill="none" stroke="#000000" stroke-width="1.3" pointer-events="all"/><path cell-id="2" d="M 10.92 3.9 L 38.22 12.09 M 10.92 37.44 L 38.22 29.25 M 14.59 10.53 L 16.69 14.04 M 14.59 30.81 L 16.69 27.3 M 26.75 30.81 L 24.65 27.3 M 26.75 10.53 L 24.65 14.04 M 8.97 20.67 L 12.87 20.67 M 28.47 20.67 L 32.37 20.67" fill="none" stroke="white" stroke-width="9.3" stroke-miterlimit="10" pointer-events="stroke" visibility="hidden"/><path cell-id="2" d="M 10.92 3.9 L 38.22 12.09 M 10.92 37.44 L 38.22 29.25 M 14.59 10.53 L 16.69 14.04 M 14.59 30.81 L 16.69 27.3 M 26.75 30.81 L 24.65 27.3 M 26.75 10.53 L 24.65 14.04 M 8.97 20.67 L 12.87 20.67 M 28.47 20.67 L 32.37 20.67" fill="none" stroke="#000000" stroke-width="1.3" stroke-miterlimit="10" pointer-events="all"/></g></g><g/><g/></g></svg>