<?xml version="1.0" encoding="UTF-8"?>
<svg xmlns="http://www.w3.org/2000/svg" style="left: 1px; top: 1px; width: 42px; height: 42px; display: block; position: relative; overflow: hidden;"><g><g/><g graphViewDrawPane="true"><g shape-node="" transform="translate(0.5,0.5)" style="visibility: visible;"><path cell-id="2" d="M 2.02 1.9 L 39.78 1.9 M 20.9 1.9 L 20.9 39.9 M 24.68 17.1 C 34.18 17.88 40.66 21.43 39.69 25.31 C 38.71 29.19 30.6 32.15 20.9 32.15 C 11.21 32.15 3.09 29.19 2.12 25.31 C 1.14 21.43 7.63 17.88 17.13 17.1 M 14.86 15.96 L 17.13 17.1 L 14.86 18.24" fill="none" stroke="white" stroke-width="9.3" stroke-miterlimit="10" pointer-events="stroke" visibility="hidden"/><path cell-id="2" d="M 2.02 1.9 L 39.78 1.9 M 20.9 1.9 L 20.9 39.9 M 24.68 17.1 C 34.18 17.88 40.66 21.43 39.69 25.31 C 38.71 29.19 30.6 32.15 20.9 32.15 C 11.21 32.15 3.09 29.19 2.12 25.31 C 1.14 21.43 7.63 17.88 17.13 17.1 M 14.86 15.96 L 17.13 17.1 L 14.86 18.24" fill="none" stroke="#000000" stroke-width="1.3" stroke-miterlimit="10" pointer-events="all"/></g></g><g/><g/></g></svg>