<?xml version="1.0" encoding="UTF-8"?>
<svg xmlns="http://www.w3.org/2000/svg" width="50.0" height="20.0" viewBox="0 0 50.0 20.0">
  <!-- Shape: Expansion Joint -->
  <!-- Category: piping -->
  <g class="shape-content" stroke="black" fill="none" stroke-width="1">
    <path d="M 0 6 L 7 6 A 4.5 4.5 0 0 1 16 6 A 4.5 4.5 0 0 1 25 6 A 4.5 4.5 0 0 1 34 6 A 4.5 4.5 0 0 1 43 6 L 50 6 L 50 14 L 43 14 A 4.5 4.5 0 0 1 34 14 A 4.5 4.5 0 0 1 25 14 A 4.5 4.5 0 0 1 16 14 A 4.5 4.5 0 0 1 7 14 L 0 14 Z Z M 50 0 L 50 20 M 0 0 L 0 20"/>
  </g>
  <g class="connection-points" fill="red" opacity="0.5">
    <circle cx="0.0" cy="10.0" r="2" data-name="W"/>
    <circle cx="50.0" cy="10.0" r="2" data-name="E"/>
  </g>
</svg>