<?xml version="1.0" encoding="UTF-8"?>
<svg xmlns="http://www.w3.org/2000/svg" width="50.0" height="23.04" viewBox="0 0 50.0 23.04">
  <!-- Shape: Flexible Hose -->
  <!-- Category: piping -->
  <g class="shape-content" stroke="black" fill="none" stroke-width="1">
    <path d="M 50 1.52 L 50 21.52 M 0 1.52 L 0 21.52 M 0 11.52 A 19 35 0 0 1 25 11.52 A 19 35 0 0 1 50 11.52 M 4.2 4.02 L 6.5 6.72 M 12.5 1.52 L 12.5 4.52 M 20.5 4.02 L 17.9 6.82 M 26.7 10.32 L 23.2 12.92 M 32.5 16.52 L 29.2 19.52 M 37.5 18.52 L 37.5 21.52 M 43.7 15.92 L 46.4 19.02"/>
  </g>
  <g class="connection-points" fill="red" opacity="0.5">
    <circle cx="0.0" cy="11.52" r="2" data-name="W"/>
    <circle cx="50.0" cy="11.52" r="2" data-name="E"/>
  </g>
</svg>