<?xml version="1.0" encoding="UTF-8"?>
<svg xmlns="http://www.w3.org/2000/svg" width="100.0" height="120.0" viewBox="0 0 100.0 120.0">
  <!-- Shape: Cooling Tower (Dry, Forced Draught) -->
  <!-- Category: misc -->
  <g class="shape-content" stroke="black" fill="none" stroke-width="1">
    <path d="M 0 120 L 0 100 L 25 0 L 75 0 L 100 100 L 100 120 Z"/>
    <path d="M 100 100 L 0 100 M 0 110 L 100 110 M 50 105 L 50 115 M 37.5 105 L 37.5 115 M 25 105 L 25 115 M 12.5 105 L 12.5 115 M 62.5 105 L 62.5 115 M 75 105 L 75 115 M 87.5 105 L 87.5 115 M 42 62.5 L 36 81 M 58 62.5 L 64 81"/>
    <ellipse cx="50.0" cy="75.0" rx="15.0" ry="15.0"/>
  </g>
  <g class="connection-points" fill="red" opacity="0.5">
    <circle cx="0.0" cy="110.4" r="2" data-name="SW"/>
    <circle cx="100.0" cy="110.4" r="2" data-name="SE"/>
  </g>
</svg>