<?xml version="1.0" encoding="UTF-8"?>
<svg xmlns="http://www.w3.org/2000/svg" width="100.0" height="100.0" viewBox="0 0 100.0 100.0">
  <!-- Shape: Filter 2 -->
  <!-- Category: misc -->
  <g class="shape-content" stroke="black" fill="none" stroke-width="1">
    <rect x="0" y="0" width="100" height="100"/>
    <path d="M 0 0 L 100 100 M 20 0 L 100 80 M 40 0 L 100 60 M 60 0 L 100 40 M 80 0 L 100 20 M 0 20 L 80 100 M 0 40 L 60 100 M 0 60 L 40 100 M 0 80 L 20 100 M 0 20 L 20 0 M 0 40 L 40 0 M 0 60 L 60 0 M 0 80 L 80 0 M 0 100 L 100 0 M 100 20 L 20 100 M 40 100 L 100 40 M 100 60 L 60 100 M 80 100 L 100 80"/>
  </g>
  <g class="connection-points" fill="red" opacity="0.5">
    <circle cx="50.0" cy="0.0" r="2" data-name="N"/>
    <circle cx="50.0" cy="100.0" r="2" data-name="S"/>
    <circle cx="0.0" cy="50.0" r="2" data-name="W"/>
    <circle cx="100.0" cy="50.0" r="2" data-name="E"/>
  </g>
</svg>