<?xml version="1.0" encoding="UTF-8"?>
<svg xmlns="http://www.w3.org/2000/svg" width="80.0" height="180.0" viewBox="0 0 80.0 180.0">
  <!-- Shape: Screening Device, Sieve, Strainer (Basket Reel) -->
  <!-- Category: misc -->
  <g class="shape-content" stroke="black" fill="none" stroke-width="1">
    <path d="M 0 0 L 80 0 L 80 140 L 40 180 L 0 140 Z"/>
    <ellipse cx="40.0" cy="25.0" rx="10.0" ry="10.0"/>
    <ellipse cx="40.0" cy="125.0" rx="10.0" ry="10.0"/>
    <path d="M 30 25 L 30 125 M 50 25 L 50 125 M 50 40 A 20 20 0 0 1 70 60 M 50 85 A 20 20 0 0 1 70 105 M 30 60 A 20 20 0 0 1 10 40 M 30 105 A 20 20 0 0 1 10 85"/>
  </g>
  <g class="connection-points" fill="red" opacity="0.5">
  </g>
</svg>