<?xml version="1.0" encoding="UTF-8"?>
<svg xmlns="http://www.w3.org/2000/svg" width="100.0" height="30.0" viewBox="0 0 100.0 30.0">
  <!-- Shape: Silencer -->
  <!-- Category: misc -->
  <g class="shape-content" stroke="black" fill="none" stroke-width="1">
    <path d="M 3 10 L 20 10 A 10 10 0 0 1 30 0 L 70 0 A 10 10 0 0 1 80 10 L 97 10 L 97 20 L 80 20 A 10 10 0 0 1 70 30 L 30 30 A 10 10 0 0 1 20 20 L 3 20 Z"/>
    <path d="M 0 5 L 0 25 M 3 5 L 3 25 M 100 5 L 100 25 M 97 5 L 97 25"/>
  </g>
  <g class="connection-points" fill="red" opacity="0.5">
    <circle cx="0.0" cy="15.0" r="2" data-name="W"/>
    <circle cx="100.0" cy="15.0" r="2" data-name="E"/>
  </g>
</svg>