<?xml version="1.0" encoding="UTF-8"?>
<svg xmlns="http://www.w3.org/2000/svg" style="left: 1px; top: 1px; width: 42px; height: 42px; display: block; position: relative; overflow: hidden;"><g><g/><g graphViewDrawPane="true"><g shape-node="" transform="translate(0.5,0.5)" style="visibility: visible;"><rect cell-id="2" x="1.17" y="8.97" width="39" height="23.4" fill="#ffffff" stroke="#000000" stroke-width="1.3" pointer-events="all"/><path cell-id="2" d="M 4.29 10.84 L 4.29 30.5 M 37.05 10.84 L 37.05 30.5 M 5.85 11.82 L 35.25 29.65 M 20.67 8.97 L 22.62 10.14 L 18.72 12.48 L 22.62 14.82 L 18.72 17.16 L 22.62 19.5 L 20.28 20.67" fill="none" stroke="white" stroke-width="9.3" stroke-linejoin="round" stroke-miterlimit="10" pointer-events="stroke" visibility="hidden"/><path cell-id="2" d="M 4.29 10.84 L 4.29 30.5 M 37.05 10.84 L 37.05 30.5 M 5.85 11.82 L 35.25 29.65 M 20.67 8.97 L 22.62 10.14 L 18.72 12.48 L 22.62 14.82 L 18.72 17.16 L 22.62 19.5 L 20.28 20.67" fill="none" stroke="#000000" stroke-width="1.3" stroke-linejoin="round" stroke-miterlimit="10" pointer-events="all"/><path cell-id="2" d="M 33.37 26.98 L 35.48 29.75 L 31.98 29.21 Z" fill="#000000" stroke="#000000" stroke-width="1.3" stroke-linejoin="round" stroke-miterlimit="10" pointer-events="all"/></g></g><g/><g/></g></svg>