<?xml version="1.0" encoding="UTF-8"?>
<svg xmlns="http://www.w3.org/2000/svg" style="left: 1px; top: 1px; width: 42px; height: 42px; display: block; position: relative; overflow: hidden;"><g><g/><g graphViewDrawPane="true"><g shape-node="" transform="translate(0.5,0.5)" style="visibility: visible;"><rect cell-id="2" x="14.82" y="1.17" width="11.66" height="12.56" fill="#ffffff" stroke="#000000" stroke-width="1.3" pointer-events="all"/><path cell-id="2" d="M 20.65 13.73 L 20.65 28.47 M 26.48 4.31 L 40.17 4.31 M 34.34 2.13 L 32.31 6.49 M 35.61 2.13 L 33.58 6.49 M 26.48 10.59 L 40.17 10.59 M 34.34 8.4 L 32.31 12.77 M 35.61 8.4 L 33.58 12.77" fill="none" stroke="white" stroke-width="9.3" stroke-linejoin="round" stroke-miterlimit="10" pointer-events="stroke" visibility="hidden"/><path cell-id="2" d="M 20.65 13.73 L 20.65 28.47 M 26.48 4.31 L 40.17 4.31 M 34.34 2.13 L 32.31 6.49 M 35.61 2.13 L 33.58 6.49 M 26.48 10.59 L 40.17 10.59 M 34.34 8.4 L 32.31 12.77 M 35.61 8.4 L 33.58 12.77" fill="none" stroke="#000000" stroke-width="1.3" stroke-linejoin="round" stroke-miterlimit="10" pointer-events="all"/><path cell-id="2" d="M 1.17 16.77 L 20.67 28.47 L 1.17 40.17 Z M 40.17 16.77 L 20.67 28.47 L 40.17 40.17 Z" fill="#ffffff" stroke="#000000" stroke-width="1.3" stroke-linejoin="round" stroke-miterlimit="10" pointer-events="all"/><path cell-id="2" d="M 20.65 7.45 L 20.65 13.73 M 14.82 7.45 L 26.48 7.45" fill="none" stroke="white" stroke-width="9.3" stroke-linejoin="round" stroke-miterlimit="10" pointer-events="stroke" visibility="hidden"/><path cell-id="2" d="M 20.65 7.45 L 20.65 13.73 M 14.82 7.45 L 26.48 7.45" fill="none" stroke="#000000" stroke-width="1.3" stroke-linejoin="round" stroke-miterlimit="10" pointer-events="all"/></g></g><g/><g/></g></svg>