<?xml version="1.0" encoding="UTF-8"?>
<svg xmlns="http://www.w3.org/2000/svg" width="80.0" height="99.0" viewBox="0 0 80.0 99.0">
  <!-- Shape: Furnace -->
  <!-- Category: vessels -->
  <g class="shape-content" stroke="black" fill="none" stroke-width="1">
    <path d="M 25 0 L 55 0 L 55 34.5 L 70 44.5 L 70 99 L 60 99 L 60 89.5 L 20 89.5 L 20 99 L 10 99 L 10 44.5 L 25 34.5 Z"/>
    <path d="M 25 34.5 L 55 34.5 M 10 44.5 L 70 44.5 M 10 89.5 L 70 89.5 M 0 54.5 L 55 54.5 L 25 79.5 L 80 79.5"/>
  </g>
  <g class="connection-points" fill="red" opacity="0.5">
    <circle cx="40.0" cy="0.0" r="2" data-name="N"/>
    <circle cx="40.0" cy="89.595" r="2" data-name="S"/>
    <circle cx="9.6" cy="49.5" r="2" data-name="W"/>
    <circle cx="70.4" cy="49.5" r="2" data-name="E"/>
    <circle cx="24.8" cy="0.0" r="2" data-name="NW"/>
    <circle cx="9.6" cy="99.0" r="2" data-name="SW"/>
    <circle cx="55.199999999999996" cy="0.0" r="2" data-name="NE"/>
    <circle cx="70.4" cy="99.0" r="2" data-name="SE"/>
  </g>
</svg>