<?xml version="1.0" encoding="UTF-8"?>
<svg xmlns="http://www.w3.org/2000/svg" width="100.0" height="173.0" viewBox="0 0 100.0 173.0">
  <!-- Shape: Half Pipe Mixing Vessel -->
  <!-- Category: vessels -->
  <g class="shape-content" stroke="black" fill="none" stroke-width="1">
    <rect x="45" y="0" width="10" height="20"/>
    <rect x="0" y="100" width="10" height="10"/>
    <rect x="0" y="115" width="10" height="10"/>
    <rect x="0" y="130" width="10" height="10"/>
    <rect x="90" y="100" width="10" height="10"/>
    <rect x="90" y="115" width="10" height="10"/>
    <rect x="90" y="130" width="10" height="10"/>
    <path d="M 75.36 159.14 L 81.14 167.3 L 89.3 161.53 L 83.53 153.36 Z M 57.18 163.98 L 58.98 173.82 L 68.82 172.02 L 67.02 162.18 Z M 16.27 152.65 L 10.15 160.57 L 18.07 166.68 L 24.18 158.77 Z M 32.39 161.92 L 29.92 171.61 L 39.61 174.08 L 42.08 164.39 Z"/>
    <path d="M 10 50 A 40 15 0 0 1 90 50 L 90 140 A 40 25 0 0 1 10 140 Z"/>
    <path d="M 43 3 L 57 3 M 43 17 L 57 17 M 50 20 L 50 150.5"/>
    <ellipse cx="40.0" cy="150.0" rx="10.0" ry="3.0"/>
    <ellipse cx="60.0" cy="150.0" rx="10.0" ry="3.0"/>
  </g>
  <g class="connection-points" fill="red" opacity="0.5">
  </g>
</svg>