<?xml version="1.0" encoding="UTF-8"?>
<svg xmlns="http://www.w3.org/2000/svg" width="100.17" height="174.5" viewBox="0 0 100.17 174.5">
  <!-- Shape: Jacketed Mixing Vessel -->
  <!-- Category: vessels -->
  <g class="shape-content" stroke="black" fill="none" stroke-width="1">
    <path d="M 10.08 100 L 0.08 110 L 0.08 145 A 50 30 0 0 1 40.08 174.5 L 46.08 165 Z M 90.08 100 L 100.08 110 L 100.08 145 A 50 30 0 0 1 60.08 174.5 L 54.08 165 Z"/>
    <path d="M 10.08 50 A 40 15 0 0 1 90.08 50 L 90.08 140 A 40 25 0 0 1 10.08 140 Z"/>
    <rect x="45.08" y="0" width="10" height="20"/>
    <path d="M 43.08 3 L 57.08 3 M 43.08 17 L 57.08 17 M 50.08 20 L 50.08 150.5"/>
    <ellipse cx="40.08" cy="150.0" rx="10.0" ry="3.0"/>
    <ellipse cx="60.08" cy="150.0" rx="10.0" ry="3.0"/>
  </g>
  <g class="connection-points" fill="red" opacity="0.5">
  </g>
</svg>