<?xml version="1.0" encoding="UTF-8"?>
<svg xmlns="http://www.w3.org/2000/svg" width="51.0" height="95.38" viewBox="0 0 51.0 95.38">
  <!-- Shape: Knock-out Drum -->
  <!-- Category: vessels -->
  <g class="shape-content" stroke="black" fill="none" stroke-width="1">
    <path d="M 40 7.69 L 40 87.69 A 13 5 0 0 1 0 87.69 L 0 7.69 A 13 5 0 0 1 40 7.69 Z"/>
    <path d="M 0 7.69 L 40 7.69 M 0 87.69 L 40 87.69 M 0 17.69 L 40 17.69 M 0 27.69 L 40 27.69 M 0 17.69 L 10 27.69 L 20 17.69 L 30 27.69 L 40 17.69 M 48 34.69 L 48 52.69 M 51 34.69 L 51 52.69 M 0 27.69 L 10 17.69 L 20 27.69 L 30 17.69 L 40 27.69"/>
    <rect x="40" y="37.5" width="8" height="12"/>
  </g>
  <g class="connection-points" fill="red" opacity="0.5">
  </g>
</svg>