<?xml version="1.0" encoding="UTF-8"?>
<svg xmlns="http://www.w3.org/2000/svg" width="40.0" height="95.38" viewBox="0 0 40.0 95.38">
  <!-- Shape: Reactor -->
  <!-- Category: vessels -->
  <g class="shape-content" stroke="black" fill="none" stroke-width="1">
    <path d="M 40 7.69 L 40 87.69 A 13 5 0 0 1 0 87.69 L 0 7.69 A 13 5 0 0 1 40 7.69 Z M 0 7.69 L 40 7.69 M 0 87.69 L 40 87.69 M 0 67.69 L 40 67.69 M 0 27.69 L 40 27.69 M 8 27.69 L 0 35.69 M 24 27.69 L 0 51.69 M 32 27.69 L 0 59.69 M 40 27.69 L 0 67.69 M 40 35.69 L 8 67.69 M 40 51.69 L 24 67.69 M 40 59.69 L 32 67.69 M 16 27.69 L 0 43.69 M 40 43.69 L 16 67.69"/>
  </g>
  <g class="connection-points" fill="red" opacity="0.5">
  </g>
</svg>