<?xml version="1.0" encoding="UTF-8"?>
<svg xmlns="http://www.w3.org/2000/svg" width="120.0" height="91.0" viewBox="0 0 120.0 91.0">
  <!-- Shape: Tank (Concrete Base) -->
  <!-- Category: vessels -->
  <g class="shape-content" stroke="black" fill="none" stroke-width="1">
    <rect x="0" y="81" width="120" height="10"/>
    <rect x="80" y="3" width="12" height="8"/>
    <rect x="10" y="11" width="100" height="70"/>
    <path d="M 77 3 L 95 3 M 77 0 L 95 0 M 40 91 L 50 81 M 0 91 L 10 81 M 10 91 L 20 81 M 20 91 L 30 81 M 30 91 L 40 81 M 50 91 L 60 81 M 60 91 L 70 81 M 70 91 L 80 81 M 80 91 L 90 81 M 90 91 L 100 81 M 110 91 L 120 81 M 100 91 L 110 81"/>
  </g>
  <g class="connection-points" fill="red" opacity="0.5">
  </g>
</svg>