<?xml version="1.0" encoding="UTF-8"?>
<svg xmlns="http://www.w3.org/2000/svg" style="left: 1px; top: 1px; width: 42px; height: 42px; display: block; position: relative; overflow: hidden;"><g><g/><g graphViewDrawPane="true"><g shape-node="" transform="translate(0.5,0.5)" style="visibility: visible;"><rect cell-id="2" x="5.94" y="0.99" width="29.7" height="39.6" fill="#ffffff" stroke="#000000" stroke-width="1.3" pointer-events="all"/><path cell-id="2" d="M 9.24 0.99 L 9.24 40.59 M 12.54 0.99 L 12.54 40.59 M 15.84 0.99 L 15.84 40.59 M 19.14 0.99 L 19.14 40.59 M 22.44 0.99 L 22.44 40.59 M 25.74 0.99 L 25.74 40.59 M 29.04 0.99 L 29.04 40.59 M 32.34 0.99 L 32.34 40.59 M 4.29 1.98 L 4.29 4.62 M 4.29 36.96 L 4.29 39.6 M 37.29 1.98 L 37.29 4.62 M 37.29 36.96 L 37.29 39.6 M 4.29 3.3 L 5.94 3.3 L 35.64 38.28 L 37.29 38.28 M 4.29 38.28 L 5.94 38.28 L 35.64 3.3 L 37.29 3.3" fill="none" stroke="white" stroke-width="9.3" stroke-miterlimit="10" pointer-events="stroke" visibility="hidden"/><path cell-id="2" d="M 9.24 0.99 L 9.24 40.59 M 12.54 0.99 L 12.54 40.59 M 15.84 0.99 L 15.84 40.59 M 19.14 0.99 L 19.14 40.59 M 22.44 0.99 L 22.44 40.59 M 25.74 0.99 L 25.74 40.59 M 29.04 0.99 L 29.04 40.59 M 32.34 0.99 L 32.34 40.59 M 4.29 1.98 L 4.29 4.62 M 4.29 36.96 L 4.29 39.6 M 37.29 1.98 L 37.29 4.62 M 37.29 36.96 L 37.29 39.6 M 4.29 3.3 L 5.94 3.3 L 35.64 38.28 L 37.29 38.28 M 4.29 38.28 L 5.94 38.28 L 35.64 3.3 L 37.29 3.3" fill="none" stroke="#000000" stroke-width="1.3" stroke-miterlimit="10" pointer-events="all"/></g></g><g/><g/></g></svg>