<?xml version="1.0" encoding="UTF-8"?>
<svg xmlns="http://www.w3.org/2000/svg" style="left: 1px; top: 1px; width: 42px; height: 42px; display: block; position: relative; overflow: hidden;"><g><g/><g graphViewDrawPane="true"><g shape-node="" transform="translate(0.5,0.5)" style="visibility: visible;"><rect cell-id="2" x="17.92" y="6.72" width="22.4" height="28" fill="#ffffff" stroke="#000000" stroke-width="1.3" pointer-events="all"/><rect cell-id="2" x="1.12" y="10.92" width="11.2" height="19.6" fill="#ffffff" stroke="#000000" stroke-width="1.3" pointer-events="all"/><rect cell-id="2" x="20.72" y="11.62" width="16.8" height="4.2" fill="none" stroke="white" stroke-width="9.3" pointer-events="stroke" visibility="hidden"/><rect cell-id="2" x="20.72" y="11.62" width="16.8" height="4.2" fill="none" stroke="#000000" stroke-width="1.3" pointer-events="all"/><rect cell-id="2" x="20.72" y="18.62" width="16.8" height="4.2" fill="none" stroke="white" stroke-width="9.3" pointer-events="stroke" visibility="hidden"/><rect cell-id="2" x="20.72" y="18.62" width="16.8" height="4.2" fill="none" stroke="#000000" stroke-width="1.3" pointer-events="all"/><rect cell-id="2" x="20.72" y="25.62" width="16.8" height="4.2" fill="none" stroke="white" stroke-width="9.3" pointer-events="stroke" visibility="hidden"/><rect cell-id="2" x="20.72" y="25.62" width="16.8" height="4.2" fill="none" stroke="#000000" stroke-width="1.3" pointer-events="all"/><path cell-id="2" d="M 12.32 13.72 L 20.72 13.72 M 12.32 20.72 L 20.72 20.72 M 12.32 27.72 L 20.72 27.72 M 24.92 11.62 L 24.92 15.82 M 29.12 11.62 L 29.12 15.82 M 33.32 11.62 L 33.32 15.82 M 24.92 18.62 L 24.92 22.82 M 29.12 18.62 L 29.12 22.82 M 33.32 18.62 L 33.32 22.82 M 24.92 25.62 L 24.92 29.82 M 29.12 25.62 L 29.12 29.82 M 33.32 25.62 L 33.32 29.82 M 8.12 17.92 L 5.32 17.92 L 5.32 23.52 L 8.12 23.52 M 5.32 20.72 L 7.28 20.72" fill="none" stroke="white" stroke-width="9.3" stroke-miterlimit="10" pointer-events="stroke" visibility="hidden"/><path cell-id="2" d="M 12.32 13.72 L 20.72 13.72 M 12.32 20.72 L 20.72 20.72 M 12.32 27.72 L 20.72 27.72 M 24.92 11.62 L 24.92 15.82 M 29.12 11.62 L 29.12 15.82 M 33.32 11.62 L 33.32 15.82 M 24.92 18.62 L 24.92 22.82 M 29.12 18.62 L 29.12 22.82 M 33.32 18.62 L 33.32 22.82 M 24.92 25.62 L 24.92 29.82 M 29.12 25.62 L 29.12 29.82 M 33.32 25.62 L 33.32 29.82 M 8.12 17.92 L 5.32 17.92 L 5.32 23.52 L 8.12 23.52 M 5.32 20.72 L 7.28 20.72" fill="none" stroke="#000000" stroke-width="1.3" stroke-miterlimit="10" pointer-events="all"/></g></g><g/><g/></g></svg>