<?xml version="1.0" encoding="UTF-8"?>
<svg xmlns="http://www.w3.org/2000/svg" style="left: 1px; top: 1px; width: 42px; height: 42px; display: block; position: relative; overflow: hidden;"><g><g/><g graphViewDrawPane="true"><g shape-node="" transform="translate(0.5,0.5)" style="visibility: visible;"><ellipse cell-id="2" cx="20.67" cy="21.84" rx="17.55" ry="17.550000000000004" fill="#ffffff" stroke="#000000" stroke-width="1.3" pointer-events="all"/><ellipse cell-id="2" cx="20.67" cy="21.84" rx="13.65" ry="13.650000000000004" fill="none" stroke="white" stroke-width="9.3" pointer-events="stroke" visibility="hidden"/><ellipse cell-id="2" cx="20.67" cy="21.84" rx="13.65" ry="13.650000000000004" fill="none" stroke="#000000" stroke-width="1.3" pointer-events="all"/><ellipse cell-id="2" cx="24.57" cy="21.84" rx="1.17" ry="1.1700000000000004" fill="none" stroke="white" stroke-width="9.3" pointer-events="stroke" visibility="hidden"/><ellipse cell-id="2" cx="24.57" cy="21.84" rx="1.17" ry="1.1700000000000004" fill="none" stroke="#000000" stroke-width="1.3" pointer-events="all"/><ellipse cell-id="2" cx="16.77" cy="21.84" rx="1.17" ry="1.1700000000000004" fill="none" stroke="white" stroke-width="9.3" pointer-events="stroke" visibility="hidden"/><ellipse cell-id="2" cx="16.77" cy="21.84" rx="1.17" ry="1.1700000000000004" fill="none" stroke="#000000" stroke-width="1.3" pointer-events="all"/><path cell-id="2" d="M 1.17 21.84 L 16.77 21.84 M 1.17 19.89 L 1.17 23.79 M 24.57 21.84 L 40.17 21.84 M 40.17 19.89 L 40.17 23.79 M 28.47 2.34 L 32.37 2.34 M 8.97 2.34 L 12.87 2.34 M 10.92 2.34 L 10.92 10.14 L 15.99 21.06 M 30.42 2.34 L 30.42 10.14 L 25.35 21.06" fill="none" stroke="white" stroke-width="9.3" stroke-miterlimit="10" pointer-events="stroke" visibility="hidden"/><path cell-id="2" d="M 1.17 21.84 L 16.77 21.84 M 1.17 19.89 L 1.17 23.79 M 24.57 21.84 L 40.17 21.84 M 40.17 19.89 L 40.17 23.79 M 28.47 2.34 L 32.37 2.34 M 8.97 2.34 L 12.87 2.34 M 10.92 2.34 L 10.92 10.14 L 15.99 21.06 M 30.42 2.34 L 30.42 10.14 L 25.35 21.06" fill="none" stroke="#000000" stroke-width="1.3" stroke-miterlimit="10" pointer-events="all"/></g></g><g/><g/></g></svg>