<?xml version="1.0" encoding="UTF-8"?>
<svg xmlns="http://www.w3.org/2000/svg" style="left: 1px; top: 1px; width: 42px; height: 42px; display: block; position: relative; overflow: hidden;"><g><g/><g graphViewDrawPane="true"><g shape-node="" transform="translate(0.5,0.5)" style="visibility: visible;"><rect cell-id="2" x="1.17" y="14.82" width="39" height="11.7" fill="#ffffff" stroke="#000000" stroke-width="1.3" pointer-events="all"/><path cell-id="2" d="M 7.02 14.82 L 7.02 26.52 M 34.32 14.82 L 34.32 26.52 M 11.31 18.72 L 11.31 22.62 M 17.55 18.72 L 17.55 22.62 M 23.79 18.72 L 23.79 22.62 M 30.03 18.72 L 30.03 22.62 M 26.91 18.72 L 26.91 22.62 M 20.67 18.72 L 20.67 22.62 M 14.43 18.72 L 14.43 22.62 M 7.07 20.67 L 34.32 20.67" fill="none" stroke="white" stroke-width="9.3" stroke-miterlimit="10" pointer-events="stroke" visibility="hidden"/><path cell-id="2" d="M 7.02 14.82 L 7.02 26.52 M 34.32 14.82 L 34.32 26.52 M 11.31 18.72 L 11.31 22.62 M 17.55 18.72 L 17.55 22.62 M 23.79 18.72 L 23.79 22.62 M 30.03 18.72 L 30.03 22.62 M 26.91 18.72 L 26.91 22.62 M 20.67 18.72 L 20.67 22.62 M 14.43 18.72 L 14.43 22.62 M 7.07 20.67 L 34.32 20.67" fill="none" stroke="#000000" stroke-width="1.3" stroke-miterlimit="10" pointer-events="all"/></g></g><g/><g/></g></svg>