<?xml version="1.0" encoding="UTF-8"?>
<svg xmlns="http://www.w3.org/2000/svg" style="left: 1px; top: 1px; width: 42px; height: 42px; display: block; position: relative; overflow: hidden;"><g><g/><g graphViewDrawPane="true"><g shape-node="" transform="translate(0.5,0.5)" style="visibility: visible;"><path cell-id="2" d="M 3.42 16.77 L 7.69 16.77 L 7.69 14.19 L 9.82 14.19 L 9.82 16.77 L 31.14 16.77 L 31.14 14.19 L 33.28 14.19 L 33.28 16.77 L 37.54 16.77 C 39.13 16.77 40.42 18.5 40.42 20.64 C 40.42 22.78 39.13 24.51 37.54 24.51 L 33.28 24.51 L 33.28 27.09 L 31.14 27.09 L 31.14 24.51 L 9.82 24.51 L 9.82 27.09 L 7.69 27.09 L 7.69 24.51 L 3.42 24.51 L 1.29 24.08 L 1.29 22.79 L 3.42 22.36 L 36.69 22.36 C 37.51 22.36 38.18 21.59 38.18 20.64 C 38.18 19.69 37.51 18.92 36.69 18.92 L 3.42 18.92 L 1.29 18.49 L 1.29 17.2 Z" fill="#ffffff" stroke="#000000" stroke-width="1.3" stroke-miterlimit="10" pointer-events="all"/><path cell-id="2" d="M 3.42 15.48 L 3.42 20.21 M 3.42 21.07 L 3.42 25.8 M 7.69 16.77 L 9.82 16.77 M 31.14 16.77 L 33.28 16.77 M 33.28 24.51 L 31.14 24.51 M 9.82 24.51 L 7.69 24.51" fill="none" stroke="white" stroke-width="9.3" stroke-miterlimit="10" pointer-events="stroke" visibility="hidden"/><path cell-id="2" d="M 3.42 15.48 L 3.42 20.21 M 3.42 21.07 L 3.42 25.8 M 7.69 16.77 L 9.82 16.77 M 31.14 16.77 L 33.28 16.77 M 33.28 24.51 L 31.14 24.51 M 9.82 24.51 L 7.69 24.51" fill="none" stroke="#000000" stroke-width="1.3" stroke-miterlimit="10" pointer-events="all"/><path cell-id="2" d="M 2.14 17.63 L 2.14 18.27 M 2.57 17.2 L 2.57 18.06 M 2.14 23.22 L 2.14 23.86 M 2.57 22.79 L 2.57 23.65" fill="none" stroke="white" stroke-width="9.3" stroke-miterlimit="10" pointer-events="stroke" visibility="hidden"/><path cell-id="2" d="M 2.14 17.63 L 2.14 18.27 M 2.57 17.2 L 2.57 18.06 M 2.14 23.22 L 2.14 23.86 M 2.57 22.79 L 2.57 23.65" fill="none" stroke="#000000" stroke-width="1.3" stroke-miterlimit="10" pointer-events="all"/></g></g><g/><g/></g></svg>