<?xml version="1.0" encoding="UTF-8"?>
<svg xmlns="http://www.w3.org/2000/svg" style="left: 1px; top: 1px; width: 42px; height: 42px; display: block; position: relative; overflow: hidden;"><g><g/><g graphViewDrawPane="true"><g shape-node="" transform="translate(0.5,0.5)" style="visibility: visible;"><path cell-id="2" d="M 3.21 20.21 L 8.35 20.21 L 8.35 26.66 L 3.21 26.66 C 2.15 26.66 1.29 25.22 1.29 23.43 C 1.29 21.65 2.15 20.21 3.21 20.21 M 9.63 20.21 L 12.62 20.21 L 19.04 13.76 L 38.28 13.76 C 39.46 13.76 40.42 16.65 40.42 20.21 C 40.42 23.77 39.46 26.66 38.28 26.66 L 9.63 26.66 Z M 3.21 20.21 L 3.21 26.66 M 19.04 13.76 L 19.04 26.66 M 38.28 13.76 L 38.28 26.66" fill="#ffffff" stroke="#000000" stroke-width="1.3" stroke-miterlimit="10" pointer-events="all"/><rect cell-id="2" x="8.35" y="18.92" width="1.28" height="9.03" fill="#ffffff" stroke="#000000" stroke-width="1.3" pointer-events="all"/></g></g><g/><g/></g></svg>