<?xml version="1.0" encoding="UTF-8"?>
<svg xmlns="http://www.w3.org/2000/svg" style="left: 1px; top: 1px; width: 42px; height: 42px; display: block; position: relative; overflow: hidden;"><g><g/><g graphViewDrawPane="true"><g shape-node="" transform="translate(0.5,0.5)" style="visibility: visible;"><rect cell-id="2" x="1.17" y="14.82" width="39" height="11.7" fill="#ffffff" stroke="#000000" stroke-width="1.3" pointer-events="all"/><path cell-id="2" d="M 7.02 14.82 L 7.02 26.52 M 1.17 20.67 L 7.02 20.67 M 7.02 19.7 L 31.98 19.7 M 7.02 17.75 L 31.98 17.75 M 7.02 21.64 L 31.98 21.64 M 7.02 23.6 L 31.98 23.6" fill="none" stroke="white" stroke-width="9.3" stroke-miterlimit="10" pointer-events="stroke" visibility="hidden"/><path cell-id="2" d="M 7.02 14.82 L 7.02 26.52 M 1.17 20.67 L 7.02 20.67 M 7.02 19.7 L 31.98 19.7 M 7.02 17.75 L 31.98 17.75 M 7.02 21.64 L 31.98 21.64 M 7.02 23.6 L 31.98 23.6" fill="none" stroke="#000000" stroke-width="1.3" stroke-miterlimit="10" pointer-events="all"/><rect cell-id="2" x="31.98" y="16.77" width="2.34" height="7.8" fill="none" stroke="white" stroke-width="9.3" pointer-events="stroke" visibility="hidden"/><rect cell-id="2" x="31.98" y="16.77" width="2.34" height="7.8" fill="none" stroke="#000000" stroke-width="1.3" pointer-events="all"/></g></g><g/><g/></g></svg>