<?xml version="1.0" encoding="UTF-8"?>
<svg xmlns="http://www.w3.org/2000/svg" style="left: 1px; top: 1px; width: 42px; height: 42px; display: block; position: relative; overflow: hidden;"><g><g/><g graphViewDrawPane="true"><g shape-node="" transform="translate(0.5,0.5)" style="visibility: visible;"><rect cell-id="2" x="3.44" y="12.04" width="30.1" height="4.3" fill="#ffffff" stroke="#000000" stroke-width="1.3" pointer-events="all"/><rect cell-id="2" x="3.44" y="24.94" width="30.1" height="4.3" fill="#ffffff" stroke="#000000" stroke-width="1.3" pointer-events="all"/><path cell-id="2" d="M 1.29 14.19 L 33.54 14.19 C 37.1 14.19 39.99 17.08 39.99 20.64 C 39.99 24.2 37.1 27.09 33.54 27.09 L 1.29 27.09 M 5.59 9.89 L 5.59 12.04 M 4.73 9.89 L 6.45 9.89 M 1.29 13.33 L 1.29 15.05 M 1.29 26.23 L 1.29 27.95 M 5.59 29.24 L 5.59 31.39 M 4.73 31.39 L 6.45 31.39 M 31.39 16.34 L 31.39 24.94" fill="none" stroke="white" stroke-width="9.3" stroke-miterlimit="10" pointer-events="stroke" visibility="hidden"/><path cell-id="2" d="M 1.29 14.19 L 33.54 14.19 C 37.1 14.19 39.99 17.08 39.99 20.64 C 39.99 24.2 37.1 27.09 33.54 27.09 L 1.29 27.09 M 5.59 9.89 L 5.59 12.04 M 4.73 9.89 L 6.45 9.89 M 1.29 13.33 L 1.29 15.05 M 1.29 26.23 L 1.29 27.95 M 5.59 29.24 L 5.59 31.39 M 4.73 31.39 L 6.45 31.39 M 31.39 16.34 L 31.39 24.94" fill="none" stroke="#000000" stroke-width="1.3" stroke-miterlimit="10" pointer-events="all"/></g></g><g/><g/></g></svg>