<?xml version="1.0" encoding="UTF-8"?>
<svg xmlns="http://www.w3.org/2000/svg" style="left: 1px; top: 1px; width: 42px; height: 42px; display: block; position: relative; overflow: hidden;"><g><g/><g graphViewDrawPane="true"><g shape-node="" transform="translate(0.5,0.5)" style="visibility: visible;"><rect cell-id="2" x="1.17" y="12.87" width="39" height="15.6" fill="#ffffff" stroke="#000000" stroke-width="1.3" pointer-events="all"/><path cell-id="2" d="M 4.29 12.87 L 4.29 28.47 M 37.05 12.87 L 37.05 28.47 M 4.29 14.82 L 37.05 14.82 M 4.29 16.77 L 37.05 16.77 M 4.29 18.72 L 37.05 18.72 M 4.29 20.67 L 37.05 20.67 M 4.29 22.62 L 37.05 22.62 M 4.29 24.57 L 37.05 24.57 M 4.29 26.52 L 37.05 26.52" fill="none" stroke="white" stroke-width="9.3" stroke-miterlimit="10" pointer-events="stroke" visibility="hidden"/><path cell-id="2" d="M 4.29 12.87 L 4.29 28.47 M 37.05 12.87 L 37.05 28.47 M 4.29 14.82 L 37.05 14.82 M 4.29 16.77 L 37.05 16.77 M 4.29 18.72 L 37.05 18.72 M 4.29 20.67 L 37.05 20.67 M 4.29 22.62 L 37.05 22.62 M 4.29 24.57 L 37.05 24.57 M 4.29 26.52 L 37.05 26.52" fill="none" stroke="#000000" stroke-width="1.3" stroke-miterlimit="10" pointer-events="all"/></g></g><g/><g/></g></svg>