<?xml version="1.0" encoding="UTF-8"?>
<svg xmlns="http://www.w3.org/2000/svg" style="left: 1px; top: 1px; width: 42px; height: 42px; display: block; position: relative; overflow: hidden;"><g><g/><g graphViewDrawPane="true"><g shape-node="" transform="translate(0.5,0.5)" style="visibility: visible;"><rect cell-id="2" x="1.17" y="1.17" width="39" height="39" fill="#ffffff" stroke="#000000" stroke-width="1.3" pointer-events="all"/><path cell-id="2" d="M 16.77 30.42 L 16.77 34.32 M 24.57 30.42 L 24.57 34.32 M 28.47 30.42 L 28.47 34.32 M 20.67 30.42 L 20.67 34.32 M 12.87 30.42 L 12.87 34.32 M 7.02 32.37 L 34.32 32.37 M 24.57 5.85 L 28.86 19.89 M 16.77 5.85 L 12.48 19.89" fill="none" stroke="white" stroke-width="9.3" stroke-miterlimit="10" pointer-events="stroke" visibility="hidden"/><path cell-id="2" d="M 16.77 30.42 L 16.77 34.32 M 24.57 30.42 L 24.57 34.32 M 28.47 30.42 L 28.47 34.32 M 20.67 30.42 L 20.67 34.32 M 12.87 30.42 L 12.87 34.32 M 7.02 32.37 L 34.32 32.37 M 24.57 5.85 L 28.86 19.89 M 16.77 5.85 L 12.48 19.89" fill="none" stroke="#000000" stroke-width="1.3" stroke-miterlimit="10" pointer-events="all"/><ellipse cell-id="2" cx="20.67" cy="14.82" rx="9.75" ry="9.75" fill="none" stroke="white" stroke-width="9.3" pointer-events="stroke" visibility="hidden"/><ellipse cell-id="2" cx="20.67" cy="14.82" rx="9.75" ry="9.75" fill="none" stroke="#000000" stroke-width="1.3" pointer-events="all"/></g></g><g/><g/></g></svg>