<?xml version="1.0" encoding="UTF-8"?>
<svg xmlns="http://www.w3.org/2000/svg" style="left: 1px; top: 1px; width: 42px; height: 42px; display: block; position: relative; overflow: hidden;"><g><g/><g graphViewDrawPane="true"><g shape-node="" transform="translate(0.5,0.5)" style="visibility: visible;"><path cell-id="2" d="M 7.59 4.29 L 33.99 4.29 L 33.99 27.39 L 20.79 40.59 L 7.59 27.39 Z" fill="#ffffff" stroke="#000000" stroke-width="1.3" stroke-miterlimit="10" pointer-events="all"/><path cell-id="2" d="M 15.84 10.89 L 15.84 32.34 M 25.74 10.89 L 25.74 32.34 M 15.84 14.19 L 25.74 14.19 M 15.84 29.04 L 25.74 29.04 M 20.79 0.99 L 20.79 14.19 M 7.59 10.89 L 12.54 10.89 L 12.54 32.34 M 33.99 10.89 L 29.04 10.89 L 29.04 32.34" fill="none" stroke="white" stroke-width="9.3" stroke-miterlimit="10" pointer-events="stroke" visibility="hidden"/><path cell-id="2" d="M 15.84 10.89 L 15.84 32.34 M 25.74 10.89 L 25.74 32.34 M 15.84 14.19 L 25.74 14.19 M 15.84 29.04 L 25.74 29.04 M 20.79 0.99 L 20.79 14.19 M 7.59 10.89 L 12.54 10.89 L 12.54 32.34 M 33.99 10.89 L 29.04 10.89 L 29.04 32.34" fill="none" stroke="#000000" stroke-width="1.3" stroke-miterlimit="10" pointer-events="all"/></g></g><g/><g/></g></svg>