<?xml version="1.0" encoding="UTF-8"?>
<svg xmlns="http://www.w3.org/2000/svg" style="left: 1px; top: 1px; width: 42px; height: 42px; display: block; position: relative; overflow: hidden;"><g><g/><g graphViewDrawPane="true"><g shape-node="" transform="translate(0.5,0.5)" style="visibility: visible;"><path cell-id="2" d="M 21 1.5 L 21 37.5 M 9 37.5 C 10.42 39.39 12.64 40.5 15 40.5 C 17.36 40.5 19.58 39.39 21 37.5 C 22.42 35.61 24.64 34.5 27 34.5 C 29.36 34.5 31.58 35.61 33 37.5" fill="none" stroke="white" stroke-width="9.3" stroke-miterlimit="10" pointer-events="stroke" visibility="hidden"/><path cell-id="2" d="M 21 1.5 L 21 37.5 M 9 37.5 C 10.42 39.39 12.64 40.5 15 40.5 C 17.36 40.5 19.58 39.39 21 37.5 C 22.42 35.61 24.64 34.5 27 34.5 C 29.36 34.5 31.58 35.61 33 37.5" fill="none" stroke="#000000" stroke-width="1.3" stroke-miterlimit="10" pointer-events="all"/></g></g><g/><g/></g></svg>