<?xml version="1.0" encoding="UTF-8"?>
<svg xmlns="http://www.w3.org/2000/svg" style="left: 1px; top: 1px; width: 42px; height: 42px; display: block; position: relative; overflow: hidden;"><g><g/><g graphViewDrawPane="true"><g shape-node="" transform="translate(0.5,0.5)" style="visibility: visible;"><rect cell-id="2" x="0.78" y="0.78" width="39" height="39" fill="#ffffff" stroke="#000000" stroke-width="1.3" pointer-events="all"/><path cell-id="2" d="M 3.12 20.28 C 4.01 19.13 5.37 18.46 6.83 18.46 C 8.28 18.46 9.64 19.13 10.53 20.28 C 11.42 21.43 12.78 22.1 14.24 22.1 C 15.69 22.1 17.05 21.43 17.94 20.28 M 22.62 20.28 C 23.51 19.13 24.87 18.46 26.32 18.46 C 27.78 18.46 29.14 19.13 30.03 20.28 C 30.92 21.43 32.28 22.1 33.73 22.1 C 35.19 22.1 36.55 21.43 37.44 20.28" fill="none" stroke="white" stroke-width="9.3" stroke-miterlimit="10" pointer-events="stroke" visibility="hidden"/><path cell-id="2" d="M 3.12 20.28 C 4.01 19.13 5.37 18.46 6.83 18.46 C 8.28 18.46 9.64 19.13 10.53 20.28 C 11.42 21.43 12.78 22.1 14.24 22.1 C 15.69 22.1 17.05 21.43 17.94 20.28 M 22.62 20.28 C 23.51 19.13 24.87 18.46 26.32 18.46 C 27.78 18.46 29.14 19.13 30.03 20.28 C 30.92 21.43 32.28 22.1 33.73 22.1 C 35.19 22.1 36.55 21.43 37.44 20.28" fill="none" stroke="#000000" stroke-width="1.3" stroke-miterlimit="10" pointer-events="all"/></g></g><g/><g/></g></svg>