<?xml version="1.0" encoding="UTF-8"?>
<svg xmlns="http://www.w3.org/2000/svg" style="left: 1px; top: 1px; width: 42px; height: 42px; display: block; position: relative; overflow: hidden;"><g><g/><g graphViewDrawPane="true"><g shape-node="" transform="translate(0.5,0.5)" style="visibility: visible;"><rect cell-id="2" x="0.78" y="0.78" width="39" height="39" fill="#ffffff" stroke="#000000" stroke-width="1.3" pointer-events="all"/><path cell-id="2" d="M 16.38 8.58 C 15.91 6.92 16.53 5.15 17.94 4.16 C 19.34 3.16 21.22 3.16 22.62 4.16 C 24.03 5.15 24.65 6.92 24.18 8.58 L 16.38 31.98 C 15.91 33.64 16.53 35.41 17.94 36.4 C 19.34 37.4 21.22 37.4 22.62 36.4 C 24.03 35.41 24.65 33.64 24.18 31.98 Z" fill="none" stroke="white" stroke-width="9.3" stroke-miterlimit="10" pointer-events="stroke" visibility="hidden"/><path cell-id="2" d="M 16.38 8.58 C 15.91 6.92 16.53 5.15 17.94 4.16 C 19.34 3.16 21.22 3.16 22.62 4.16 C 24.03 5.15 24.65 6.92 24.18 8.58 L 16.38 31.98 C 15.91 33.64 16.53 35.41 17.94 36.4 C 19.34 37.4 21.22 37.4 22.62 36.4 C 24.03 35.41 24.65 33.64 24.18 31.98 Z" fill="none" stroke="#000000" stroke-width="1.3" stroke-miterlimit="10" pointer-events="all"/></g></g><g/><g/></g></svg>