<?xml version="1.0" encoding="UTF-8"?>
<svg xmlns="http://www.w3.org/2000/svg" style="left: 1px; top: 1px; width: 42px; height: 42px; display: block; position: relative; overflow: hidden;"><g><g/><g graphViewDrawPane="true"><g shape-node="" transform="translate(0.5,0.5)" style="visibility: visible;"><path cell-id="2" d="M 10.26 33.06 L 3.42 40.47 L 37.62 40.47 L 30.78 33.06" fill="#ffffff" stroke="#000000" stroke-width="1.3" stroke-miterlimit="10" pointer-events="all"/><ellipse cell-id="2" cx="20.52" cy="19.38" rx="17.099999999999998" ry="17.099999999999998" fill="#ffffff" stroke="#000000" stroke-width="1.3" pointer-events="all"/><ellipse cell-id="2" cx="20.52" cy="7.98" rx="5.699999999999999" ry="5.699999999999999" fill="none" stroke="white" stroke-width="9.3" pointer-events="stroke" visibility="hidden"/><ellipse cell-id="2" cx="20.52" cy="7.98" rx="5.699999999999999" ry="5.699999999999999" fill="none" stroke="#000000" stroke-width="1.3" pointer-events="all"/><ellipse cell-id="2" cx="11.17" cy="25.93" rx="5.699999999999999" ry="5.699999999999999" fill="none" stroke="white" stroke-width="9.3" pointer-events="stroke" visibility="hidden"/><ellipse cell-id="2" cx="11.17" cy="25.93" rx="5.699999999999999" ry="5.699999999999999" fill="none" stroke="#000000" stroke-width="1.3" pointer-events="all"/><ellipse cell-id="2" cx="29.87" cy="25.93" rx="5.699999999999999" ry="5.699999999999999" fill="none" stroke="white" stroke-width="9.3" pointer-events="stroke" visibility="hidden"/><ellipse cell-id="2" cx="29.87" cy="25.93" rx="5.699999999999999" ry="5.699999999999999" fill="none" stroke="#000000" stroke-width="1.3" pointer-events="all"/><path cell-id="2" d="M 15.56 5.24 L 6.04 23.37 M 25.48 5.24 L 35 23.37 M 11.17 31.63 L 29.87 31.63 M 14.82 1.14 L 14.82 7.98 M 26.22 1.14 L 26.22 7.98" fill="none" stroke="white" stroke-width="9.3" stroke-miterlimit="10" pointer-events="stroke" visibility="hidden"/><path cell-id="2" d="M 15.56 5.24 L 6.04 23.37 M 25.48 5.24 L 35 23.37 M 11.17 31.63 L 29.87 31.63 M 14.82 1.14 L 14.82 7.98 M 26.22 1.14 L 26.22 7.98" fill="none" stroke="#000000" stroke-width="1.3" stroke-miterlimit="10" pointer-events="all"/></g></g><g/><g/></g></svg>