<?xml version="1.0" encoding="UTF-8"?>
<svg xmlns="http://www.w3.org/2000/svg" style="left: 1px; top: 1px; width: 42px; height: 42px; display: block; position: relative; overflow: hidden;"><g><g/><g graphViewDrawPane="true"><g shape-node="" transform="translate(0.5,0.5)" style="visibility: visible;"><path cell-id="2" d="M 25.13 20.8 L 26.72 20.8 M 6.05 17.6 L 6.05 14.4 M 20.36 24 L 20.36 27.2 M 28.95 16 C 27.58 17.21 26.79 18.96 26.79 20.8 C 26.79 22.64 27.58 24.39 28.95 25.6 L 38.49 25.6 C 39.86 24.39 40.64 22.64 40.64 20.8 C 40.64 18.96 39.86 17.21 38.49 16 Z M 28.95 16 L 28.95 25.6 M 38.49 16 L 38.49 25.6" fill="#ffffff" stroke="#000000" stroke-width="1.3" stroke-miterlimit="10" pointer-events="all"/><rect cell-id="2" x="1.28" y="17.6" width="23.85" height="6.4" fill="#ffffff" stroke="#000000" stroke-width="1.3" pointer-events="all"/><path cell-id="2" d="M 2.71 20.8 L 4.46 18.88 L 7.96 22.72 L 11.46 18.88 L 14.95 22.72 L 18.45 18.88 L 21.95 22.72 L 23.7 20.8" fill="none" stroke="white" stroke-width="9.3" stroke-miterlimit="10" pointer-events="stroke" visibility="hidden"/><path cell-id="2" d="M 2.71 20.8 L 4.46 18.88 L 7.96 22.72 L 11.46 18.88 L 14.95 22.72 L 18.45 18.88 L 21.95 22.72 L 23.7 20.8" fill="none" stroke="#000000" stroke-width="1.3" stroke-miterlimit="10" pointer-events="all"/></g></g><g/><g/></g></svg>