<?xml version="1.0" encoding="UTF-8"?>
<svg xmlns="http://www.w3.org/2000/svg" style="left: 1px; top: 1px; width: 42px; height: 42px; display: block; position: relative; overflow: hidden;"><g><g/><g graphViewDrawPane="true"><g shape-node="" transform="translate(0.5,0.5)" style="visibility: visible;"><path cell-id="2" d="M 30.3 34.26 C 31.2 35.05 31.71 36.19 31.71 37.39 C 31.71 38.59 31.2 39.74 30.3 40.53 L 11.49 40.53 C 10.59 39.74 10.08 38.59 10.08 37.39 C 10.08 36.19 10.59 35.05 11.49 34.26 Z M 17.76 2.89 C 18.55 1.99 19.7 1.47 20.89 1.47 C 22.09 1.47 23.24 1.99 24.03 2.89 L 24.03 9.16 C 23.24 10.06 22.09 10.58 20.89 10.58 C 19.7 10.58 18.55 10.06 17.76 9.16 Z M 26.12 32.48 L 30.3 32.48 M 28.21 32.48 L 28.21 34.26 M 17.76 9.16 L 24.03 9.16 M 17.76 2.89 L 24.03 2.89" fill="#ffffff" stroke="#000000" stroke-width="1.3" stroke-miterlimit="10" pointer-events="all"/><rect cell-id="2" x="20.48" y="10.52" width="0.84" height="23.74" fill="#ffffff" stroke="#000000" stroke-width="1.3" pointer-events="all"/><rect cell-id="2" x="13.58" y="17.32" width="14.62" height="2.93" fill="#ffffff" stroke="#000000" stroke-width="1.3" pointer-events="all"/><path cell-id="2" d="M 13.58 18.78 L 28.21 18.78" fill="none" stroke="white" stroke-width="9.3" stroke-miterlimit="10" pointer-events="stroke" visibility="hidden"/><path cell-id="2" d="M 13.58 18.78 L 28.21 18.78" fill="none" stroke="#000000" stroke-width="1.3" stroke-miterlimit="10" pointer-events="all"/></g></g><g/><g/></g></svg>