<?xml version="1.0" encoding="UTF-8"?>
<svg xmlns="http://www.w3.org/2000/svg" style="left: 1px; top: 1px; width: 42px; height: 42px; display: block; position: relative; overflow: hidden;"><g><g/><g graphViewDrawPane="true"><g shape-node="" transform="translate(0.5,0.5)" style="visibility: visible;"><path cell-id="2" d="M 28.95 15.36 C 27.58 16.57 26.79 18.32 26.79 20.16 C 26.79 22 27.58 23.75 28.95 24.96 L 38.49 24.96 C 39.86 23.75 40.64 22 40.64 20.16 C 40.64 18.32 39.86 16.57 38.49 15.36 Z M 25.13 20.16 L 26.72 20.16 M 6.05 23.36 L 6.05 26.56 M 20.36 23.36 L 20.36 26.56" fill="#ffffff" stroke="#000000" stroke-width="1.3" stroke-miterlimit="10" pointer-events="all"/><rect cell-id="2" x="1.28" y="16.96" width="23.85" height="6.4" fill="#ffffff" stroke="#000000" stroke-width="1.3" pointer-events="all"/><path cell-id="2" d="M 2.71 20.16 C 3.01 18.99 3.7 18.24 4.46 18.24 C 5.22 18.24 5.91 18.99 6.21 20.16 C 6.51 21.33 7.2 22.08 7.96 22.08 C 8.72 22.08 9.4 21.33 9.71 20.16 C 10.01 18.99 10.7 18.24 11.46 18.24 C 12.22 18.24 12.9 18.99 13.21 20.16 C 13.51 21.33 14.2 22.08 14.95 22.08 C 15.71 22.08 16.4 21.33 16.7 20.16 C 17.01 18.99 17.69 18.24 18.45 18.24 C 19.21 18.24 19.9 18.99 20.2 20.16 C 20.5 21.33 21.19 22.08 21.95 22.08 C 22.71 22.08 23.4 21.33 23.7 20.16 M 28.95 15.36 L 28.95 24.96 M 38.49 15.36 L 38.49 24.96" fill="none" stroke="white" stroke-width="9.3" stroke-miterlimit="10" pointer-events="stroke" visibility="hidden"/><path cell-id="2" d="M 2.71 20.16 C 3.01 18.99 3.7 18.24 4.46 18.24 C 5.22 18.24 5.91 18.99 6.21 20.16 C 6.51 21.33 7.2 22.08 7.96 22.08 C 8.72 22.08 9.4 21.33 9.71 20.16 C 10.01 18.99 10.7 18.24 11.46 18.24 C 12.22 18.24 12.9 18.99 13.21 20.16 C 13.51 21.33 14.2 22.08 14.95 22.08 C 15.71 22.08 16.4 21.33 16.7 20.16 C 17.01 18.99 17.69 18.24 18.45 18.24 C 19.21 18.24 19.9 18.99 20.2 20.16 C 20.5 21.33 21.19 22.08 21.95 22.08 C 22.71 22.08 23.4 21.33 23.7 20.16 M 28.95 15.36 L 28.95 24.96 M 38.49 15.36 L 38.49 24.96" fill="none" stroke="#000000" stroke-width="1.3" stroke-miterlimit="10" pointer-events="all"/></g></g><g/><g/></g></svg>