<?xml version="1.0" encoding="UTF-8"?>
<svg xmlns="http://www.w3.org/2000/svg" style="left: 1px; top: 1px; width: 42px; height: 42px; display: block; position: relative; overflow: hidden;"><g><g/><g graphViewDrawPane="true"><g shape-node="" transform="translate(0.5,0.5)" style="visibility: visible;"><path cell-id="2" d="M 11.21 33.66 L 5.1 40.29 L 35.66 40.29 L 29.54 33.66" fill="#ffffff" stroke="#000000" stroke-width="1.3" stroke-miterlimit="10" pointer-events="all"/><path cell-id="2" d="M 17.83 36.41 C 10.51 35.18 5.14 28.85 5.1 21.42 L 5.1 1.02 L 15.29 1.02 L 15.29 6.91 C 20.73 4.96 26.81 6.27 30.99 10.27 C 35.16 14.28 36.72 20.3 35.02 25.84 C 33.31 31.37 28.63 35.46 22.92 36.41" fill="#ffffff" stroke="#000000" stroke-width="1.3" stroke-miterlimit="10" pointer-events="all"/><path cell-id="2" d="M 17.83 25.81 C 15.84 24.65 14.86 22.3 15.46 20.07 C 16.06 17.84 18.07 16.29 20.38 16.29 C 22.68 16.29 24.7 17.84 25.3 20.07 C 25.89 22.3 24.92 24.65 22.92 25.81" fill="none" stroke="white" stroke-width="9.3" stroke-miterlimit="10" pointer-events="stroke" visibility="hidden"/><path cell-id="2" d="M 17.83 25.81 C 15.84 24.65 14.86 22.3 15.46 20.07 C 16.06 17.84 18.07 16.29 20.38 16.29 C 22.68 16.29 24.7 17.84 25.3 20.07 C 25.89 22.3 24.92 24.65 22.92 25.81" fill="none" stroke="#000000" stroke-width="1.3" stroke-miterlimit="10" pointer-events="all"/></g></g><g/><g/></g></svg>