<?xml version="1.0" encoding="UTF-8"?>
<svg xmlns="http://www.w3.org/2000/svg" style="left: 1px; top: 1px; width: 42px; height: 42px; display: block; position: relative; overflow: hidden;"><g><g/><g graphViewDrawPane="true"><g shape-node="" transform="translate(0.5,0.5)" style="visibility: visible;"><path cell-id="2" d="M 15.05 36.55 L 11.82 40.42 L 29.88 40.42 L 26.62 36.55" fill="#ffffff" stroke="#000000" stroke-width="1.3" stroke-miterlimit="10" pointer-events="all"/><path cell-id="2" d="M 29.45 5.59 L 29.45 33.54 C 29.45 35.91 25.6 37.84 20.86 37.84 C 16.11 37.84 12.25 35.91 12.25 33.54 L 12.25 5.59 C 12.25 3.22 16.11 1.29 20.86 1.29 C 25.6 1.29 29.45 3.22 29.45 5.59 Z" fill="#ffffff" stroke="#000000" stroke-width="1.3" stroke-miterlimit="10" pointer-events="all"/><ellipse cell-id="2" cx="20.86" cy="11.18" rx="6.879999999999999" ry="6.880000000000002" fill="none" stroke="white" stroke-width="9.3" pointer-events="stroke" visibility="hidden"/><ellipse cell-id="2" cx="20.86" cy="11.18" rx="6.879999999999999" ry="6.880000000000002" fill="none" stroke="#000000" stroke-width="1.3" pointer-events="all"/><ellipse cell-id="2" cx="20.86" cy="27.09" rx="6.879999999999999" ry="6.880000000000002" fill="none" stroke="white" stroke-width="9.3" pointer-events="stroke" visibility="hidden"/><ellipse cell-id="2" cx="20.86" cy="27.09" rx="6.879999999999999" ry="6.880000000000002" fill="none" stroke="#000000" stroke-width="1.3" pointer-events="all"/><path cell-id="2" d="M 33.11 14.84 L 33.11 23.44 M 29.45 19.14 L 33.11 19.14 M 8.6 15.05 L 8.6 23.65 M 8.6 19.14 L 12.25 19.14" fill="none" stroke="white" stroke-width="9.3" stroke-miterlimit="10" pointer-events="stroke" visibility="hidden"/><path cell-id="2" d="M 33.11 14.84 L 33.11 23.44 M 29.45 19.14 L 33.11 19.14 M 8.6 15.05 L 8.6 23.65 M 8.6 19.14 L 12.25 19.14" fill="none" stroke="#000000" stroke-width="1.3" stroke-miterlimit="10" pointer-events="all"/></g></g><g/><g/></g></svg>