<?xml version="1.0" encoding="UTF-8"?>
<svg xmlns="http://www.w3.org/2000/svg" style="left: 1px; top: 1px; width: 42px; height: 42px; display: block; position: relative; overflow: hidden;"><g><g/><g graphViewDrawPane="true"><g shape-node="" transform="translate(0.5,0.5)" style="visibility: visible;"><path cell-id="2" d="M 1.2 20.22 L 7 20.22 L 7 17.08 L 11.84 17.08 C 13.43 13.51 17.03 11.2 21 11.2 C 24.97 11.2 28.57 13.51 30.16 17.08 L 35 17.08 L 35 20.22 L 40.8 20.22 L 40.8 21.78 L 35 21.78 L 35 24.92 L 30.16 24.92 C 28.57 28.49 24.97 30.8 21 30.8 C 17.03 30.8 13.43 28.49 11.84 24.92 L 7 24.92 L 7 21.78 L 1.2 21.78 Z" fill="#ffffff" stroke="#000000" stroke-width="1.3" stroke-miterlimit="10" pointer-events="all"/><path cell-id="2" d="M 7 20.22 L 7 21.78 M 35 20.22 L 35 21.78 M 11.84 24.92 C 10.73 22.42 10.73 19.58 11.84 17.08 M 30.16 17.08 C 31.27 19.58 31.27 22.42 30.16 24.92" fill="none" stroke="white" stroke-width="9.3" stroke-miterlimit="10" pointer-events="stroke" visibility="hidden"/><path cell-id="2" d="M 7 20.22 L 7 21.78 M 35 20.22 L 35 21.78 M 11.84 24.92 C 10.73 22.42 10.73 19.58 11.84 17.08 M 30.16 17.08 C 31.27 19.58 31.27 22.42 30.16 24.92" fill="none" stroke="#000000" stroke-width="1.3" stroke-miterlimit="10" pointer-events="all"/></g></g><g/><g/></g></svg>