<?xml version="1.0" encoding="UTF-8"?>
<svg xmlns="http://www.w3.org/2000/svg" style="left: 1px; top: 1px; width: 42px; height: 42px; display: block; position: relative; overflow: hidden;"><g><g/><g graphViewDrawPane="true"><g shape-node="" transform="translate(0.5,0.5)" style="visibility: visible;"><path cell-id="2" d="M 7.84 31.92 L 1.12 39.2 L 34.72 39.2 L 28 31.92" fill="#ffffff" stroke="#000000" stroke-width="1.3" stroke-miterlimit="10" pointer-events="all"/><path cell-id="2" d="M 1.46 15.68 C 2.82 7.63 9.76 1.73 17.92 1.68 L 40.32 1.68 L 40.32 12.88 L 33.85 12.88 C 35.99 18.87 34.56 25.55 30.16 30.14 C 25.76 34.74 19.15 36.45 13.07 34.58 C 7 32.7 2.5 27.55 1.46 21.28" fill="#ffffff" stroke="#000000" stroke-width="1.3" stroke-miterlimit="10" pointer-events="all"/><path cell-id="2" d="M 13.1 15.68 C 14.37 13.48 16.95 12.41 19.4 13.07 C 21.85 13.73 23.55 15.95 23.55 18.48 C 23.55 21.01 21.85 23.23 19.4 23.89 C 16.95 24.55 14.37 23.48 13.1 21.28" fill="none" stroke="white" stroke-width="9.3" stroke-miterlimit="10" pointer-events="stroke" visibility="hidden"/><path cell-id="2" d="M 13.1 15.68 C 14.37 13.48 16.95 12.41 19.4 13.07 C 21.85 13.73 23.55 15.95 23.55 18.48 C 23.55 21.01 21.85 23.23 19.4 23.89 C 16.95 24.55 14.37 23.48 13.1 21.28" fill="none" stroke="#000000" stroke-width="1.3" stroke-miterlimit="10" pointer-events="all"/></g></g><g/><g/></g></svg>