<?xml version="1.0" encoding="UTF-8"?>
<svg xmlns="http://www.w3.org/2000/svg" style="left: 1px; top: 1px; width: 42px; height: 42px; display: block; position: relative; overflow: hidden;"><g><g/><g graphViewDrawPane="true"><g shape-node="" transform="translate(0.5,0.5)" style="visibility: visible;"><path cell-id="2" d="M 3.62 10.72 C 4.57 9.66 5.93 9.04 7.36 9.04 C 8.8 9.04 10.16 9.66 11.11 10.72 L 11.11 33.07 C 10.16 34.14 8.8 34.75 7.36 34.75 C 5.93 34.75 4.57 34.14 3.62 33.07 Z M 38.56 18.17 C 39.63 19.12 40.25 20.47 40.25 21.9 C 40.25 23.32 39.63 24.68 38.56 25.62 L 16.1 25.62 C 15.03 24.68 14.41 23.32 14.41 21.9 C 14.41 20.47 15.03 19.12 16.1 18.17 Z M 16.1 18.17 L 16.1 25.62 M 38.56 18.17 L 38.56 25.62 M 7.36 9.11 L 7.36 7 M 4.87 7 L 9.86 7 M 1.5 21.9 L 3.62 21.9 M 1.5 19.41 L 1.5 24.38" fill="#ffffff" stroke="#000000" stroke-width="1.3" stroke-miterlimit="10" pointer-events="all"/><rect cell-id="2" x="11.11" y="21.4" width="3.37" height="0.99" fill="#ffffff" stroke="#000000" stroke-width="1.3" pointer-events="all"/></g></g><g/><g/></g></svg>