<?xml version="1.0" encoding="UTF-8"?>
<svg xmlns="http://www.w3.org/2000/svg" style="left: 1px; top: 1px; width: 42px; height: 42px; display: block; position: relative; overflow: hidden;"><g><g/><g graphViewDrawPane="true"><g shape-node="" transform="translate(0.5,0.5)" style="visibility: visible;"><path cell-id="2" d="M 16.74 2.9 C 17.77 1.74 19.24 1.08 20.79 1.08 C 22.34 1.08 23.81 1.74 24.84 2.9 L 24.84 27.07 C 23.81 28.23 22.34 28.89 20.79 28.89 C 19.24 28.89 17.77 28.23 16.74 27.07 Z M 32.94 32.44 C 34.1 33.46 34.77 34.93 34.77 36.47 C 34.77 38.01 34.1 39.48 32.94 40.5 L 8.64 40.5 C 7.48 39.48 6.81 38.01 6.81 36.47 C 6.81 34.93 7.48 33.46 8.64 32.44 Z M 34.7 36.47 L 36.99 36.47 M 36.99 33.79 L 36.99 39.16 M 4.59 36.47 L 6.89 36.47 M 4.59 33.79 L 4.59 39.16 M 16.74 27.07 L 24.84 27.07 M 16.74 2.9 L 24.84 2.9" fill="#ffffff" stroke="#000000" stroke-width="1.3" stroke-miterlimit="10" pointer-events="all"/><rect cell-id="2" x="20.25" y="28.82" width="1.08" height="3.63" fill="#ffffff" stroke="#000000" stroke-width="1.3" pointer-events="all"/></g></g><g/><g/></g></svg>