<?xml version="1.0" encoding="UTF-8"?>
<svg xmlns="http://www.w3.org/2000/svg" style="left: 1px; top: 1px; width: 42px; height: 42px; display: block; position: relative; overflow: hidden;"><g><g/><g graphViewDrawPane="true"><g shape-node="" transform="translate(0.5,0.5)" style="visibility: visible;"><path cell-id="2" d="M 13.44 31.92 L 6.72 39.2 L 40.32 39.2 L 33.6 31.92" fill="#ffffff" stroke="#000000" stroke-width="1.3" stroke-miterlimit="10" pointer-events="all"/><path cell-id="2" d="M 39.98 15.68 C 38.62 7.63 31.68 1.73 23.52 1.68 L 1.12 1.68 L 1.12 12.88 L 7.59 12.88 C 5.45 18.87 6.88 25.55 11.28 30.14 C 15.68 34.74 22.29 36.45 28.37 34.58 C 34.44 32.7 38.94 27.55 39.98 21.28" fill="#ffffff" stroke="#000000" stroke-width="1.3" stroke-miterlimit="10" pointer-events="all"/><path cell-id="2" d="M 28.34 15.68 C 27.07 13.48 24.49 12.41 22.04 13.07 C 19.59 13.73 17.89 15.95 17.89 18.48 C 17.89 21.01 19.59 23.23 22.04 23.89 C 24.49 24.55 27.07 23.48 28.34 21.28" fill="none" stroke="white" stroke-width="9.3" stroke-miterlimit="10" pointer-events="stroke" visibility="hidden"/><path cell-id="2" d="M 28.34 15.68 C 27.07 13.48 24.49 12.41 22.04 13.07 C 19.59 13.73 17.89 15.95 17.89 18.48 C 17.89 21.01 19.59 23.23 22.04 23.89 C 24.49 24.55 27.07 23.48 28.34 21.28" fill="none" stroke="#000000" stroke-width="1.3" stroke-miterlimit="10" pointer-events="all"/></g></g><g/><g/></g></svg>