<?xml version="1.0" encoding="UTF-8"?>
<svg xmlns="http://www.w3.org/2000/svg" style="left: 1px; top: 1px; width: 42px; height: 42px; display: block; position: relative; overflow: hidden;"><g><g/><g graphViewDrawPane="true"><g shape-node="" transform="translate(0.5,0.5)" style="visibility: visible;"><path cell-id="2" d="M 7.84 32.03 L 1.12 39.2 L 34.72 39.2 L 28 32.03" fill="#ffffff" stroke="#000000" stroke-width="1.3" stroke-miterlimit="10" pointer-events="all"/><path cell-id="2" d="M 1.46 16.02 C 2.83 8.06 9.83 2.24 18.02 2.24 C 26.21 2.24 33.21 8.06 34.58 16.02 L 40.32 16.02 L 40.32 21.54 L 34.58 21.54 C 33.21 29.5 26.21 35.32 18.02 35.32 C 9.83 35.32 2.83 29.5 1.46 21.54" fill="#ffffff" stroke="#000000" stroke-width="1.3" stroke-miterlimit="10" pointer-events="all"/><path cell-id="2" d="M 5.43 24.74 C 7.61 27.01 11.03 27.62 13.89 26.26 C 16.74 24.9 18.37 21.87 17.92 18.78 C 17.37 15.64 18.98 12.52 21.88 11.11 C 24.79 9.71 28.28 10.36 30.46 12.71" fill="none" stroke="white" stroke-width="9.3" stroke-miterlimit="10" pointer-events="stroke" visibility="hidden"/><path cell-id="2" d="M 5.43 24.74 C 7.61 27.01 11.03 27.62 13.89 26.26 C 16.74 24.9 18.37 21.87 17.92 18.78 C 17.37 15.64 18.98 12.52 21.88 11.11 C 24.79 9.71 28.28 10.36 30.46 12.71" fill="none" stroke="#000000" stroke-width="1.3" stroke-miterlimit="10" pointer-events="all"/></g></g><g/><g/></g></svg>