<?xml version="1.0" encoding="UTF-8"?>
<svg xmlns="http://www.w3.org/2000/svg" style="left: 1px; top: 1px; width: 42px; height: 42px; display: block; position: relative; overflow: hidden;"><g><g/><g graphViewDrawPane="true"><g shape-node="" transform="translate(0.5,0.5)" style="visibility: visible;"><path cell-id="2" d="M 39.78 12.21 L 39.78 29.13 M 0.78 12.21 L 0.78 29.13 M 0.78 20.67 C 6.36 10.92 14.7 10.92 20.28 20.67 C 25.86 30.42 34.2 30.42 39.78 20.67 M 4.06 14.32 L 5.85 16.61 M 10.53 12.21 L 10.53 14.75 M 16.77 14.32 L 14.74 16.69 M 21.61 19.65 L 18.88 21.85 M 26.13 24.9 L 23.56 27.44 M 30.03 26.59 L 30.03 29.13 M 34.87 24.39 L 36.97 27.02" fill="none" stroke="white" stroke-width="9.3" stroke-miterlimit="10" pointer-events="stroke" visibility="hidden"/><path cell-id="2" d="M 39.78 12.21 L 39.78 29.13 M 0.78 12.21 L 0.78 29.13 M 0.78 20.67 C 6.36 10.92 14.7 10.92 20.28 20.67 C 25.86 30.42 34.2 30.42 39.78 20.67 M 4.06 14.32 L 5.85 16.61 M 10.53 12.21 L 10.53 14.75 M 16.77 14.32 L 14.74 16.69 M 21.61 19.65 L 18.88 21.85 M 26.13 24.9 L 23.56 27.44 M 30.03 26.59 L 30.03 29.13 M 34.87 24.39 L 36.97 27.02" fill="none" stroke="#000000" stroke-width="1.3" stroke-miterlimit="10" pointer-events="all"/></g></g><g/><g/></g></svg>