<?xml version="1.0" encoding="UTF-8"?>
<svg xmlns="http://www.w3.org/2000/svg" style="left: 1px; top: 1px; width: 42px; height: 42px; display: block; position: relative; overflow: hidden;"><g><g/><g graphViewDrawPane="true"><g shape-node="" transform="translate(0.5,0.5)" style="visibility: visible;"><path cell-id="2" d="M 0.78 17.16 L 6.24 17.16 C 6.24 15.22 7.81 13.65 9.75 13.65 C 11.69 13.65 13.26 15.22 13.26 17.16 C 13.26 15.22 14.83 13.65 16.77 13.65 C 18.71 13.65 20.28 15.22 20.28 17.16 C 20.28 15.22 21.85 13.65 23.79 13.65 C 25.73 13.65 27.3 15.22 27.3 17.16 C 27.3 15.22 28.87 13.65 30.81 13.65 C 32.75 13.65 34.32 15.22 34.32 17.16 L 39.78 17.16 L 39.78 23.4 L 34.32 23.4 C 34.32 25.34 32.75 26.91 30.81 26.91 C 28.87 26.91 27.3 25.34 27.3 23.4 C 27.3 25.34 25.73 26.91 23.79 26.91 C 21.85 26.91 20.28 25.34 20.28 23.4 C 20.28 25.34 18.71 26.91 16.77 26.91 C 14.83 26.91 13.26 25.34 13.26 23.4 C 13.26 25.34 11.69 26.91 9.75 26.91 C 7.81 26.91 6.24 25.34 6.24 23.4 L 0.78 23.4 Z Z M 39.78 12.48 L 39.78 28.08 M 0.78 12.48 L 0.78 28.08" fill="#ffffff" stroke="#000000" stroke-width="1.3" stroke-miterlimit="10" pointer-events="all"/></g></g><g/><g/></g></svg>