<?xml version="1.0" encoding="UTF-8"?>
<svg xmlns="http://www.w3.org/2000/svg" style="left: 1px; top: 1px; width: 42px; height: 42px; display: block; position: relative; overflow: hidden;"><g><g/><g graphViewDrawPane="true"><g shape-node="" transform="translate(0.5,0.5)" style="visibility: visible;"><rect cell-id="2" x="10.14" y="1.17" width="19.5" height="39" fill="#ffffff" stroke="#000000" stroke-width="1.3" pointer-events="all"/><path cell-id="2" d="M 12.48 13.46 C 15.33 11.6 18.99 11.6 21.84 13.46 M 31.59 26.52 L 23.01 26.52 L 23.01 20.67 L 28.47 26.52" fill="none" stroke="white" stroke-width="9.3" stroke-miterlimit="10" pointer-events="stroke" visibility="hidden"/><path cell-id="2" d="M 12.48 13.46 C 15.33 11.6 18.99 11.6 21.84 13.46 M 31.59 26.52 L 23.01 26.52 L 23.01 20.67 L 28.47 26.52" fill="none" stroke="#000000" stroke-width="1.3" stroke-miterlimit="10" pointer-events="all"/><path cell-id="2" d="M 10.14 32.37 L 29.64 32.37 M 10.14 8.97 L 29.64 8.97" fill="none" stroke="white" stroke-width="9.3" stroke-miterlimit="10" pointer-events="stroke" visibility="hidden"/><path cell-id="2" d="M 10.14 32.37 L 29.64 32.37 M 10.14 8.97 L 29.64 8.97" fill="none" stroke="#000000" stroke-width="1.3" stroke-miterlimit="10" stroke-dasharray="0.7799999999999999 0.7799999999999999" pointer-events="all"/><ellipse cell-id="2" cx="17.16" cy="20.67" rx="5.85" ry="5.8500000000000005" fill="none" stroke="white" stroke-width="9.3" pointer-events="stroke" visibility="hidden"/><ellipse cell-id="2" cx="17.16" cy="20.67" rx="5.85" ry="5.8500000000000005" fill="none" stroke="#000000" stroke-width="1.3" stroke-dasharray="0.7799999999999999 0.7799999999999999" pointer-events="all"/></g></g><g/><g/></g></svg>