<?xml version="1.0" encoding="UTF-8"?>
<svg xmlns="http://www.w3.org/2000/svg" style="left: 1px; top: 1px; width: 42px; height: 42px; display: block; position: relative; overflow: hidden;"><g><g/><g graphViewDrawPane="true"><g shape-node="" transform="translate(0.5,0.5)" style="visibility: visible;"><rect cell-id="2" x="1.17" y="10.92" width="39" height="19.5" fill="#ffffff" stroke="#000000" stroke-width="1.3" pointer-events="all"/><path cell-id="2" d="M 5.07 14.82 L 5.07 26.52 M 12.87 14.82 L 12.87 26.52 M 20.67 14.82 L 20.67 26.52 M 28.47 14.82 L 28.47 26.52 M 36.27 14.82 L 36.27 26.52" fill="none" stroke="white" stroke-width="9.3" stroke-miterlimit="10" pointer-events="stroke" visibility="hidden"/><path cell-id="2" d="M 5.07 14.82 L 5.07 26.52 M 12.87 14.82 L 12.87 26.52 M 20.67 14.82 L 20.67 26.52 M 28.47 14.82 L 28.47 26.52 M 36.27 14.82 L 36.27 26.52" fill="none" stroke="#000000" stroke-width="1.3" stroke-miterlimit="10" pointer-events="all"/><path cell-id="2" d="M 8.97 10.92 L 8.97 30.42 M 16.77 10.92 L 16.77 30.42 M 24.57 10.92 L 24.57 30.42 M 32.37 10.92 L 32.37 30.42" fill="none" stroke="white" stroke-width="9.3" stroke-miterlimit="10" pointer-events="stroke" visibility="hidden"/><path cell-id="2" d="M 8.97 10.92 L 8.97 30.42 M 16.77 10.92 L 16.77 30.42 M 24.57 10.92 L 24.57 30.42 M 32.37 10.92 L 32.37 30.42" fill="none" stroke="#000000" stroke-width="1.3" stroke-miterlimit="10" stroke-dasharray="0.78 0.78" pointer-events="all"/></g></g><g/><g/></g></svg>