<?xml version="1.0" encoding="UTF-8"?>
<svg xmlns="http://www.w3.org/2000/svg" style="left: 1px; top: 1px; width: 42px; height: 42px; display: block; position: relative; overflow: hidden;"><g><g/><g graphViewDrawPane="true"><g shape-node="" transform="translate(0.5,0.5)" style="visibility: visible;"><rect cell-id="2" x="4.68" y="2.88" width="36" height="36" fill="#ffffff" stroke="#000000" stroke-width="1.3" pointer-events="all"/><path cell-id="2" d="M 37.08 6.48 L 8.28 6.48 L 8.28 35.28 L 37.08 35.28" fill="none" stroke="white" stroke-width="9.3" stroke-miterlimit="10" pointer-events="stroke" visibility="hidden"/><path cell-id="2" d="M 37.08 6.48 L 8.28 6.48 L 8.28 35.28 L 37.08 35.28" fill="none" stroke="#000000" stroke-width="1.3" stroke-miterlimit="10" stroke-dasharray="0.72 0.72" pointer-events="all"/><rect cell-id="2" x="1.08" y="2.88" width="0" height="0" fill="none" stroke="white" stroke-width="9.3" pointer-events="stroke" visibility="hidden"/><rect cell-id="2" x="1.08" y="2.88" width="0" height="0" fill="none" stroke="#000000" stroke-width="1.3" pointer-events="all"/><path cell-id="2" d="M 1.08 20.88 L 37.08 20.88 M 8.28 6.48 L 8.28 35.28 M 11.88 20.88 L 17.28 11.88 L 28.08 29.88 L 33.48 20.88" fill="none" stroke="white" stroke-width="9.3" stroke-miterlimit="10" pointer-events="stroke" visibility="hidden"/><path cell-id="2" d="M 1.08 20.88 L 37.08 20.88 M 8.28 6.48 L 8.28 35.28 M 11.88 20.88 L 17.28 11.88 L 28.08 29.88 L 33.48 20.88" fill="none" stroke="#000000" stroke-width="1.3" stroke-miterlimit="10" pointer-events="all"/></g></g><g/><g/></g></svg>