<?xml version="1.0" encoding="UTF-8"?>
<svg xmlns="http://www.w3.org/2000/svg" style="left: 1px; top: 1px; width: 42px; height: 42px; display: block; position: relative; overflow: hidden;"><g><g/><g graphViewDrawPane="true"><g shape-node="" transform="translate(0.5,0.5)" style="visibility: visible;"><path cell-id="2" d="M 1.17 8.97 L 40.17 8.97 L 32.37 32.37 L 8.97 32.37 Z" fill="#ffffff" stroke="#000000" stroke-width="1.3" stroke-miterlimit="10" pointer-events="all"/><path cell-id="2" d="M 8.97 8.97 L 8.97 32.37 M 32.37 8.97 L 32.37 32.37 M 12.87 12.87 L 17.94 17.94 M 28.47 12.87 L 23.4 17.94 M 17.94 23.4 L 12.87 28.47 M 23.4 23.4 L 28.47 28.47" fill="none" stroke="white" stroke-width="9.3" stroke-miterlimit="10" pointer-events="stroke" visibility="hidden"/><path cell-id="2" d="M 8.97 8.97 L 8.97 32.37 M 32.37 8.97 L 32.37 32.37 M 12.87 12.87 L 17.94 17.94 M 28.47 12.87 L 23.4 17.94 M 17.94 23.4 L 12.87 28.47 M 23.4 23.4 L 28.47 28.47" fill="none" stroke="#000000" stroke-width="1.3" stroke-miterlimit="10" pointer-events="all"/><ellipse cell-id="2" cx="20.67" cy="20.67" rx="3.9000000000000004" ry="3.9000000000000004" fill="none" stroke="white" stroke-width="9.3" pointer-events="stroke" visibility="hidden"/><ellipse cell-id="2" cx="20.67" cy="20.67" rx="3.9000000000000004" ry="3.9000000000000004" fill="none" stroke="#000000" stroke-width="1.3" pointer-events="all"/></g></g><g/><g/></g></svg>