<?xml version="1.0" encoding="UTF-8"?>
<svg xmlns="http://www.w3.org/2000/svg" style="left: 1px; top: 1px; width: 42px; height: 42px; display: block; position: relative; overflow: hidden;"><g><g/><g graphViewDrawPane="true"><g shape-node="" transform="translate(0.5,0.5)" style="visibility: visible;"><path cell-id="2" d="M 1.17 8.97 L 40.17 8.97 L 32.37 32.37 L 8.97 32.37 Z" fill="#ffffff" stroke="#000000" stroke-width="1.3" stroke-miterlimit="10" pointer-events="all"/><path cell-id="2" d="M 10.92 8.97 L 4.29 18.72 M 30.42 8.97 L 37.05 18.72" fill="none" stroke="white" stroke-width="9.3" stroke-miterlimit="10" pointer-events="stroke" visibility="hidden"/><path cell-id="2" d="M 10.92 8.97 L 4.29 18.72 M 30.42 8.97 L 37.05 18.72" fill="none" stroke="#000000" stroke-width="1.3" stroke-miterlimit="10" pointer-events="all"/><ellipse cell-id="2" cx="20.67" cy="20.67" rx="7.800000000000001" ry="7.800000000000001" fill="none" stroke="white" stroke-width="9.3" pointer-events="stroke" visibility="hidden"/><ellipse cell-id="2" cx="20.67" cy="20.67" rx="7.800000000000001" ry="7.800000000000001" fill="none" stroke="#000000" stroke-width="1.3" pointer-events="all"/><path cell-id="2" d="M 20.67 18.72 L 24.57 18.72 M 16.77 22.62 L 20.67 22.62" fill="none" stroke="white" stroke-width="9.3" stroke-miterlimit="10" pointer-events="stroke" visibility="hidden"/><path cell-id="2" d="M 20.67 18.72 L 24.57 18.72 M 16.77 22.62 L 20.67 22.62" fill="none" stroke="#000000" stroke-width="1.3" stroke-miterlimit="10" pointer-events="all"/><path cell-id="2" d="M 20.67 17.75 L 20.67 19.7 L 17.55 18.72 Z M 20.67 21.64 L 20.67 23.6 L 23.79 22.62 Z" fill="#000000" stroke="#000000" stroke-width="1.3" stroke-miterlimit="10" pointer-events="all"/></g></g><g/><g/></g></svg>