<?xml version="1.0" encoding="UTF-8"?>
<svg xmlns="http://www.w3.org/2000/svg" style="left: 1px; top: 1px; width: 42px; height: 42px; display: block; position: relative; overflow: hidden;"><g><g/><g graphViewDrawPane="true"><g shape-node="" transform="translate(0.5,0.5)" style="visibility: visible;"><ellipse cell-id="2" cx="20.67" cy="20.67" rx="19.5" ry="19.5" fill="#ffffff" stroke="#000000" stroke-width="1.3" pointer-events="all"/><path cell-id="2" d="M 20.67 1.17 L 40.17 20.67 L 20.67 40.17 M 10.92 20.67 C 10.92 18.79 12.45 17.26 14.33 17.26 C 16.22 17.26 17.75 18.79 17.75 20.67 C 17.75 22.29 19.05 23.6 20.67 23.6 C 22.29 23.6 23.6 22.29 23.6 20.67 C 23.6 18.79 25.12 17.26 27.01 17.26 C 28.89 17.26 30.42 18.79 30.42 20.67" fill="none" stroke="white" stroke-width="9.3" stroke-miterlimit="10" pointer-events="stroke" visibility="hidden"/><path cell-id="2" d="M 20.67 1.17 L 40.17 20.67 L 20.67 40.17 M 10.92 20.67 C 10.92 18.79 12.45 17.26 14.33 17.26 C 16.22 17.26 17.75 18.79 17.75 20.67 C 17.75 22.29 19.05 23.6 20.67 23.6 C 22.29 23.6 23.6 22.29 23.6 20.67 C 23.6 18.79 25.12 17.26 27.01 17.26 C 28.89 17.26 30.42 18.79 30.42 20.67" fill="none" stroke="#000000" stroke-width="1.3" stroke-miterlimit="10" pointer-events="all"/></g></g><g/><g/></g></svg>